STARTFONT 2.1
FONT -HP-Sung-Medium-R-Normal--42-420-75-75-C-420-CNS11643.1992-3
SIZE 42 75 75
FONTBOUNDINGBOX 42 42 0 -6

STARTPROPERTIES 23
FONTNAME_REGISTRY ""
FOUNDRY "HP"
FAMILY_NAME "Sung"
WEIGHT_NAME "Medium"
SLANT "R"
SETWIDTH_NAME "Normal"
ADD_STYLE_NAME ""
PIXEL_SIZE 42
POINT_SIZE 420
RESOLUTION_X 75
RESOLUTION_Y 75
SPACING "C"
AVERAGE_WIDTH 420
CHARSET_REGISTRY "CNS11643.1992"
CHARSET_ENCODING "3"
COPYRIGHT "Copyright (c) 1994 Hewlett-Packard Company."
_HP_ASXVERSION "@(#) ASX 3.00 $Revision: 13.9 $ sungX42n3"
WEIGHT 10
X_HEIGHT 20
QUAD_WIDTH 42
DEFAULT_CHAR 25159
FONT_DESCENT 6
FONT_ASCENT 36
ENDPROPERTIES

CHARS 6149

STARTCHAR cns3_2121
ENCODING 8481
SWIDTH 960 0
DWIDTH 42 0
BBX 42 42 0 -6
BITMAP
000000000000
00001C000000
00001E000000
00001E000000
00001C000000
00001C000000
00001C000000
00001C000000
00001C000000
00001C000000
00001C000000
00001C000000
00001C000000
00001C000000
00001C000000
00001C000000
00001C000000
00001C000000
00001C000000
00001C000000
00001C000000
00001C000000
00001C000000
00001C000000
00001C000000
00001C000000
00001C000000
00001C000000
00001C000000
00001C000000
00001C000000
00001C000000
00001C000000
00001C000000
00001C000000
00001C000000
00001C000000
00001C000000
00001C000000
00001C000000
00001C000000
000000000000
ENDCHAR

STARTCHAR cns3_2122
ENCODING 8482
SWIDTH 960 0
DWIDTH 42 0
BBX 42 42 0 -6
BITMAP
000000000000
000000000000
000000000000
000000000000
000000000000
000000000000
000000000000
000000000000
000000000000
000000000000
000000000000
000000000000
000000000000
000000000000
000000000000
000000000000
000070000000
000038000000
00001C000000
00001C000000
00000E000000
00000F000000
000007800000
000007800000
000007800000
000003800000
000001000000
000000000000
000000000000
000000000000
000000000000
000000000000
000000000000
000000000000
000000000000
000000000000
000000000000
000000000000
000000000000
000000000000
000000000000
000000000000
ENDCHAR

STARTCHAR cns3_2123
ENCODING 8483
SWIDTH 960 0
DWIDTH 42 0
BBX 42 42 0 -6
BITMAP
000000000000
000000000000
000000000000
000003800000
000003C00000
000003C00000
000003800000
000003800000
000003800000
000003800000
000003800000
000003800000
000003800000
000003800000
000003800000
000003800000
000003800000
000003800000
000007000000
000007000000
000007000000
000007000000
000007000000
000007000000
00000E000000
00000C000000
00000C000000
00001C000000
000038000000
000038000000
000070000000
0000E0000000
0001C0000000
000380000000
000700000000
000E00000000
003C00000000
007000000000
00E000000000
000000000000
000000000000
000000000000
ENDCHAR

STARTCHAR cns3_2124
ENCODING 8484
SWIDTH 960 0
DWIDTH 42 0
BBX 42 42 0 -6
BITMAP
000000000000
000003800000
000003C00000
000003C00000
000003800000
000003800000
000003800000
000003800000
000003800000
000003800000
000003800000
000003800000
000003800000
000003800000
000003800000
000003800000
000003800000
000003800000
000003800000
000003800000
000003800000
000003800000
000003800000
000003800000
000003800000
000003800000
000003800000
000003800000
000003800000
000003800000
000003800000
000003800000
000003800000
000003800000
000003800000
000003800000
000003800000
000007800000
0003FF800000
00007F000000
00000E000000
000000000000
ENDCHAR

STARTCHAR cns3_2125
ENCODING 8485
SWIDTH 960 0
DWIDTH 42 0
BBX 42 42 0 -6
BITMAP
000000000000
000000000000
000000000000
000000000400
000000000E00
3FFFFFFFFF00
000038000000
000038000000
000038000000
000038000000
000038000000
000038000000
000038000000
000038000000
000038000000
000038000000
000038000000
000038000000
000038000000
000038000000
000038000000
000038000000
000038000000
000038000000
000038000000
000038000000
000038000000
000038000000
000038000000
000038000000
000038000000
000038000000
000038000000
000038000000
000038000000
000038000000
000038000000
000038000000
000038000000
000038000000
000038000000
000000000000
ENDCHAR

STARTCHAR cns3_2126
ENCODING 8486
SWIDTH 960 0
DWIDTH 42 0
BBX 42 42 0 -6
BITMAP
000000000000
00000E000000
00000E000000
00000E000000
00000E000000
00000E000000
00000E000000
00000E000000
00000E000000
00000E000000
00000E000000
00000E000000
00000E000000
00000E000000
00000E000000
00000E000000
00000E000000
00000E000000
00000E000000
00000E000000
00000E000000
00000E000000
00000E000000
00000E000000
00000E000000
00000E000000
00000E000000
00000E000000
00000E000000
00000E000000
00000E000000
00000E000000
00000E000000
00000E000000
00000E000000
00000E000000
00000E000200
00000E000700
7FFFFFFFFF80
000000000000
000000000000
000000000000
ENDCHAR

STARTCHAR cns3_2127
ENCODING 8487
SWIDTH 960 0
DWIDTH 42 0
BBX 42 42 0 -6
BITMAP
000000000000
000000000000
0C0000001800
0FFFFFFFFC00
0E0000001E00
0E0000001E00
0E0000001C00
0E0000001C00
0E0000001C00
0E0000001C00
0E0000001C00
0E0000001C00
0E0000001C00
0E0000001C00
0E0000001C00
0E0000001C00
0E0000001C00
0E0000001C00
0E0000001C00
0E0000001C00
0E0000001C00
0E0000001C00
0E0000001C00
0E0000001C00
0E0000001C00
0E0000001C00
0E0000001C00
0E0000001C00
0E0000001C00
0E0000001C00
0E0000001C00
0E0000001C00
0E0000001C00
0E0000001C00
0E0000001C00
0E0000001C00
0E0000003C00
0E00000FFC00
0E000001F800
0E0000007000
0E0000000000
000000000000
ENDCHAR

STARTCHAR cns3_2128
ENCODING 8488
SWIDTH 960 0
DWIDTH 42 0
BBX 42 42 0 -6
BITMAP
000000000000
000000000000
000000000000
000000000000
000000000000
000000000000
000000000000
000000000000
000000000000
000000000000
000000000000
000000000000
000000000000
000000000000
000000000000
030000000600
07FFFFFFFF00
070000000E00
0F0000001C00
1E0000003800
1C0000003000
000000000000
000000000000
000000000000
000000000000
000000000000
000000000000
000000000000
000000000000
000000000000
000000000000
000000000000
000000000000
000000000000
000000000000
000000000000
000000000000
000000000000
000000000000
000000000000
000000000000
000000000000
ENDCHAR

STARTCHAR cns3_2129
ENCODING 8489
SWIDTH 960 0
DWIDTH 42 0
BBX 42 42 0 -6
BITMAP
000000000000
000000000000
000000000000
000000000000
000000000200
000000000700
7FFFFFFFFF80
070000000000
070000000000
070000000000
070000000000
070000000000
070000000000
070000000000
070000000000
070000000000
070000000000
070000000000
070000000000
070000000000
070000000000
070000000000
070000000000
070000000000
070000000000
070000000000
070000000000
070000000000
070000000000
070000000000
070000000000
070000000000
070000000000
070000000000
070000000000
078000000000
03FFFFFFFF80
00FFFFFFFF80
000000000000
000000000000
000000000000
000000000000
ENDCHAR

STARTCHAR cns3_212A
ENCODING 8490
SWIDTH 960 0
DWIDTH 42 0
BBX 42 42 0 -6
BITMAP
000000000000
000000000000
000000080000
000C001C0000
000FFFFE0000
000E001C0000
000E001C0000
000E001C0000
000E001C0000
000E001C0000
000E001C0000
000E001C0000
000E001C0000
000E001C0000
000E001C0000
000E001C0000
000E001C0000
000E001C0000
000E001C0000
000E001C0000
000E001C0000
000E001C0000
000E001C0000
000E001C0000
000E001C0000
000E001C0000
000E001C0000
000E003C0000
000E0FF80000
000E01F00000
000E00600000
000E00000000
000E00000000
000E00000000
000E00000000
000E00000000
000E00000000
000E00000000
000E00000000
000E00000000
000E00000000
000000000000
ENDCHAR

STARTCHAR cns3_212B
ENCODING 8491
SWIDTH 960 0
DWIDTH 42 0
BBX 42 42 0 -6
BITMAP
000000000000
000000000000
000000000000
000000000000
000000000000
000000000000
000000000000
000000000000
000030000000
000038000000
00003C000000
000078000000
000070000000
000070000000
000070000000
000070000000
000060000000
0000E0000000
0000E0000000
0000E0000000
0000C0000000
0001C0000000
0001C0000000
000180000000
000380070000
00038003C000
00070000E000
000600007000
000C00003800
0018001FFC00
1FFFFFFC1C00
1FFFFF801E00
0F0000000E00
060000000C00
000000000000
000000000000
000000000000
000000000000
000000000000
000000000000
000000000000
000000000000
ENDCHAR

STARTCHAR cns3_212C
ENCODING 8492
SWIDTH 960 0
DWIDTH 42 0
BBX 42 42 0 -6
BITMAP
000000000000
00000C000000
00001F000000
00001E000000
00003C000000
00003F000000
000073800000
0000E1C00000
0001E0E00000
0003C0700000
000780780000
000F003E0000
001E000F0000
003C0007C000
00780003E000
01E00E01F800
03C00F00FC00
07800E001F80
1E000E000600
78000E000000
00000E000000
00000E000000
00000E000000
00000E000000
00000E000000
00000E000000
00000E000000
00000E000000
00000E000000
00000E000000
00000E000000
00000E000000
00000E000000
00000E000000
00000E000000
00000E000000
00000E000000
00000E000000
00000E000000
00000E000000
00000E000000
000000000000
ENDCHAR

STARTCHAR cns3_212D
ENCODING 8493
SWIDTH 960 0
DWIDTH 42 0
BBX 42 42 0 -6
BITMAP
000000000000
00C000000000
00F800000000
00F000000000
00E000000000
00E000000000
01C000000000
01C000001800
01C000003C00
03FFFFFFFE00
038007000000
030007000000
070007000000
060007000000
0E0007000000
0C0007000000
180007000000
300007000000
000007000000
000007000000
000007000000
000007000000
000007000000
000007000000
000007000000
000007000000
000007000000
000007000000
000007000000
000007000000
000007000000
000007000000
000007000000
000007000000
000007000000
000007000000
00000F000000
0003FF000000
00007E000000
00001C000000
000018000000
000000000000
ENDCHAR

STARTCHAR cns3_212E
ENCODING 8494
SWIDTH 960 0
DWIDTH 42 0
BBX 42 42 0 -6
BITMAP
000000000000
000000000000
000000000000
00000001C000
00006001E000
00E07003C000
006038038000
00703C078000
00701E078000
00300F070000
00380F0F0000
00180F0E0000
001C061E0000
000C001C0000
000E003C0000
000E00380000
000700380000
000300700000
000380700000
0001C0E00000
0001E0E00000
0000E1C00000
000073800000
00007B800000
00003F000000
00001E000000
00001E000000
00003F800000
0000F3C00000
0001E1E00000
0003C0F00000
0007807C0000
000F003E0000
003C001F8000
0078000FE000
01E00003FC00
03C00000FF00
0F0000007E00
3C0000001C00
000000000000
000000000000
000000000000
ENDCHAR

STARTCHAR cns3_212F
ENCODING 8495
SWIDTH 960 0
DWIDTH 42 0
BBX 42 42 0 -6
BITMAP
000000000000
000000000000
000003000000
000003C00000
000007800000
00000F000000
00001C000000
000078000000
0001E0000000
000780000000
000000000000
000600600000
0007FFF00000
000700780000
000700700000
000700700000
000700700000
000700700000
000700700000
000700700000
000700700000
000700700000
000700700000
000700700000
000F00700000
000E00700000
000E00700000
000E00700000
000E00700200
001C00700200
001C00700200
003800700200
003800700300
007000700300
00E000700300
01C000780780
0380003FFF80
0F00001FFF00
1C0000000000
380000000000
000000000000
000000000000
ENDCHAR

STARTCHAR cns3_2130
ENCODING 8496
SWIDTH 960 0
DWIDTH 42 0
BBX 42 42 0 -6
BITMAP
000000000000
000800000000
001C00000000
001E03800000
001C07C00000
001807800000
003806000000
003806000000
003806000000
003806000000
003006000000
007006000000
007006000000
00700C000000
00E00C000000
00E00E000000
06E01E000000
0FFE1E000000
0FFFFE000000
00001F000000
00001F000000
00001F000000
00003B800000
00003B800000
000071C00000
000071C00000
000061E00000
0000E0E00000
0000C0700000
0001C0780000
000380380000
0003003C0000
0007001E0000
000E001F0000
001C000F8000
00380007E000
00700003F000
00E00001F800
03C000007C00
070000001800
0C0000000000
000000000000
ENDCHAR

STARTCHAR cns3_2131
ENCODING 8497
SWIDTH 960 0
DWIDTH 42 0
BBX 42 42 0 -6
BITMAP
000000000000
000000000000
000000002000
000000007000
03FFFFFFF800
000000000000
000000000000
000000000000
000000000000
000000000000
000000000000
000000000400
000000000E00
1FFFFFFFFF00
000380000000
000300000000
000300000000
000700000000
000700000000
000600000000
000600000000
000E00018000
000FFFFFC000
000C0001E000
001C0001C000
00180003C000
00000003C000
00000003C000
00000003C000
00000003C000
00000003C000
00000003C000
000000078000
000000078000
000000078000
000000070000
00003E0F0000
000007FF0000
000001FE0000
000000F80000
000000600000
000000000000
ENDCHAR

STARTCHAR cns3_2132
ENCODING 8498
SWIDTH 960 0
DWIDTH 42 0
BBX 42 42 0 -6
BITMAP
000000000000
000000000000
000018000000
00001F000000
00001E000000
00001C000000
00001C000000
00003E000000
00003E000000
00007B000000
000073000000
0000F1800000
0000E1800000
0001E0C00000
0001C0E00000
0003C0600000
000380700000
000780300000
000700380000
000F001C0000
001E001E0000
001C000F0000
003C00078000
00780003C000
00F00003F000
01E00001FF80
03C00000FF80
078000003C00
0E0000001C00
1C0000000000
300000000000
600000000000
000000000000
000000000000
000000000C00
000000001E00
3FFFFFFFFF00
000000000000
000000000000
000000000000
000000000000
000000000000
ENDCHAR

STARTCHAR cns3_2133
ENCODING 8499
SWIDTH 960 0
DWIDTH 42 0
BBX 42 42 0 -6
BITMAP
000000000000
000000000000
000000000000
0C0000000000
0E0000000000
0F0000000000
0E0006000000
0E000F000000
0E000E000000
0E000C000000
0E000C000000
0E000C000000
0E000C000000
0E000E000000
0E000E000000
0E001E000000
0E001F000000
0E001F000000
0E001F800000
0E0019800000
0E0039C00000
0E0039C00000
0E0030E00000
0E0070700000
0E0060700000
0E00E0380000
0E01C03C0000
0E01C01E0000
0E03800F0000
0E070007C000
0E0E0003E000
0E1C0001FC00
0E380000FC00
0E7000007800
0FC000000000
0F0000000000
0F8000000000
07FFFFFFFF80
01FFFFFFFF80
000000000000
000000000000
000000000000
ENDCHAR

STARTCHAR cns3_2134
ENCODING 8500
SWIDTH 960 0
DWIDTH 42 0
BBX 42 42 0 -6
BITMAP
000000000000
000000000000
000000000000
0F0000000000
0F8000000000
0F0003000000
0E03FFC00000
0E0303800000
0E0003800000
0E0003800000
0E0003800000
0E0003800000
0E0003800000
0E0003800000
0E0003800000
0E0007800000
0E0007C00000
0E000EC00000
0E000EC00000
0E000CE00000
0E001CE00000
0E0018700000
0E0038700000
0E0070380000
0E00F03C0000
0E00E01C0000
0E01C01E0000
0E03C00F0000
0E0780078000
0E0F0007C000
0E1E0003E000
0E3C0001F000
0E700000FC00
0EE000007C00
0FC000003000
0F0000000000
0F8000000000
07FFFFFFFE00
01FFFFFFFE00
000000000000
000000000000
000000000000
ENDCHAR

STARTCHAR cns3_2135
ENCODING 8501
SWIDTH 960 0
DWIDTH 42 0
BBX 42 42 0 -6
BITMAP
000000000000
000000000000
000018000000
00001E000000
00001C000000
00001C000000
00001C000000
00001C200000
00061C700000
0007FFF80000
000700700000
000700700000
000700700000
000700700000
000700700000
000700700000
000700700000
000700700000
000700700000
000700700000
000700700000
000700700000
000700700000
000700700000
000700700000
000E00700000
000E00700000
000E00700000
000C00700100
001C00700100
001C00700100
003800700100
003000700300
007000700300
00E000700300
01C000780780
0380003FFF80
0F00001FFF00
1E0000000000
380000000000
000000000000
000000000000
ENDCHAR

STARTCHAR cns3_2136
ENCODING 8502
SWIDTH 960 0
DWIDTH 42 0
BBX 42 42 0 -6
BITMAP
000000000000
000000000000
000000030000
000000078000
07FFFFFFC000
00007003C000
000070038000
000070038000
000070038000
000070038000
000070038000
000070038000
000070038000
030070038000
018070038000
00E070038000
0070F0038000
0038E0038000
001CE0038000
000EE0038000
0007E0038000
0003E0038000
0001C0038000
0001E0078000
0001F0070000
0003B8070000
00039E070000
00038F070000
000707C70000
000701F70000
000E00FF0000
000E003F0000
001C000F8000
00380007F000
0070000FFF80
00E0000EFF80
01C0001E3C00
03801FFC0C00
070001F80000
1C0000700000
300000600000
000000000000
ENDCHAR

STARTCHAR cns3_2137
ENCODING 8503
SWIDTH 960 0
DWIDTH 42 0
BBX 42 42 0 -6
BITMAP
000000000000
001800000000
001C00000000
001E00300000
001C007C0000
001C007C0000
001C00780000
001C00700000
001C00700000
001C00700000
001C08700000
001C1C700000
0FFFFE700000
001C1C700000
00181C700000
00181C700000
00181C700000
00381C700000
00381C700000
00381C700000
00381C700000
00381C700000
00301C700000
00301C700000
00301C700000
00701C700000
00703C700000
00703C700000
00603C700000
00E03C700200
00E03C700200
01C03C700200
01C03C700200
038038700300
038038700700
070070700700
0600F0780780
0E7FE07FFF80
0C0F803FFF00
180600000000
100000000000
000000000000
ENDCHAR

STARTCHAR cns3_2138
ENCODING 8504
SWIDTH 960 0
DWIDTH 42 0
BBX 42 42 0 -6
BITMAP
000000000000
000000000000
000700380000
0007C03E0000
0007803C0000
0007803C0000
000700380000
000700380000
000700380000
000700380000
000700380000
000700380000
000700380000
000700380000
000700380000
000700380200
000700380700
7FFFFFFFFF80
000700380000
000700380000
000700380000
000700380000
000700380000
000700380000
000700380000
000700380000
000700380000
000700380000
000700380000
000700380000
000700380000
000700380000
000700380000
000700380000
000700380000
000700380000
000700380000
000700380000
000700380000
000700380000
000000000000
000000000000
ENDCHAR

STARTCHAR cns3_2139
ENCODING 8505
SWIDTH 960 0
DWIDTH 42 0
BBX 42 42 0 -6
BITMAP
000000000000
000000000000
000000000000
000000000000
000000000000
000000000000
000000000000
000000000000
0000C0000000
0001F0000000
0001F0000000
0003E0000000
000780030000
000FFFFF8000
000F00078000
001F800F0000
003B801E0000
0071C03C0000
00E0C0780000
01C0E0F00000
070071E00000
0E003FC00000
00000F800000
00001F800000
00007FF00000
0001F0FC0000
0007C03FF000
003F000FFF00
01FC0003FE00
07C000003C00
0E0000000000
000000000000
000000000000
000000000000
000000000000
000000000000
000000000000
000000000000
000000000000
000000000000
000000000000
000000000000
ENDCHAR

STARTCHAR cns3_213A
ENCODING 8506
SWIDTH 960 0
DWIDTH 42 0
BBX 42 42 0 -6
BITMAP
000000000000
000000000000
000000000000
000060000000
0000F0000000
0011F0000000
0019E0000000
000F80030000
0007FFFF8000
000F00078000
001F000F0000
003B801E0000
0071803C0000
00E1C0780000
03C0E0F00000
070071E00000
0C003FC00000
00001F800000
00001F800000
00007FF00000
0000F0FC0000
0007C03FF800
001F000FFF80
007C0003FE00
03E000003C00
070000000000
000000000000
000000000000
000000000000
000000000000
000000000000
000000000000
000000000000
000000000000
000000000000
000000000000
000000000000
000000000000
000000000000
000000000000
000000000000
000000000000
ENDCHAR

STARTCHAR cns3_213B
ENCODING 8507
SWIDTH 960 0
DWIDTH 42 0
BBX 42 42 0 -6
BITMAP
000000000000
000000000000
000000000000
000000000000
000000000000
000000000000
000000000000
000000000000
000006000000
00000F000000
00000E000000
00000E000000
00000E000200
03000E000700
07FFFFFFFF80
070000000F80
0F0000001F00
1E0000001E00
3E0000001800
3C0000000000
180000000000
000000000000
000000000000
000000000000
000000000000
000000000000
000000000000
000000000000
000000000000
000000000000
000000000000
000000000000
000000000000
000000000000
000000000000
000000000000
000000000000
000000000000
000000000000
000000000000
000000000000
000000000000
ENDCHAR

STARTCHAR cns3_213C
ENCODING 8508
SWIDTH 960 0
DWIDTH 42 0
BBX 42 42 0 -6
BITMAP
000000000000
000000000000
000000000000
000000000000
000301818000
000783C3C000
000F07878000
000E07078000
000E0F078000
000E0E070000
001E0E0F0000
001C1C0E0000
003C1C0E0000
00381C1C0000
0038381C0000
0038381C0000
007038380000
007070380000
00E070700000
01E0E0700000
01E0E0F00000
00C0E0E00000
00E060600000
00F070700000
007070380000
007078380000
0078381C0000
0038381C0000
00383C1E0000
003C1C0E0000
001C1E0F0000
001C0E078000
000E0F078000
000E0703C000
000E0783C000
00070781C000
000703C1E000
000301C1E000
000000C06000
000000000000
000000000000
000000000000
ENDCHAR

STARTCHAR cns3_213D
ENCODING 8509
SWIDTH 960 0
DWIDTH 42 0
BBX 42 42 0 -6
BITMAP
000000000000
000000000000
000030000000
0000F8000000
0000F0000000
0000E0000000
0001E0000000
0001C0000000
0003C0000000
000380000000
000780000000
000700000000
000E00000000
030E00300000
03DC00F80000
00F800F00000
007801E00000
003C01E00000
001E03C00000
000703C00000
000787800000
0003C7800000
0003CF000000
0001CE000000
00001E000000
00003C000000
000038000000
000070000000
0000F0000000
0000E0030000
0001C001C000
00038001C000
00038000E000
00070000F000
000E00007000
003C07FFF800
03FFFFF83800
07FFFE003C00
078000003C00
030000001C00
000000000000
000000000000
ENDCHAR

STARTCHAR cns3_213E
ENCODING 8510
SWIDTH 960 0
DWIDTH 42 0
BBX 42 42 0 -6
BITMAP
000000000000
000000000000
000003800000
000007C00000
000007800000
000007000200
030007000700
07FFFFFFFF80
070000000000
070000000000
070000000000
070000000000
070000000000
070000000000
070000000000
070000000000
070000000000
070000000000
070000000000
070000000000
070000000000
070000000000
070000000000
070000000000
078000000000
078000000000
078000000000
070000000000
070000000000
070000000000
0F0000000000
0E0000000000
0E0000000000
0E0000000000
1C0000000000
1C0000000000
180000000000
180000000000
300000000000
300000000000
000000000000
000000000000
ENDCHAR

STARTCHAR cns3_213F
ENCODING 8511
SWIDTH 960 0
DWIDTH 42 0
BBX 42 42 0 -6
BITMAP
000000000000
000000000000
000000000000
001800000000
7FFC00000000
003800000000
003000000000
003000000000
007000000000
006000000000
00C000000000
01C000000000
018000000000
018000000000
038000000000
030300000000
07FF80000000
0E0700000000
0F0700000000
060F00000000
000E00000000
060E00000000
070E00000000
0F9C00000000
0F9C00000000
1D9C00000000
1DD800000000
1CF800000000
18F800000000
007000000000
007000000000
00F800000000
01FC00000000
03DE00000000
078F80000000
0F03E0000000
0E01FFFFFF80
3C001FFFFF00
700001FFFC00
000000000000
000000000000
000000000000
ENDCHAR

STARTCHAR cns3_2140
ENCODING 8512
SWIDTH 960 0
DWIDTH 42 0
BBX 42 42 0 -6
BITMAP
000000000000
000000000000
000000000000
000000000000
000000000000
000000000000
000000000000
000000000000
00000000C000
001FFFFFE000
00000001C000
00000001C000
00000001C000
00000001C000
00000001C000
00000001C000
00000001C000
00000001C000
007FFFFFC000
00000001C000
00000001C000
00000001C000
00000001C000
00000001C000
00000001C000
00000001C000
00000001C000
00000001C200
00000001C700
3FFFFFFFFF80
000000000000
000000000000
000000000000
000000000000
000000000000
000000000000
000000000000
000000000000
000000000000
000000000000
000000000000
000000000000
ENDCHAR

STARTCHAR cns3_2141
ENCODING 8513
SWIDTH 960 0
DWIDTH 42 0
BBX 42 42 0 -6
BITMAP
000000000000
000000000000
000000000000
000000000000
000060000000
0000F0000000
0000F0000000
0000C0000000
0001C0000000
0001C0000000
000380000000
000380000000
000380000000
000700030000
0007FFFF8000
000700038000
000E00070000
000E00060000
000E00060000
000C00060000
001C000E0000
001C000C0000
0018000C0000
0038000C0000
0038001C0000
0030003C0000
007FFFF80000
007000180000
006000180000
00E000380000
00C000300000
000000300000
000000300000
000000300000
000000700000
000000600200
000000600700
7FFFFFFFFF80
000000000000
000000000000
000000000000
000000000000
ENDCHAR

STARTCHAR cns3_2142
ENCODING 8514
SWIDTH 960 0
DWIDTH 42 0
BBX 42 42 0 -6
BITMAP
000000000000
000000000000
000000000000
0000003C0000
0000007E0000
000000FE0000
000001F00000
000003C00000
000007800000
00001F000000
00003C000000
0000F8000000
0003C0000000
001F00070000
0038000F8000
0000001F8000
0000003E0000
000000780000
000000F00000
000003E00000
000007800000
00001E000000
00007C000000
0001F0000000
0007C0000000
001E0000E000
00F80003F000
00000007F000
0000000FC000
0000003F0000
0000007E0000
000000F80000
000003E00000
000007C00000
00001F000000
0000FC000000
0003E0000000
001F80000000
00F800000000
038000000000
000000000000
000000000000
ENDCHAR

STARTCHAR cns3_2143
ENCODING 8515
SWIDTH 960 0
DWIDTH 42 0
BBX 42 42 0 -6
BITMAP
000000000000
000000200000
000300700000
0003FFF80000
000380700000
000380700000
000380F00000
000380E00000
000380E00000
000381C00000
000381C00000
000381C00000
000383800000
000383800000
000387000000
000387000000
000383800000
000383800000
000383C00000
000380E00000
000380E00000
000380600000
000380700000
000380700000
000380700000
000380700000
000380780000
000380780000
000380F00000
0003BFF00000
000387E00000
000381C00000
000380000000
000380000000
000380000000
000380000000
000380000000
000380000000
000380000000
000380000000
000380000000
000000000000
ENDCHAR

STARTCHAR cns3_2144
ENCODING 8516
SWIDTH 960 0
DWIDTH 42 0
BBX 42 42 0 -6
BITMAP
000000000000
000000000000
000001800000
000003C00000
000003870000
000003838000
00000381C000
00000381E000
00000380E000
000003806000
000003800200
000003800700
7FFFFFFFFF80
000003C00000
000003C00000
000C03C00000
001E03C00000
001E03C00000
003607800000
006307800000
006307800000
00C387000000
01E18F000000
01E1CF000000
00C0CE000000
0000EE000000
00007E000000
00007C000000
00003C000000
00007E000000
0000FF800000
0001E3C00000
0003C1F00000
0007807C0000
001E001F0000
003C000FE000
00F00003F800
03E00001FF00
0F8000003F80
3C0000000E00
000000000000
000000000000
ENDCHAR

STARTCHAR cns3_2145
ENCODING 8517
SWIDTH 960 0
DWIDTH 42 0
BBX 42 42 0 -6
BITMAP
000000000000
000000000000
000300100000
000780380000
0007007C0000
000F00780000
000E00700000
000E00700000
001C00700000
001C00700000
003800700000
003800700000
003000700000
047060700000
06E07C700000
07E078700000
03C0F0700000
01C0E0700000
01E0E0700000
00E1E0700000
0071C0700000
007BC0700000
003B80700000
003380700000
000700700000
000700700000
000E00700000
000E00700000
001C00700000
001C30700000
003818700200
00301C700200
00701C700200
00E00E700200
00C00E700300
0383FF700700
0FFFC7780700
1FFE07F80780
1C0007FFFF80
1800033FFE00
000000000000
000000000000
ENDCHAR

STARTCHAR cns3_2146
ENCODING 8518
SWIDTH 960 0
DWIDTH 42 0
BBX 42 42 0 -6
BITMAP
000000000000
000000000000
000000000000
001C00E00000
003E01F00000
003C01E00000
003801C00000
003801C00000
003801C00000
003839C00000
0E387DC00000
1F3879C00000
1E3871C00000
1C3871C00000
1C3871C00000
1C3871C00000
1C3871C00000
1C3871C00000
1C3871C00000
1C3871C00000
1C3871C00000
1C3871C00000
1C3871C00000
1C3871C00000
1C3871C00000
1C3871C00000
1C3871C00000
1C3871C00000
1C3871C00000
1C3871C00000
1C3871C00200
1C3871C00200
1FFFF1C00200
1C0071C00200
180031C00300
000001C00700
000001C00700
000001E00F80
000001FFFF80
000000FFFE00
000000000000
000000000000
ENDCHAR

STARTCHAR cns3_2147
ENCODING 8519
SWIDTH 960 0
DWIDTH 42 0
BBX 42 42 0 -6
BITMAP
000000000000
00000C000000
00000E000000
00000F000000
00000E000000
00000E000000
00000E000000
00000E000200
00000E000700
7FFFFFFFFF80
0001E0700000
0001C0700000
0001C0700000
0001C0700000
0001C0700000
0001C0700000
0001C0700000
0001C0700000
0001C0700000
0001C0700000
0001C0700000
0001C0700000
0001C0700000
0001C0700000
0003C0700000
000380700000
000380700000
000380700000
000700700000
000700700000
000E00700000
000C00700000
001C00700000
003800700000
007800700000
007000700000
00E000700000
01C000700000
070000700000
0E0000700000
000000700000
000000000000
ENDCHAR

STARTCHAR cns3_2148
ENCODING 8520
SWIDTH 960 0
DWIDTH 42 0
BBX 42 42 0 -6
BITMAP
000000000000
000018000000
00001C000000
00001E000000
00001C000000
00001C000000
00001C000000
00001C000000
00001C000800
0E001C001C00
0FFFFFFFFE00
0E001E001C00
0E001E001C00
0E003F001C00
0E003F001C00
0E003B001C00
0E007B801C00
0E0071801C00
0E0071C01C00
0E00E0E01C00
0E01E0E01C00
0E01C0701C00
0E0380781C00
0E07803C1C00
0E0F001E1C00
0E0E000F9C00
0E1C0007DC00
0E3800031C00
0E7000001C00
0E0000001C00
0E0000001C00
0E0000001C00
0E0000001C00
0E0000001C00
0E0000001C00
0E0000001C00
0E0000003C00
0E00003FFC00
0E000001FC00
0E0000003800
0E0000000000
000000000000
ENDCHAR

STARTCHAR cns3_2149
ENCODING 8521
SWIDTH 960 0
DWIDTH 42 0
BBX 42 42 0 -6
BITMAP
000000000000
000000000000
000C00000000
001E00000000
001C00001000
003C00003800
003CFFFFFC00
007818003800
00780C003800
00F00C003800
00F00C007800
01E00E007800
01E00E007000
03F00E00F000
03F80600F000
07F00700E000
06E00701E000
0EE00701C000
1CE00301C000
18E00383C000
30E003838000
00E003C38000
00E001C70000
00E001C70000
00E000EE0000
00E000FE0000
00E0007C0000
00E000780000
00E000380000
00E0007C0000
00E000FE0000
00E001CF0000
00E003878000
00E00F03C000
00E01E01F000
00E03800FC00
00E0F0007F00
00E1C0003F80
00E700000E00
00FC00000000
00E000000000
000000000000
ENDCHAR

STARTCHAR cns3_214A
ENCODING 8522
SWIDTH 960 0
DWIDTH 42 0
BBX 42 42 0 -6
BITMAP
000000000000
000000000000
000C00000000
001E00000000
001C00300000
003C00780000
003C00700000
007800F00000
007800F00000
00F000E00000
00F000E00000
01E000E00000
01E000E00000
03F001E00000
03F801C00000
07F001C00000
06E001C00000
0CE001800000
1CE003800000
18E003800000
30E003800000
00E003000000
00E00700C000
00E00700E000
00E007006000
00E00E007000
00E00E003000
00E00E003800
00E00C003800
00E01C001C00
00E01C001E00
00E018000E00
00E018000F00
00E038000700
00E03003FF00
00E033FFC780
00E7FFFC0780
00E7FC000780
00E3E0000380
00E380000180
00E000000000
000000000000
ENDCHAR

STARTCHAR cns3_214B
ENCODING 8523
SWIDTH 960 0
DWIDTH 42 0
BBX 42 42 0 -6
BITMAP
000000000000
000000000000
000C00180000
000E001C0000
000F001E0000
000E001C0000
000C00180000
000C00180000
000C00180000
000C00180000
000C00180000
000C00180000
000E001C0000
000E001C0000
001E001C0000
001E003C0000
001E003E0000
001F003E0000
001F003E0000
001F003E0000
001B00370000
003980370000
003980770000
003980738000
0031C0638000
0070C0638000
0070E0E1C000
00F0E0C1C000
00E060C0E000
00E071C0F000
01E031C0F000
03C039807800
03801F803C00
07801F803E00
07001F001F00
0E000F801F00
0C000FC00F80
18001F800780
38001B800300
000030000000
000000000000
000000000000
ENDCHAR

STARTCHAR cns3_214C
ENCODING 8524
SWIDTH 960 0
DWIDTH 42 0
BBX 42 42 0 -6
BITMAP
000000000000
000000000000
00000C000000
00001E000000
00001C000000
00001C000000
00001C000000
00001E000000
00001E000000
00003E000000
00003F000000
00007F800000
000073C00000
0000E1E00000
0001C0F00000
0003807C0000
000F003E0000
001E000F8000
003C0007C000
00F00C01F800
03C01E007F80
1F001C001F00
38001C000C00
00001C000000
00001E000000
00001E000000
00001E000000
00003F000000
00003F000000
00007B800000
0000F3C00000
0001E1E00000
0003C0F00000
0007807C0000
001F001F0000
003E000FC000
00F80003F800
03E00000FF80
0F8000003F00
3C0000000E00
000000000000
000000000000
ENDCHAR

STARTCHAR cns3_214D
ENCODING 8525
SWIDTH 960 0
DWIDTH 42 0
BBX 42 42 0 -6
BITMAP
000000000000
018000003000
01FFFFFFF800
01C000007C00
01C000007800
01C000007000
01C000007000
01C000007000
01C000007000
01C000007200
01C000007700
3FFFFFFFFF80
01C000007000
01C000007000
01C000007000
01C000007000
01C000007000
01C000007000
01C000007000
01C000007100
01C000007380
7FFFFFFFFF80
01C000007000
01C000007000
01C000007000
01C000007000
01C000007000
01C000007000
01C000007000
01C000007000
01C000007000
01C000007000
01C000007000
01C000007000
01C000007000
01C00000F000
01C0007FF000
01C00007F000
01C00000E000
01C000000000
01C000000000
000000000000
ENDCHAR

STARTCHAR cns3_214E
ENCODING 8526
SWIDTH 960 0
DWIDTH 42 0
BBX 42 42 0 -6
BITMAP
000000000000
000000000000
000000004000
01800000E000
01FFFFFFF000
01C01C00F800
01C01C00F000
01C01C00E000
01C01C00E000
01C01C00E000
01C01C00E000
01C01C00E000
01C01C00E000
01C01C00E000
01C01C00E000
01C01C00E000
01C01C00E000
01C01C00E000
01FFFFFFE000
01C00000E000
01C00000E000
01C00000E000
01C00000E000
01C00000E000
01C00000E000
01C00000E000
01C00000E000
01C00000E000
01C00000E000
01C00000E000
01C00000E000
01C00000E000
01C00000E000
01C00000E000
01C00000E000
01C00000E000
01C0007FE000
01C0000FE000
01C000038000
01C000000000
01C000000000
000000000000
ENDCHAR

STARTCHAR cns3_214F
ENCODING 8527
SWIDTH 960 0
DWIDTH 42 0
BBX 42 42 0 -6
BITMAP
000000000000
000000000000
000000000000
000000000200
060000000700
0FFFFFFFFF80
0E0000001E00
1E0000003C00
1C0000007000
3C0000006000
300000000000
000000000000
000300300000
000780780000
000700700000
000700700000
000700700000
000700700000
000700700000
000700700000
000700700000
000700700000
000700700000
000700700000
000700700000
000F00700000
000F00700000
000E00700000
001E00700100
001C00700100
001C00700100
003800700100
007800700300
007000700300
00E000700380
01C000780780
0780007FFF00
0F00003FFE00
3C0000000000
300000000000
000000000000
000000000000
ENDCHAR

STARTCHAR cns3_2150
ENCODING 8528
SWIDTH 960 0
DWIDTH 42 0
BBX 42 42 0 -6
BITMAP
000000000000
000000000000
000000000000
000000000200
180000000700
1C0FFFFFFF80
0F00000E0000
0700000E0000
0780000E0000
0380000E0000
0180000E0000
0018000E0000
0018000E0000
0030000E0000
0030000E0000
0070000E0000
0060000E0000
00E0000E0000
00C0000E0000
01C0000E0000
01C0000E0000
0180000E0000
0380000E0000
0380000E0000
0700000E0000
0F00000E0000
7E00000E0000
1E00000E0000
0E00000E0000
0E00000E0000
0E00000E0000
0F80000E0000
0F00000E0000
0F00000E0000
0F00000E0000
0700001E0000
06000FFE0000
000001FC0000
000000380000
000000000000
000000000000
000000000000
ENDCHAR

STARTCHAR cns3_2151
ENCODING 8529
SWIDTH 960 0
DWIDTH 42 0
BBX 42 42 0 -6
BITMAP
000000000000
000000000000
018000003000
01FFFFFFF800
01C000007000
01C000007000
01C000007000
01C000087000
01C0001C7000
01C7FFFE7000
01C0C01C7000
01C0C01C7000
01C0C01C7000
01C0C0387000
01C0E0387000
01C060387000
01C060707000
01C060707000
01C060E07000
01C070E07000
01C030E07000
01C039C07000
03C019C07000
03C01F807000
03C00F807000
03C00F007800
03800F007800
07801F803800
07801F803900
070039C03D00
0F0079E03D00
0F00F0F81D00
0E01E07C1F00
0E03803F1F00
1E07000F8F80
1C0E00030F80
1C1800000780
380000000700
300000000300
000000000000
000000000000
000000000000
ENDCHAR

STARTCHAR cns3_2152
ENCODING 8530
SWIDTH 960 0
DWIDTH 42 0
BBX 42 42 0 -6
BITMAP
000000000000
000000000000
000000000000
000000020000
000000070000
01FFFFFF8000
0000700F0000
0000700F0000
0000700F0000
0000700F0000
0000700F0000
0000700F0000
0000700E0000
0000700E0000
0000700E0000
00E0700E0000
0038600E0000
001EE00EE000
000FE00E7000
0003E00E3000
0001E00E3800
0000E00E1C00
0001C00E1E00
0001C00E0E00
0003C00E0E00
0003801E0F00
0003801E0700
0007001C0000
0007001C0000
0006001C0000
000E001C0000
001C003C0000
001C00380000
003800380000
007000380000
00E000780000
01C03CF00000
07800FE00000
0E0007800000
000003000000
000000000000
000000000000
ENDCHAR

STARTCHAR cns3_2153
ENCODING 8531
SWIDTH 960 0
DWIDTH 42 0
BBX 42 42 0 -6
BITMAP
000000000000
000030000000
000038000000
00003C000000
000038000000
000038000000
000038000000
000038000000
000038000000
000038000000
000038010000
000038038000
007FFFFFC000
00003C038000
00003C038000
000038038000
000078038000
000078038000
000078038000
00C07803E000
01C078076000
038070077000
038070073800
0700F0073C00
0F00E0071E00
0F00E0071E00
1E00E0070F00
1E01E0070F00
1C01C0070700
0001C0070300
000380070000
0007800F0000
0007000E0000
000E000E0000
001E000E0000
003C001C0000
0078003C0000
00F00FF80000
01E001F00000
03C000C00000
030000000000
000000000000
ENDCHAR

STARTCHAR cns3_2154
ENCODING 8532
SWIDTH 960 0
DWIDTH 42 0
BBX 42 42 0 -6
BITMAP
000000000000
000000300000
000000380000
0000003C0000
000180380000
0001C0380000
07FFE0380000
0001C0380000
0001C0380000
0001C0380800
0001C0381C00
0001CFFFFE00
0001C03C1C00
0003C03C1C00
0603803C1C00
0703803C1C00
038380381C00
018380381C00
01C300781C00
00E700781C00
00F700781C00
007700781C00
003F00701C00
001E00701C00
001E00701C00
000E00703C00
001F00E03C00
001F00E03C00
003B80E03C00
003B81C03C00
0073C1C03C00
0071E3803800
00E1E7803800
00C1E7003800
01C0EE003000
0380FC007000
07003C00F000
0600387FE000
0C00F00FC000
0001C0030000
000000000000
000000000000
ENDCHAR

STARTCHAR cns3_2155
ENCODING 8533
SWIDTH 960 0
DWIDTH 42 0
BBX 42 42 0 -6
BITMAP
000000000000
000000000000
000600000000
000F00000000
000E00000000
001E00000000
001E00000000
001C00000200
003C00000700
003FFFFFFF80
007000000700
00F030000700
00E078000700
01C070000700
03C060000700
038060000700
070060000700
0E0070000700
1C00F0000F00
3800F8000F00
3000F8000F00
0000FC000F00
0001EC000F00
0001CE000F00
0001CF000F00
000387800F00
000383C00F00
000701E00F00
000E01F00F00
001C00F80F00
0038007E1E00
0070001F9E00
01C0000F9E00
030000001C00
000000001C00
000000001C00
000000003800
000000F87800
0000001FF000
00000007E000
000000018000
000000000000
ENDCHAR

STARTCHAR cns3_2156
ENCODING 8534
SWIDTH 960 0
DWIDTH 42 0
BBX 42 42 0 -6
BITMAP
000000000000
000800000000
001C00000000
003E00000000
003C00000000
003800000000
003800000000
007800000400
007800000E00
007FFFFFFF00
00F000001E00
00E000001E00
01E000001E00
01C000001E00
03C000001E00
038000001E00
070F80001E00
0703FE001C00
0E007F801C00
0C000FC01C00
1C0001C01C00
180000C01C00
000000001C00
000000001C00
000000001C00
000000303C00
000000F03C00
000007E03C00
00003F803800
0003FC003800
003FC0003800
00FE00007800
00F800007800
007000007800
000000007000
000000007000
000003C0E000
000000FFE000
0000003FC000
000000070000
000000000000
000000000000
ENDCHAR

STARTCHAR cns3_2157
ENCODING 8535
SWIDTH 960 0
DWIDTH 42 0
BBX 42 42 0 -6
BITMAP
000000000000
000000000000
000000000000
000000000000
000000000200
000000000700
7FFFFFFFFF80
070000000000
070000000000
070000030000
070000078000
0700000F0000
0700000F0000
0703801E0000
0701C01E0000
0700E03C0000
070070380000
07003C700000
07001E700000
07000FE00000
070007E00000
070003C00000
070003E00000
070007F00000
07000F780000
07001E3C0000
07003C1E0000
0700780F0000
0700F0078000
0701E003C000
0703C003E000
07070001E000
070E00000000
071C00000000
071800000000
078000000000
03FFFFFFFF00
01FFFFFFFF00
000000000000
000000000000
000000000000
000000000000
ENDCHAR

STARTCHAR cns3_2158
ENCODING 8536
SWIDTH 960 0
DWIDTH 42 0
BBX 42 42 0 -6
BITMAP
000000000000
001800000000
003C001C0000
0038003E0000
0038003C0000
003800380000
003800380000
003800380000
003800380000
003800380000
003800380800
003840381C00
0038E7FFFE00
1FFFF03C1C00
0038003C1C00
0038003C1C00
0038003C1C00
0038003C1C00
003800381C00
003800781C00
003800781C00
003800781C00
003800701C00
003800701C00
003800701C00
003800701C00
003800F01C00
003800E01C00
003800E01C00
003801C03C00
003801C03C00
003803C03800
003803803800
003807003800
00380F007800
00380E007000
00381C00F000
0038387FE000
0038700FC000
0038C0038000
003980000000
000000000000
ENDCHAR

STARTCHAR cns3_2159
ENCODING 8537
SWIDTH 960 0
DWIDTH 42 0
BBX 42 42 0 -6
BITMAP
000000000000
000000000000
0001C0000000
0001E0000000
0001C0000000
0001C0040000
0001C00E0000
0FFFFFFF0000
0001C00E0000
0001C00E0000
0001C00E0000
0003800E0000
0003800E0000
0003000E0100
0003000E0100
0007000E0100
000E000E0100
001E000E0300
003C0E0E0300
00780F0F0380
00E00E0FFF80
03C00E07FF00
07000E000000
3E000E000000
30000E000000
00000E000200
00000E000700
7FFFFFFFFF80
00000E000000
00000E000000
00000E000000
00000E000000
00000E000000
00000E000000
00000E000000
00000E000000
00000E000000
00000E000000
00000E000000
00000E000000
00000E000000
000000000000
ENDCHAR

STARTCHAR cns3_215A
ENCODING 8538
SWIDTH 960 0
DWIDTH 42 0
BBX 42 42 0 -6
BITMAP
000000000000
0001C0E00000
0001E0F00000
0001C0E00000
0001C0E00000
0001C0E00000
0001C0E00000
0001C0E00000
0001C0E00000
0001C0E00000
0001C0E00000
0001C0E00000
0001C0E00000
0001C0E00000
0001C0E00000
0001C0E00000
0001C0E00000
0001C0E00800
0001C0E01C00
07FFC0FFFE00
0001C0E00000
0001C0E00000
0001C0E00000
0001C0E00000
0001C0E00000
0001C0E00000
0001C0E00000
0001C0E00000
0001C0E00000
0001C0E00000
0001C0E00000
0001C0E00000
0001C0E00000
0001C0E00000
0001C0E00000
0001C0E00000
0001C0E00000
0001C0E00000
0001C0E00000
0001C0E00000
0001C0E00000
000000000000
ENDCHAR

STARTCHAR cns3_215B
ENCODING 8539
SWIDTH 960 0
DWIDTH 42 0
BBX 42 42 0 -6
BITMAP
000000000000
000000000000
000000000200
030000000700
03FFFFFFFF80
038000000000
038003800000
038003C00000
038003800000
038003800000
038003800000
038003800000
038003801000
038003803800
0387FFFFFC00
038003C03800
038003C03800
038003803800
038007803800
038007803800
038007803800
038007007800
038007007000
038007007000
03800E007000
03800E007000
03800E007000
03801C007000
03801C007000
038038007000
07003800F000
07007000F000
0700F000E000
0601E000E000
0E03C001C000
0E0780E3C000
0C0F003F8000
1C1E000E0000
183800000000
000000000000
000000000000
000000000000
ENDCHAR

STARTCHAR cns3_215C
ENCODING 8540
SWIDTH 960 0
DWIDTH 42 0
BBX 42 42 0 -6
BITMAP
000000000000
000000000000
000070000000
000078000000
000070000000
000070000000
000070000000
000070000000
000070000400
0000E0000E00
07FFFFFFFF00
0000E0000000
0000E0000000
0000E0000000
0001C0000000
0001C0000000
0001C0600000
000380F00000
000380E00000
000381E00000
000701C00000
000701C00000
000E03C00000
000E03800000
001C07800000
001C07000000
003807000000
00300E000000
00700E000000
00E01C030000
00E01C038000
01C03801C000
03807800E000
070070007000
0E00E0007800
1800E03FFC00
0000FFFE3C00
001FFFF03E00
001FF0001E00
000000001C00
000000000000
000000000000
ENDCHAR

STARTCHAR cns3_215D
ENCODING 8541
SWIDTH 960 0
DWIDTH 42 0
BBX 42 42 0 -6
BITMAP
000000000000
000000000000
000018000000
00003C000000
000078000000
000078000000
000070000000
0000F0000000
0000E0000000
0001C0000000
0001C0070000
000380038000
00038001C000
00070000E000
000700007800
000E00003C00
000E3FFFFE00
0FFFFFF81E00
0FFF80001E00
060000000E00
000000000600
000000000000
000018000000
00003C000000
000078000000
000070000000
000070000000
0000E0000000
0000E0000000
0001C0060000
0001C0078000
00038003C000
00038001E000
00070000F000
000700003800
000E07FFFC00
1FFFFFFF1E00
1FFFFE001E00
0C0000000E00
000000000E00
000000000000
000000000000
ENDCHAR

STARTCHAR cns3_215E
ENCODING 8542
SWIDTH 960 0
DWIDTH 42 0
BBX 42 42 0 -6
BITMAP
000000000000
000000000000
000000000000
000080001000
0001C0003800
0FFFFFFFFC00
0001C3803800
0003C3803800
0003C1803800
000381803800
000381C07800
000381C07000
000381C07000
0C0381C07000
060781C0E000
070700C0E000
038700C0E000
018700E1C000
01C700E1C000
00EE00E1C000
00FE00738000
007E00738000
003E00738000
003C003F0000
001E003F0000
001E003E0000
003F001E0000
003F001C0000
0077803E0000
0073803F0000
00E3C0778000
00E3C0E3C000
01C1E1C1C000
0381E381F000
0301E700F800
0700CE007E00
0E001C003E00
1C0070001C00
0000C0000000
000000000000
000000000000
000000000000
ENDCHAR

STARTCHAR cns3_215F
ENCODING 8543
SWIDTH 960 0
DWIDTH 42 0
BBX 42 42 0 -6
BITMAP
000000000000
000000020000
000000070000
00FFFFFF8000
0006001F0000
0007001F0000
0003003C0000
000380780000
0001C0F00000
0001E1E00000
0000F3C00000
00007F800000
00003F000000
00003F800000
00007FE00000
0001E1F80000
0007C07F0000
003E001FFE00
00F80007FE00
07C00000FC00
1C0000020000
000000070000
01FFFFFF8000
0006001F0000
0007001F0000
0003003C0000
000380780000
0001C0700000
0001E0F00000
0000F1E00000
00007B800000
00003F000000
00001F800000
00007FE00000
0001F1F80000
0007C07E0000
001F003FFC00
00F8000FFC00
07E00000F800
1E0000000000
000000000000
000000000000
ENDCHAR

STARTCHAR cns3_2160
ENCODING 8544
SWIDTH 960 0
DWIDTH 42 0
BBX 42 42 0 -6
BITMAP
000000000000
000000000000
000380000000
0003C0000000
000380000000
000380000000
000380000800
038380001C00
03C38FFFFE00
038383C01C00
038381C01C00
038381C03C00
038381C03C00
038381C03800
038380E03800
038380E07800
038380E07000
038380E07000
03838060F000
03838070E000
03838070E000
03838071C000
03838039C000
03838039C000
0383803B8000
0387801F8000
039F801F0000
03FB801F0000
07C3800E0000
0E03801F0000
1C03801F8000
1803803BC000
00038071C000
000380E1E000
000381C0F800
000383807C00
000387003F80
00039E001F80
0003B8000700
0003F0000000
000380000000
000000000000
ENDCHAR

STARTCHAR cns3_2161
ENCODING 8545
SWIDTH 960 0
DWIDTH 42 0
BBX 42 42 0 -6
BITMAP
000000000000
000000000000
000000000000
000000000000
00000E000000
00000F000000
00000E000000
00000E000000
00000E000000
00000E000000
00000E000000
00000E000000
00000E000000
00000E000000
00000E000000
00000E000000
00000E000000
00000E002000
00000E007000
00FFFFFFF800
00000E000000
00000E000000
00000E000000
00000E000000
00000E180000
00000E1C0000
00000E0E0000
00000E070000
00000E03C000
00000E01E000
00000E01F000
00000E00F000
00000E007000
00000E000000
00000E000000
00000E000200
00000E000700
7FFFFFFFFF80
000000000000
000000000000
000000000000
000000000000
ENDCHAR

STARTCHAR cns3_2162
ENCODING 8546
SWIDTH 960 0
DWIDTH 42 0
BBX 42 42 0 -6
BITMAP
000000000000
000000000000
000000000000
00001C000000
00001E000000
00001C000000
00001C000000
00001C000000
00001C000000
0E001C003800
0F001C003C00
0E001C003800
0E001C003800
0E001C003800
0E001C003800
0E001C003800
0E001C003800
0E001C003800
0E001C003800
0E001C003800
0E001C003800
0E001C003800
0E001C003800
0FFFFFFFF800
0E001C003800
0E001C003800
00001C000000
00001C000000
00001C000000
00001C000000
00001C000000
00001C000000
00001C000000
00001C000000
00001C000000
00001C000000
00001C000200
00001C000700
7FFFFFFFFF80
000000000000
000000000000
000000000000
ENDCHAR

STARTCHAR cns3_2163
ENCODING 8547
SWIDTH 960 0
DWIDTH 42 0
BBX 42 42 0 -6
BITMAP
000000000000
000000000000
000000000000
000000000200
000000000700
7FFFFFFFFF80
00000E000000
00000E000000
00000E000000
00000E000000
00000E000000
00000E001000
01800E003800
01FFFFFFFC00
01C00E003800
01C00E003800
01C00E003800
01C00E003800
01C00E003800
01C00E003800
01C00E003800
01C00E003800
01C00E003800
01C00E003800
01C00E003800
01C00E003800
01C00E003800
01C00E003800
01C00E007800
01C00E1FF800
01C00E03F000
01C00E00C000
01C00E000000
00000E000000
00000E000000
00000E000000
00000E000000
00000E000000
00000F000000
00000E000000
000000000000
000000000000
ENDCHAR

STARTCHAR cns3_2164
ENCODING 8548
SWIDTH 960 0
DWIDTH 42 0
BBX 42 42 0 -6
BITMAP
000000000000
000000000000
000000E00000
000000F38000
000000E1E000
000000E0F000
000000E07800
000000E03800
000000E00000
000000E00200
000000E00700
7FFFFFFFFF80
000000F00000
000000F00000
000000F00000
000000F00000
000000700000
000000700000
000000700000
000000780000
000000780000
000000780000
000000380000
0000083C0000
00001C3C0000
0FFFFE1E0000
0000001E0000
0000000E0100
0000000F0100
000000070100
000000078100
000000038100
00000003C300
00000001E300
00000000F700
00000000FF00
000000007F80
000000003F80
000000001F00
000000000600
000000000000
000000000000
ENDCHAR

STARTCHAR cns3_2165
ENCODING 8549
SWIDTH 960 0
DWIDTH 42 0
BBX 42 42 0 -6
BITMAP
000000000000
000000000000
000380000000
0001F0000000
00007E000000
00001F800000
000007C00000
000001C00000
00C000001C00
00FFFFFFFE00
00E000001C00
00E000001C00
00E000001C00
00E000001C00
00E000001C00
00E000001C00
00E000001C00
00E000001C00
00E000001C00
00E000001C00
00FFFFFFFC00
00F000001C00
00F000001C00
00F000000000
00E000000000
01E000000000
01E000000000
01E000000000
01C000000000
03C000000000
03C000000000
038000000000
038000000000
078000000000
070000000000
070000000000
0E0000000000
0E0000000000
1C0000000000
180000000000
000000000000
000000000000
ENDCHAR

STARTCHAR cns3_2166
ENCODING 8550
SWIDTH 960 0
DWIDTH 42 0
BBX 42 42 0 -6
BITMAP
000000000000
000000000000
000000001000
000000003800
007FFFFFFC00
000000000000
000000000000
000000000000
000000000000
000000000800
00C000001C00
00FFFFFFFE00
00E000001C00
00E000001C00
00E000001C00
00E000001C00
00E000001C00
00E000001C00
00E000001C00
00E000001C00
00E000001C00
00FFFFFFFC00
00F000001C00
00F000001C00
00F000000000
01E000000000
01E000000000
01E000000000
03E000000000
03C000000000
03C000000000
038000000000
038000000000
078000000000
070000000000
070000000000
0E0000000000
0E0000000000
1C0000000000
180000000000
000000000000
000000000000
ENDCHAR

STARTCHAR cns3_2167
ENCODING 8551
SWIDTH 960 0
DWIDTH 42 0
BBX 42 42 0 -6
BITMAP
000000000000
000000000000
000038000000
00003C000000
000038000000
000038000000
000038080000
0000381C0000
00003FFE0000
000038000000
000038000000
000038000000
000038008000
00003803C000
07FFFFFFE000
000C0007C000
000E000F8000
000E000F0000
0006001F0000
0007001E0000
0007003E0000
0003803C0000
000380780000
0001C0F80000
0000E0F00000
0000E1E00000
000071E00000
00003BC00000
00001F800000
00001F000000
00001F000000
00007FC00000
0000F9E00000
0003E0F80000
0007C07C0000
001F003F8000
007C000FC000
01F00007FE00
07800001FE00
0E0000007800
000000000000
000000000000
ENDCHAR

STARTCHAR cns3_2168
ENCODING 8552
SWIDTH 960 0
DWIDTH 42 0
BBX 42 42 0 -6
BITMAP
000000000000
000000000000
000000000000
0000E0000000
0001F0000000
0001E0000000
0003E0000000
0003C0000000
000780000800
000F00001C00
000FFFFFFE00
001F00078000
003F000F0000
007B801E0000
0071801E0000
00E1C03C0000
01C0C0780000
0380E0700000
070070E00000
0C0039E00000
18001FC00000
00000F800000
00000F800000
00003FE00000
0000F9F80000
0001F07E0000
0007C03FF800
001F000FFF80
007C0003FF00
03E000007E00
1F0000000C00
380000000000
000000000000
000000000000
000000000000
000000000000
000000000000
000000000000
000000000000
000000000000
000000000000
000000000000
ENDCHAR

STARTCHAR cns3_2169
ENCODING 8553
SWIDTH 960 0
DWIDTH 42 0
BBX 42 42 0 -6
BITMAP
000000000000
000000000000
000000002000
000000007000
03FFFFFFF800
00000E000000
00000E000000
00000E000000
00000E000000
00000E000000
00000E000000
00000E000000
00000E000000
00000E000000
00000E000000
00000E000200
00000E000700
7FFFFFFFFF80
00001C000000
00001C000000
00001C000000
00003F800000
00003B800000
00003B800000
000073800000
000073800000
000063800000
0000E3800000
0000C3800000
0001C3800100
000383800100
000703800100
000F03800300
001E03800300
003C03800300
00F803800380
01E003C00780
078003FFFF80
0E0000FFFF00
3800007FFE00
000000000000
000000000000
ENDCHAR

STARTCHAR cns3_216A
ENCODING 8554
SWIDTH 960 0
DWIDTH 42 0
BBX 42 42 0 -6
BITMAP
000000000000
000000000000
000000000000
000000001000
000000003800
0FFFFFFFFC00
000007000000
000007000000
000007000000
006007000000
00F007000000
00F007000000
00E007000000
00C007000000
00C007000000
018007000000
018007000000
018007000400
038007000E00
03FFFFFFFF00
030007000000
030007000000
0000E7000000
000077000000
00003F000000
00001F000000
000007C00000
000007F00000
000007780000
0000073E0000
0000071F8000
0000070FE000
00000707F800
00000701F800
00000700E000
000007000000
0007CF000000
0001FF000000
00007E000000
000018000000
000000000000
000000000000
ENDCHAR

STARTCHAR cns3_216B
ENCODING 8555
SWIDTH 960 0
DWIDTH 42 0
BBX 42 42 0 -6
BITMAP
000000000000
000000000000
000C00000000
001E00000000
001C00000000
003C00000000
003800000000
007000002000
007000007000
00FFFFFFF800
00E00E000000
01E00E000000
01C00E000000
03800E000000
07000E000000
07000E000000
0E000E000000
0C000E000000
00000E000000
00000E000000
00000E000000
00000E002000
00000E007000
01FFFFFFF800
00000E000000
00000E000000
00000E000000
00000E000000
00000E000000
00000E000000
00000E000000
00000E000000
00000E000000
00000E000000
00000E000000
00000E000000
00000E000000
00000E000800
00000E001C00
0FFFFFFFFE00
000000000000
000000000000
ENDCHAR

STARTCHAR cns3_216C
ENCODING 8556
SWIDTH 960 0
DWIDTH 42 0
BBX 42 42 0 -6
BITMAP
000000000000
000000000000
000000000000
00000E000000
00000F000000
00000E000000
01C00E00E000
01E00E00F000
01C00E00E000
01C00E00E000
01C00E00E000
01C00E00E000
01C00E00E000
01C00E00E000
01FFFFFFE000
01C00000E000
01C00000E000
000000000000
000000000000
000000000000
000000000000
000000000000
000000008000
00000001C000
00FFFFFFE000
000000000000
000000000000
000000000000
000000000000
000000000000
000000000000
000000000000
000000000000
000000000000
000000000000
000000000000
000000000400
000000000E00
3FFFFFFFFF00
000000000000
000000000000
000000000000
ENDCHAR

STARTCHAR cns3_216D
ENCODING 8557
SWIDTH 960 0
DWIDTH 42 0
BBX 42 42 0 -6
BITMAP
000000000000
000C00000000
000F00000000
001F00000800
001E00001C00
003CFFFFFE00
003C00700000
007800700000
007800700000
00F000700000
00F000700000
01E000700000
01F000700000
03F800700000
03F800700000
07F000700000
06E000700200
0CE000700700
1CE7FFFFFF80
18E000700000
30E000700000
00E000700000
00E000700000
00E000700000
00E000700000
00E000700000
00E000700000
00E000700000
00E000700000
00E000700000
00E000700000
00E000700000
00E000700000
00E000700000
00E000700000
00E000700000
00E000700000
00E000700000
00E000700000
00E000700000
00E000700000
000000000000
ENDCHAR

STARTCHAR cns3_216E
ENCODING 8558
SWIDTH 960 0
DWIDTH 42 0
BBX 42 42 0 -6
BITMAP
000000000000
000000000000
000F00700000
001F00780000
001E00700000
003C00700000
003C00700000
007800700000
007800700000
00F000700000
00F000700000
01E000700000
01E000700000
03F800700400
03F800700E00
07F1FFFFFF00
06E0007C0000
0CE0007C0000
1CE0007C0000
18E000FC0000
30E000FC0000
20E000FE0000
00E000FE0000
00E001EF0000
00E001E70000
00E001C70000
00E003C78000
00E003838000
00E00783C000
00E00F01C000
00E00E01E000
00E01E00F000
00E01C00F800
00E038007800
00E078007C00
00E0F0003E00
00E0E0001F00
00E1C0001F80
00E380000E00
00E700000000
00E000000000
000000000000
ENDCHAR

STARTCHAR cns3_216F
ENCODING 8559
SWIDTH 960 0
DWIDTH 42 0
BBX 42 42 0 -6
BITMAP
000000000000
000000000000
000F00008000
001F3801C000
001E3FFFE000
003C3801C000
003C3801C000
00783801C000
00783801C000
00F03801C000
00F03801C000
01E03801C000
01E03801C000
03F83801C000
03F83801C000
07F03801C000
0EE039C1C000
0CE038E1C000
1CE038E1C000
18E03871C000
30E03C79C000
20E03C39C000
00E03C39C000
00E03C39C000
00E03C19C000
00E07801C000
00E07801C000
00E07801C000
00E07801C000
00E07001C000
00E07001C100
00E0E001C100
00E0E001C100
00E1E001C100
00E1C001C100
00E3C001C180
00E78001C380
00E70001E380
00EE0001FF00
00F80000FE00
00E000000000
000000000000
ENDCHAR

STARTCHAR cns3_2170
ENCODING 8560
SWIDTH 960 0
DWIDTH 42 0
BBX 42 42 0 -6
BITMAP
000000000000
000000000000
00001C000000
00001E000000
00001C000000
00001C000000
00001C000000
00001C000000
00001C000800
00001C001C00
00001FFFFE00
00001C000000
00001C000000
00001C000000
00001C000000
00001C000000
00001C000200
00001C000700
7FFFFFFFFF80
000000000000
000000000000
00001C000000
00001E000000
00001C000000
00001C000000
00001C000000
00001C000000
00001E000000
00003F000000
00003F000000
000073800000
0000F1C00000
0001E0F00000
0003C0780000
000F803E0000
001E000F8000
007C0003F000
01F00001FF00
0FC000007F00
1E0000000E00
000000000000
000000000000
ENDCHAR

STARTCHAR cns3_2171
ENCODING 8561
SWIDTH 960 0
DWIDTH 42 0
BBX 42 42 0 -6
BITMAP
000000000000
000000000000
000E00000000
001F00000400
001F80000E00
003DFFFFFF00
003C07070000
007807070000
007807070000
00F007070000
00F007070000
01E007070000
01E007070000
03F007070000
03F807070000
07F007070000
06E007070000
0CE007070000
1CE007070000
18E007070000
30E007070000
00E007070000
00E007070000
00E007070000
00E00F070000
00E00E070000
00E00E070000
00E00E070000
00E00E070000
00E01C070100
00E01C070100
00E03C070100
00E038070100
00E078070100
00E070070300
00E0E0070380
00E1E0078780
00E1C007FF80
00E38003FF00
00E700000000
00E600000000
000000000000
ENDCHAR

STARTCHAR cns3_2172
ENCODING 8562
SWIDTH 960 0
DWIDTH 42 0
BBX 42 42 0 -6
BITMAP
000000000000
000000000000
000E00000000
001F00380000
001E003C0000
003C00380000
003C00380000
007800380000
007800380000
00F000380000
00F000380000
01E000380000
01E000380000
03F00C380000
03F81C398000
07F01C39C000
06E01838E000
0CE03838E000
1CE038387000
18E038387000
30E030383800
00E070383C00
00E060381C00
00E0E0381E00
00E1C0380F00
00E1C0380F00
00E380380780
00E380380780
00E700380780
00E600380300
00EE00380000
00EC00380000
00E000380000
00E000380000
00E000380000
00E000380000
00E000780000
00E01FF80000
00E003F80000
00E001F00000
00E000600000
000000000000
ENDCHAR

STARTCHAR cns3_2173
ENCODING 8563
SWIDTH 960 0
DWIDTH 42 0
BBX 42 42 0 -6
BITMAP
000000000000
000000000000
000700000000
000F80700000
000F00F80000
001E00F00000
001E01C00000
003C01C00000
003C03800800
007803801C00
007807FFFE00
00F007001C00
00F00E001C00
01F81E001C00
01FC1C003C00
03F838003800
07707E003800
0670FF007800
0E70E7807000
0C71C3C0F000
187381F0E000
007600F1E000
00700079C000
0070003BC000
0070003B8000
007000078000
007000070000
0070000F0000
0070001E0000
0070001C0000
007000380000
007000700000
007000E00000
007003C00000
007007800000
00701E000000
007038000000
0070F0000000
007380000000
007E00000000
007000000000
000000000000
ENDCHAR

STARTCHAR cns3_2174
ENCODING 8564
SWIDTH 960 0
DWIDTH 42 0
BBX 42 42 0 -6
BITMAP
000000000000
000000000000
000F00E00000
001F00F00000
001E00E00000
003C00E00000
003C01E00000
007801C00000
007801C00000
00F001C00000
00F003C00000
01E003800000
01E003800200
03F003800700
03FBFFFFFF80
07F00F00E000
06E00F00E000
0CE00E01E000
1CE00E01C000
18E01E01C000
30E01C03C000
00E01C038000
00E03C038000
00E038078000
00E038070000
00E078070000
00E07E0F0000
00E0678E0000
00E0E1FE0000
00E0E07C0000
00E0003F0000
00E0007F8000
00E000F3C000
00E001E1F000
00E003C0F800
00E007807C00
00E01E001E00
00E078001E00
00E3E0000E00
00E780000000
00E000000000
000000000000
ENDCHAR

STARTCHAR cns3_2175
ENCODING 8565
SWIDTH 960 0
DWIDTH 42 0
BBX 42 42 0 -6
BITMAP
000000000000
000000000000
000000000000
00001E000000
00001F000000
00003E000000
00007F000000
00007B800000
0000F1800000
0001E1C00000
0003C0F00000
000780780000
000F003E0000
001E001F0000
003C060FC000
00700F03F000
01E03F00FE00
03C07C007F00
0F01F0001F00
3C07C0000600
303E00000000
01F000600000
030000F00000
000001F00000
000003E00000
00000F800000
00003E000000
0001F8000000
0007E0000000
003F00000000
00F00003C000
0000000FC000
0000001F8000
0000007E0000
000001F80000
00000FE00000
00007F800000
0007FC000000
007FC0000000
01F000000000
000000000000
000000000000
ENDCHAR

STARTCHAR cns3_2176
ENCODING 8566
SWIDTH 960 0
DWIDTH 42 0
BBX 42 42 0 -6
BITMAP
000000000000
000000000000
000000000000
000078000000
00003C000000
00001C000000
00001E000000
00003B000000
000073800000
0000E1C00000
0001C0E00000
000380700000
0007003C0000
000E001E0000
001C000F8000
00780003E000
00E00001F000
03C000007F80
070000013F80
3C0000038E00
003FFFFFC000
00000E000000
00000E000000
00000E000000
00000E000000
00000E000000
00000E000000
00000E000000
00000E000000
00000E000000
00000E000000
00000E000000
00000E000000
00000E000000
00000E000000
00000E000000
00000E000400
00000E000E00
07FFFFFFFF00
000000000000
000000000000
000000000000
ENDCHAR

STARTCHAR cns3_2177
ENCODING 8567
SWIDTH 960 0
DWIDTH 42 0
BBX 42 42 0 -6
BITMAP
000000000000
000000000000
000000000800
0E0000001C00
0FFFFFFFFE00
0E0000001C00
0E0000001C00
0E1C00701C00
0E1FFFF81C00
0E1C00701C00
0E1C00701C00
0E1C00701C00
0E1C00701C00
0E1C00701C00
0E1C00701C00
0E1C00701C00
0E1C00701C00
0E1C00701C00
0E1FFFF01C00
0E1C00701C00
0E1C00701C00
0E1C00001C00
0E1C00001C00
0E1C00001C00
0E1C00041C00
0E1C00041C00
0E1C00041C00
0E1C000C1C00
0E1C000E1C00
0E1E001E1C00
0E0FFFFE1C00
0E07FFFC1C00
0E0000001C00
0E0000001C00
0E0000001C00
0E0000003C00
0E00003FFC00
0E000007F800
0E000000E000
0E0000000000
0E0000000000
000000000000
ENDCHAR

STARTCHAR cns3_2178
ENCODING 8568
SWIDTH 960 0
DWIDTH 42 0
BBX 42 42 0 -6
BITMAP
000000000000
000000000000
000000000000
000000000800
070000001C00
07FFFFFFFE00
070000001C00
070000001C00
070000001C00
070000001C00
070000001C00
070000101C00
070700381C00
0707FFFC1C00
070700381C00
070700381C00
070700381C00
070700381C00
070700381C00
070700381C00
070700381C00
070700381C00
070700381C00
070700381C00
070700381C00
070700381C00
0707FFF81C00
070700381C00
070700381C00
070000001C00
070000001C00
070000001C00
070000001C00
070000001C00
070000001C00
070000001C00
070000001C00
0700001F3C00
07000007FC00
07000001F800
070000007000
000000000000
ENDCHAR

STARTCHAR cns3_2179
ENCODING 8569
SWIDTH 960 0
DWIDTH 42 0
BBX 42 42 0 -6
BITMAP
000000000000
000040004000
01C0E1C0E000
01FFF1FFF000
01C0E1C0E000
01C0E1C0E000
01C0E1C0E000
01C0E1C0E000
01C0E1C0E000
01C0E1C0E000
01C0E1C0E000
01C0E1C0E000
01C0E1C0E000
01C0E1C0E000
01C0E1C0E000
01C0E1C0E200
01C0E1C0E700
7FFFFFFFFF80
01C0E1C0E000
01C0E1C0E000
01C0E1C0E000
01C0E1C0E000
01C0E1C0E000
01C0E1C0E000
01C0E1C0E000
01C0E1C0E000
01C0E1C0E000
01C0E1C0E000
01C0E1C0E000
01C0E1C0E000
01C0E1C0E000
01C0E1C0E000
01C0E1C0E000
01C0E1C0E000
01C0E1C0E000
01C1E1C1E000
01DFE1DFE000
01C7E1C3C000
01C381C18000
01C000C00000
01C000000000
000000000000
ENDCHAR

STARTCHAR cns3_217A
ENCODING 8570
SWIDTH 960 0
DWIDTH 42 0
BBX 42 42 0 -6
BITMAP
000000000000
000000000000
000000000200
030000000700
07FFFFFFFF00
070000001E00
0E0000003C00
0E0400003800
1C0E00007000
380F00000000
000E00000000
000C00000000
001C00001000
001C00003800
001FFFFFFC00
003800000000
003000000000
003000000000
007000008000
00700001C000
007FFFFFE000
00700001C000
00E00001C000
00C000018000
000000018000
000000018000
000000018200
000000038700
7FFFFFFFFF80
000000038000
000000038000
000000038000
000000038000
000000070000
000000070000
0000000F0000
0000000E0000
0000003E0000
000007FC0000
000000F80000
000000600000
000000000000
ENDCHAR

STARTCHAR cns3_217B
ENCODING 8571
SWIDTH 960 0
DWIDTH 42 0
BBX 42 42 0 -6
BITMAP
000000000000
000000000000
000000000400
00E000000E00
00FFFFFFFF00
00E000000E00
00E000000E00
00E000000E00
00E000000E00
00E000000E00
00E000000E00
00E000000E00
00FFFFFFFE00
00E000000E00
00E000080E00
00E0E01C0000
00E0FFFE0000
00E0E01C0000
00E0E01C0000
00E0E01C0000
00E0E01C0000
00E0E01C0000
00E0E01C0000
00E0E01C0000
00E0E01C0000
00E0E01C0000
00E1E01C0000
00E1E01C0000
00E1E01C0000
01E1C01C0000
01E1C01C0200
01C3C01C0200
03C3801C0200
0387801C0200
0387001C0600
070F001C0600
071E001C0700
0E1C001E0F00
0C38000FFE00
00600007FC00
000000000000
000000000000
ENDCHAR

STARTCHAR cns3_217C
ENCODING 8572
SWIDTH 960 0
DWIDTH 42 0
BBX 42 42 0 -6
BITMAP
000000000000
000000000000
007000000000
007800000000
007000000400
007000000E00
00707FFFFF00
007000700E00
007000700E00
007000700E00
007000700E00
007000700E00
007040F00E00
0070E0E00E00
3FFFF0E00E00
007000E00E00
007000E00E00
007000E01E00
007001E01E00
007001C01E00
007001C01E00
007001C01C00
007001C01C00
007003801C00
007003801C00
007033803C00
0070F3803C00
0073C7003C00
007F07003C00
00FC0E003800
0FF00E003800
1FC01C003800
1F0038007800
0C0070007800
0000E0007800
0001C0007000
00038000F000
000F007FE000
001C000FC000
003000018000
000000000000
000000000000
ENDCHAR

STARTCHAR cns3_217D
ENCODING 8573
SWIDTH 960 0
DWIDTH 42 0
BBX 42 42 0 -6
BITMAP
000000000000
000000000000
000018000E00
00007C000F00
0001FC000E00
0007E0380E00
001F803C0E00
03FF00380E00
000700380E00
000700380E00
000700380E00
000700380E00
000700380E00
000700380E00
000700380E00
000702380E00
000707380E00
1FFFFFB80E00
000700380E00
000700380E00
000700380E00
000700380E00
000700380E00
000700380E00
000700380E00
000700380E00
000700380E00
000700380E00
000700380E00
000700380E00
000700380E00
000700000E00
000700000E00
000700000E00
000700000E00
000700000E00
000700001E00
0007000FFE00
00070001FC00
000700003800
000700000000
000000000000
ENDCHAR

STARTCHAR cns3_217E
ENCODING 8574
SWIDTH 960 0
DWIDTH 42 0
BBX 42 42 0 -6
BITMAP
000000000000
000000000000
001C00000000
001E00000000
001C00000200
003C00000700
00380FFFFF80
0078001C0700
0070001C0700
0070003C0700
00E0003C0700
00C0003C0F00
01C0003C0F00
618078380F00
3B80F0380E00
1F01E0380E00
0F03C0380E00
078780380E00
07C780380E00
03EF00380E00
01EE00300E00
00FE00700E00
001C00700E00
003800700E00
003800700E00
007000600E00
006300E00E00
00E380E00E00
00C1C0E01E00
01C1E1C01E00
0380F1C01E00
030073801E00
070FFF801E00
0FFFFF001C00
3FF81E001C00
3F001E003C00
30001C007800
00003800F000
0000701FF000
0000E003E000
0000C001C000
000000000000
ENDCHAR

STARTCHAR cns3_2221
ENCODING 8737
SWIDTH 960 0
DWIDTH 42 0
BBX 42 42 0 -6
BITMAP
000000000000
000000000000
000000000000
000000000800
1C0000001C00
1FFFFFFFFE00
1C0000001C00
1C001C001C00
1C001E001C00
1C001C001C00
1C001C001C00
1C001C021C00
1C001C071C00
1C1FFFFF9C00
1C001E071C00
1C001E071C00
1C001E071C00
1C001C071C00
1C001C071C00
1C003C071C00
1C0038071C00
1C0038071C00
1C0038071C00
1C0070071C00
1C0070071C00
1C00F0071C00
1C00E0071C00
1C01C00F1C00
1C03C00F1C00
1C03800E1C00
1C07001E1C00
1C0E001C1C00
1C1C0FFC1C00
1C3801F81C00
1C7000601C00
1C0000001C00
1C0000001C00
1FFFFFFFFC00
1C0000001C00
1C0000001C00
1C0000001C00
000000000000
ENDCHAR

STARTCHAR cns3_2222
ENCODING 8738
SWIDTH 960 0
DWIDTH 42 0
BBX 42 42 0 -6
BITMAP
000000000000
000000000000
001C00000000
003E00000000
003C00000000
003800000000
003800000000
007800000800
007800001C00
007FFFFFFE00
00F000001C00
00E038001C00
01E03C001C00
01C038001C00
03C038001C00
038038041C00
070E380E1C00
070FFFFF1C00
0E0E00001C00
0C0E00001C00
1C0E00001C00
180E00001C00
000E00003C00
000E00003C00
000E00003C00
000E00003C00
000E00003C00
000E00003800
000E00003800
000E00007800
000E00007800
000F00007800
0007FFFE7800
0003FFFE7000
000000007000
00000000F000
00000001E000
000000FFC000
0000003FC000
000000070000
000000000000
000000000000
ENDCHAR

STARTCHAR cns3_2223
ENCODING 8739
SWIDTH 960 0
DWIDTH 42 0
BBX 42 42 0 -6
BITMAP
000000000000
000E00000000
000F00000000
000E00000000
000E00000000
001E00000000
001C00000000
003C00000200
003C00000700
007FFFFFFF80
007800000700
00F000000700
00E00E000700
01C00F000700
03C00E000700
03800E000700
07380E000700
0E3C0E000700
1C381E000F00
38381C000F00
30381F000F00
00381F800E00
003839E00E00
003838F00E00
0038707C0E00
0038E03E0E00
0038E01E0E00
0039C00E0E00
003B80000E00
003800020E00
003800071E00
003FFFFF9C00
003800001C00
003800001C00
000000001C00
000000003C00
000000007800
00000001F800
0000003FF000
00000007E000
00000001C000
000000000000
ENDCHAR

STARTCHAR cns3_2224
ENCODING 8740
SWIDTH 960 0
DWIDTH 42 0
BBX 42 42 0 -6
BITMAP
000000000000
000600000000
000F00000000
000E00000000
000E00000000
001E00000000
001C00000000
003C00000200
003C00000700
007FFFFFFF80
007800000700
00F000000700
00E018000700
01E03C000700
03C078000700
038078000700
0700F0000700
0E01E01C0700
1C01FFFE0F00
3803E03C0F00
200780380F00
000F00780F00
001E00F00F00
003F01E00F00
007B81E00F00
00F1C3C00F00
01E1E7800F00
0180EF000E00
00007E000E00
00003C001E00
000078001E00
0000F0001E00
0001E0001E00
0003C0001C00
000700001C00
001E00001C00
003800003C00
00F000007800
0180003FF000
00000007E000
00000001C000
000000000000
ENDCHAR

STARTCHAR cns3_2225
ENCODING 8741
SWIDTH 960 0
DWIDTH 42 0
BBX 42 42 0 -6
BITMAP
000000000000
000000000000
000600000000
000F00000000
000E00000000
000E00000000
001E00000000
001C00000000
001C00000400
003800000E00
003FFFFFFF00
00701C0E0E00
0070380E0E00
00E0380C0E00
01C0701C0E00
01C0701C0E00
0380703C0E00
070060380E00
0706E0381E00
0E07C0301E00
1C03C0701C00
3003E0701C00
0007B8601C00
00071CE01C00
000E0FE01C00
001C07C01C00
003801E01C00
003003F81C00
007007BC1C00
00E0070F1C00
01C00E07D800
03801C03F800
03003800F800
000070007E00
0000E0003F00
0001C0003F00
000380007600
000703FFE000
000E001FC000
003C00038000
000000000000
000000000000
ENDCHAR

STARTCHAR cns3_2226
ENCODING 8742
SWIDTH 960 0
DWIDTH 42 0
BBX 42 42 0 -6
BITMAP
000000000000
000000000000
000000001000
1C0000003800
1FFFFFFFFC00
1C0000000000
1C0000000000
1C0000000000
1C0000000000
1C0000008000
1C000001C000
1C3FFFFFE000
1C000E000000
1C000E000000
1C000E000000
1C000E000000
1C000E000000
1C000E000000
1C000E000000
1C000E000000
1C000E000000
1C000E000000
1C000E000000
1C000E000000
1C000E000000
1C000E000000
1C000E000000
1C000E004000
1C000E00E000
1CFFFFFFF000
1C0000000000
1C0000000000
1C0000000000
1C0000000000
1C0000000200
1C0000000700
1FFFFFFFFF80
1C0000000000
1C0000000000
000000000000
000000000000
000000000000
ENDCHAR

STARTCHAR cns3_2227
ENCODING 8743
SWIDTH 960 0
DWIDTH 42 0
BBX 42 42 0 -6
BITMAP
000000000000
000000000000
000001C00000
000001E00000
000001C00000
000201C00000
1C0701C00000
1FFF81C00000
1C0701C00000
1C0701C00000
1C0701C00000
1C0701C00000
1C0701C00000
1C0701C00000
1C0701C00000
1C0701F80000
1C0701FE0000
1C0701CF0000
1C0701C3C000
1C0701C1F000
1C0701C0F800
1C0701C07C00
1C0701C01E00
1C0701C01F00
1C0701C00F00
1C0701C00700
1FFF01C00300
1C0701C00000
1C0701C00000
000001C00000
000001C00000
000001C00000
000001C00000
000001C00000
000001C00000
000001C00000
000001C00000
000001C00000
000001C00000
000001C00000
000001C00000
000000000000
ENDCHAR

STARTCHAR cns3_2228
ENCODING 8744
SWIDTH 960 0
DWIDTH 42 0
BBX 42 42 0 -6
BITMAP
000000000000
000000000000
000000000200
000008700700
00001C7FFF80
3FFFFE700700
003800700700
003800700700
003800700700
003800700700
003800700700
003800700700
003800700700
003800700700
003800700700
003800700700
003800700700
003800700700
003800700700
003800700700
003800700700
003800700700
003800700700
003800700700
003800700700
00381C700700
003878700700
003BC0700700
003F00700F00
07F80071FF00
1FC000703E00
1E0000700C00
180000700000
000000700000
000000700000
000000700000
000000700000
000000700000
000000700000
000000700000
000000700000
000000000000
ENDCHAR

STARTCHAR cns3_2229
ENCODING 8745
SWIDTH 960 0
DWIDTH 42 0
BBX 42 42 0 -6
BITMAP
000000000000
000000000000
000000000200
038000000700
03FFFFFFFF80
038000000000
038000000000
038000000000
038000002000
038000007000
038FFFFFF800
038018000000
038018000000
038018000000
038018000000
038018000000
038018008000
03801801C000
03803FFFE000
03803801C000
03803801C000
03803801C000
03803801C000
03803801C000
03803801C000
03803801C000
03807801C000
03807001C000
0380F003C000
0380E003C000
0701C003C000
0703C003C000
070380038000
060780078000
0E0F00078000
0C0E000F8000
1C1C1FFF0000
187801FE0000
18F0003C0000
31C000000000
000000000000
000000000000
ENDCHAR

STARTCHAR cns3_222A
ENCODING 8746
SWIDTH 960 0
DWIDTH 42 0
BBX 42 42 0 -6
BITMAP
000000000000
000000000000
000060000000
0000F0000000
0000E0000000
0000E0000000
0000E0000200
0000E0000700
7FFFFFFFFF80
0001E0E00000
0003C0700000
000780380000
000F001C0000
001E000E0000
003C00070000
007800038000
00F07001E000
01E07800F800
078070007F00
0F0070003F00
1E00F0001E00
1800F0000000
0000E0000000
0000E0000000
0001E0000000
0001C0000000
0001C0000000
0003801C0000
0003800E0000
000380070000
000700038000
00070003C000
00070001E000
000E0003E000
000E03FFF000
0FFFFFE07800
0FFFFF007800
07E000007C00
000000003C00
000000003C00
000000000000
000000000000
ENDCHAR

STARTCHAR cns3_222B
ENCODING 8747
SWIDTH 960 0
DWIDTH 42 0
BBX 42 42 0 -6
BITMAP
000000000000
000000000000
00000003C000
0000001FE000
000007FFE000
0000FFF06000
01FFFE000000
0000E0000000
0000E0000000
0000E0000000
0000E0000000
0000E0000000
0000E0000200
0000E0000700
7FFFFFFFFF80
0001C0000000
0001C0000000
0001C0000000
0001C0000000
0003FFFF8000
0003C00FC000
0003E0078000
0003E00F0000
0007700E0000
0007301E0000
000E383C0000
000C1C380000
001C1E700000
00380EF00000
003007E00000
007003C00000
00E007E00000
00C00FF00000
01C01E780000
0380383E0000
0700F01F8000
0603E00FF000
0C078003FE00
003E0000FC00
00F000001800
000000000000
000000000000
ENDCHAR

STARTCHAR cns3_222C
ENCODING 8748
SWIDTH 960 0
DWIDTH 42 0
BBX 42 42 0 -6
BITMAP
000000000000
000000000000
000000C00000
000001E00000
000001C00000
000401C00000
1C0E01C00000
1FFF01C00000
1C0E01C00000
1C0E01C00000
1C0E01C00000
1C0E01C00000
1C0E01C00000
1C0E01C00000
1C0E01E00000
1C0E03E00000
1C0E03F00000
1C0E03F00000
1C0E03B00000
1C0E03B00000
1C0E07B80000
1C0E07380000
1C0E071C0000
1C0E0F1C0000
1C0E0E1C0000
1C0E1E0E0000
1FFE1E0E0000
1C0E1C0F0000
1C0E1C078000
00003C078000
00007803C000
00007001E000
0000F001F000
0001E000F800
0001C000FC00
000380007E00
000700003F00
000E00001F00
001C00000000
003800000000
000000000000
000000000000
ENDCHAR

STARTCHAR cns3_222D
ENCODING 8749
SWIDTH 960 0
DWIDTH 42 0
BBX 42 42 0 -6
BITMAP
000000000000
000000380000
0000003C0000
000000380000
000000380000
000400380000
1C0E00380000
1FFF00380000
1C0E00380000
1C0E00380000
1C0E00380000
1C0E00380000
1C0E00380000
1C0E00380000
1C0E00380000
1C0E00380200
1C0E00380700
1C0FFFFFFF80
1C0E00380000
1C0E00380000
1C0E00380000
1C0E00380000
1C0E00380000
1C0E00380000
1C0E00380000
1C0E00380000
1FFE00380000
1C0E00380000
1C0E00380000
000000380000
000000380000
000000380000
000000380000
000000380000
000000380000
000000380000
000000380000
000000380000
000000380000
000000380000
000000380000
000000000000
ENDCHAR

STARTCHAR cns3_222E
ENCODING 8750
SWIDTH 960 0
DWIDTH 42 0
BBX 42 42 0 -6
BITMAP
000000000000
000000010000
003800038000
003FFFFFC000
003800038000
003800038000
003800038000
003800038000
003800038000
003800038000
003800038000
003800038000
003FFFFF8000
003800038000
003800038000
000000000000
000000001000
000000003800
07FFFFFFFC00
000700000000
000600000000
000E00000000
000C00000000
001C00020000
001800070000
003FFFFF8000
007000030000
006000030000
000000070000
000000070000
000000070000
000000070000
0000000F0000
0000000F0000
0000001E0000
0000001E0000
0000003C0000
0000FFFC0000
00000FF80000
000000E00000
000000000000
000000000000
ENDCHAR

STARTCHAR cns3_222F
ENCODING 8751
SWIDTH 960 0
DWIDTH 42 0
BBX 42 42 0 -6
BITMAP
000000000000
000000000000
000000000000
000000000000
000000001000
000400003800
1C0EFFFFFC00
1FFF1E007800
1C0E1C003800
1C0E1C003800
1C0E0C007800
1C0E0C007800
1C0E0C007000
1C0E0C00F000
1C0E0E00F000
1C0E0600E000
1C0E0701E000
1C0E0701C000
1C0E0301C000
1C0E0383C000
1C0E03838000
1C0E03C38000
1C0E01C70000
1C0E01E70000
1C0E00EE0000
1C0E00FE0000
1FFE007C0000
1C0E00780000
1C0E00380000
0000007C0000
000000FE0000
000001CF0000
000003878000
00000F03C000
00001E01F000
00003800FC00
0000F0007F00
0001C0003F00
000700001C00
000C00000000
000000000000
000000000000
ENDCHAR

STARTCHAR cns3_2230
ENCODING 8752
SWIDTH 960 0
DWIDTH 42 0
BBX 42 42 0 -6
BITMAP
000000000000
000000000000
000003800000
000003C00000
000003800000
000003800000
000403800000
1C0E03800000
1FFF03800000
1C0E03800000
1C0E03800000
1C0E03800000
1C0E03810000
1C0E03838000
1C0FFFFFC000
1C0E03C38000
1C0E03838000
1C0E03838000
1C0E03838000
1C0E03838000
1C0E03838000
1C0E03838000
1C0E07838000
1C0E07838000
1C0E07838000
1C0E07838000
1FFE07038000
1C0E07038000
1C0E0F038000
00000E038000
00001E038000
00001C038100
00003C038100
000078038100
000078038100
000070038180
0000E003C380
0001C001FF80
00018000FF80
000000000000
000000000000
000000000000
ENDCHAR

STARTCHAR cns3_2231
ENCODING 8753
SWIDTH 960 0
DWIDTH 42 0
BBX 42 42 0 -6
BITMAP
000000000000
000000000000
0001C0000000
0001E0000000
0001C0000000
0001C0040000
0001C00E0000
0FFFFFFF0000
0001E00E0000
0001C00E0000
0003C00E0000
0003C00E0000
0003800E0000
0003800E0100
0007000E0100
0007000E0100
000E000E0100
001C000E0300
0078000F0380
00F00007FF80
01C00003FF00
070000000000
1C0000000000
300000004000
00700000E000
007FFFFFF000
00700000E000
00700000E000
00700000E000
00700000E000
00700000E000
00700000E000
00700000E000
00700000E000
00700000E000
00700000E000
007FFFFFE000
00700000E000
00700000E000
000000000000
000000000000
000000000000
ENDCHAR

STARTCHAR cns3_2232
ENCODING 8754
SWIDTH 960 0
DWIDTH 42 0
BBX 42 42 0 -6
BITMAP
000000000000
000000000000
000000000000
000000000800
1C0000001C00
1FFFFFFFFE00
1C0000001C00
1C0000001C00
1C0000081C00
1C00001C1C00
1C1FFFFE1C00
1C03801C1C00
1C01801C1C00
1C0180381C00
1C0180381C00
1C01C0781C00
1C00C0701C00
1C00C0F01C00
1C00C0E01C00
1C00E0E01C00
1C0061C01C00
1C0071C01C00
1C0033801C00
1C003F001C00
1C001F001C00
1C001E001C00
1C001F001C00
1C003F001C00
1C007BC01C00
1C00F1E01C00
1C01E0F01C00
1C03C07C1C00
1C07003F1C00
1C1E000F9C00
1C3800079C00
1C0000001C00
1C0000001C00
1FFFFFFFFC00
1C0000001C00
1C0000001C00
000000000000
000000000000
ENDCHAR

STARTCHAR cns3_2233
ENCODING 8755
SWIDTH 960 0
DWIDTH 42 0
BBX 42 42 0 -6
BITMAP
000000000000
000000380000
00E0003C0000
00F000380000
00E000380000
00E000380000
00E000380000
00E000380000
00E000380000
00E000380000
00E000380200
00E000380700
00E09FFFFF80
00E1C03C0700
1FFFE03C0700
00E0003C0700
00E000780700
00E000780700
00E000780F00
00E000780F00
00E000700F00
00E000700E00
00E000700E00
00E000E00E00
00E000E00E00
00E060E00E00
00E1E1E00E00
00E781C00E00
00FE01C00E00
01F803800E00
1FE007800E00
1F0007000E00
1C000F000E00
18000E000E00
00001C001C00
00003C001C00
000078003C00
000070007C00
0000E01FF800
0001C003F000
00000000E000
000000000000
ENDCHAR

STARTCHAR cns3_2234
ENCODING 8756
SWIDTH 960 0
DWIDTH 42 0
BBX 42 42 0 -6
BITMAP
000000000000
000000E00000
007000F00000
007800E00000
007000E00000
007000E00000
007000E00000
007000E00000
007000E00000
007000E00000
007000E00000
007000E00000
007040E00000
0070E0E00000
1FFFF0E00000
007000F80000
007000FF0000
007000E78000
007000E3E000
007000E1F800
007000E07C00
007000E03E00
007000E01F00
007000E00F80
007000E00780
007030E00380
0070F0E00000
0073C0E00000
007F00E00000
01FC00E00000
1FF800E00000
3F8000E00000
3E0000E00000
000000E00000
000000E00000
000000E00000
000000E00000
000000E00000
000000E00000
000000E00000
000000E00000
000000000000
ENDCHAR

STARTCHAR cns3_2235
ENCODING 8757
SWIDTH 960 0
DWIDTH 42 0
BBX 42 42 0 -6
BITMAP
000000000000
000000000000
000000000000
000000000000
003800000000
003C00070000
003800078000
003800070000
003800070000
0078080F0000
00781C0E0000
00FFFE0E0000
00F03C1E0000
00E03C1E0000
01F03C1F8000
01F0783FC000
03F07039C000
03B87078E000
0398F070F800
071CE0F07800
060CE0E07C00
0E0FC0C03E00
1C07C1C01F00
1807C3801F80
300383000F80
0007C7000F80
000FF0000000
000E7C000000
001C3F000000
003C0FC00000
007803FFFF00
00F000FFFF00
01E0001FFE00
03C00000FC00
078000000000
0F0000000000
1C0000000000
380000000000
300000000000
000000000000
000000000000
000000000000
ENDCHAR

STARTCHAR cns3_2236
ENCODING 8758
SWIDTH 960 0
DWIDTH 42 0
BBX 42 42 0 -6
BITMAP
000000000000
000000000000
000C00000000
001E00000400
003C00E00E00
003800FFFF00
003800E00E00
007010E00E00
007038E00E00
007FFCE00E00
007038E00E00
00E038E00E00
01E038E00E00
01C078E00E00
01C070E00E00
03C070E00E00
0380F0E00E00
0780F0E00E00
07C0E0E00E00
0EE1E0E00E00
0C79E0E00E00
1C3DC0E00E00
181FC0E00E00
000F80E00E00
000780E00E00
000780E01E00
000700E3FE00
000E00E0FC00
001E00E03800
001C00E00000
003800E00000
007000E00000
00F000E00000
00E000E00000
01C000E00000
038000E00000
070000E00000
0E0000E00000
1C0000E00000
180000E00000
000000E00000
000000000000
ENDCHAR

STARTCHAR cns3_2237
ENCODING 8759
SWIDTH 960 0
DWIDTH 42 0
BBX 42 42 0 -6
BITMAP
000000000000
00000E000000
00000F000000
00000E000000
00000E000000
00000E000000
00000E000000
00001E000000
00001C000000
00001C000200
00003C000700
7FFFFFFFFF80
00007F000000
000077000000
0000F7800000
0000E3800000
0001E3C00000
0001D9C00000
00039FE00000
00079FF00000
00071C780000
000E1C380000
001E1C3C0000
001C1C1E0000
00381C0F0000
00781C078000
00F01C03E000
01E01C01F000
03C01C08F800
07801C1C7E00
0F3FFFFE3F80
1E001C000F80
38001C000000
70001C000000
00001C000000
00001C000000
00001C000000
00001C000000
00001C000000
00001C000000
00001C000000
000000000000
ENDCHAR

STARTCHAR cns3_2238
ENCODING 8760
SWIDTH 960 0
DWIDTH 42 0
BBX 42 42 0 -6
BITMAP
000000000000
000038000000
00003C000000
000038000000
000078000000
000070000200
0000E0000700
7FFFFFFFFF80
0001E0E00000
0003C0700000
000780380000
000F001C0000
001E000E0000
003C00070000
00780007C000
00F00001F000
01C00001FC00
078E001C7F00
0E0F001E1F80
3C0E001C0F00
300E001C0000
000E001C0000
000E001C0000
000E001C0000
000E001C0000
000E001C0000
000E001C0000
000E001C0000
000E001C0000
000E001C0000
000E001C0000
001E001C0000
001C001C0000
001C001C0000
001C001C0000
003C001C0000
0038001C0000
0070001C0000
0070001C0000
00E0001C0000
00C0001C0000
000000000000
ENDCHAR

STARTCHAR cns3_2239
ENCODING 8761
SWIDTH 960 0
DWIDTH 42 0
BBX 42 42 0 -6
BITMAP
000000000000
000000000000
00000E000000
000C0F000000
000E0E000000
00078E000000
0003CE000000
0001CE000000
0001CE000000
0000CE000000
00000E000000
00600E000000
00780E000000
003C0E000000
001E0E000000
000F0E000000
00070E000000
00000E000200
00000E000700
7FFFFFFFFF80
00001E000000
00001F000000
00001F800000
000039800000
000039C00000
000078C00000
000070E00000
0000F0700000
0000E0380000
0001C03C0000
0003C01E0000
0007800F0000
000700078000
001E0003C000
003C0001E000
00780000F800
00E000007E00
03C000001F00
0F0000000F00
1C0000000000
000000000000
000000000000
ENDCHAR

STARTCHAR cns3_223A
ENCODING 8762
SWIDTH 960 0
DWIDTH 42 0
BBX 42 42 0 -6
BITMAP
000000000000
000000000000
000000000000
000038000000
00003C000000
000078000000
000070000000
000060000200
0000E0000700
7FFFFFFFFF80
0001E0E00000
0003C0700000
000780380000
0007001C0000
000E001E0000
001C000F0000
003800078000
00700003C000
00E00001F000
03C00000FC00
078000007F00
0E0000001F80
38E00001C780
00F00001E000
00E00001C000
00E00001C000
00E00001C000
00E00001C000
00E00001C000
00E00001C000
00E00001C000
00E00001C000
00E00001C000
00E00001C000
00E00001C000
00E00001C000
00E00001C000
00FFFFFFC000
00E00001C000
00E00001C000
000000000000
000000000000
ENDCHAR

STARTCHAR cns3_223B
ENCODING 8763
SWIDTH 960 0
DWIDTH 42 0
BBX 42 42 0 -6
BITMAP
000000000000
000000000000
007000000000
007800000200
007000000700
00F03FFFFF80
00F000038000
00E000038000
00E000038000
00E080038000
00E1C0038000
3FFFE0038000
01C1C0038000
01C1C0038000
01C1C0038000
01C1C0038000
038180038000
038380038000
078380038000
070380038000
070300038000
0F0700038000
0E0700038000
0E0600038000
0E0E00038000
1E0E00038000
1F8E00038000
19DC00038000
00FC00038000
007800038000
003C00038000
007E00038000
007F00038000
00E700038000
01C700038000
03C000038000
078000078000
0F0003FF8000
1C00007F0000
1800001E0000
000000000000
000000000000
ENDCHAR

STARTCHAR cns3_223C
ENCODING 8764
SWIDTH 960 0
DWIDTH 42 0
BBX 42 42 0 -6
BITMAP
000000000000
000000000000
00000E000000
00000F000000
00000E000000
00000E000000
00000E000400
00000E000E00
0FFFFFFFFF00
0F0000000E00
0E0000001E00
1C0000001800
380000003000
700000038000
63FFFFFFC000
000C0007C000
000C00070000
000E00070000
000E000E0000
0007000E0000
0007001C0000
0003001C0000
000380380000
000180380000
0001C0700000
0000C0F00000
0000E0E00000
000071C00000
000039C00000
00003F800000
00001F000000
00001F000000
00003FC00000
000079F00000
0001E0F80000
0003803E0000
000F001FE000
003C0007F800
01E00001F800
078000000000
000000000000
000000000000
ENDCHAR

STARTCHAR cns3_223D
ENCODING 8765
SWIDTH 960 0
DWIDTH 42 0
BBX 42 42 0 -6
BITMAP
000000000000
000000000000
00000E000000
00000F000000
00000E000000
00000E000000
06000E000400
06000E000E00
07FFFFFFFF00
070000000E00
0F0000001E00
1E0000001800
3C0700703000
380780780000
300700700000
000700700000
000700700000
000700700000
000700700000
000700700000
000700700000
000700700000
000700700000
000700700000
000700700000
000F00700000
000F00700000
000F00700000
000F00700000
001E00700100
001C00700100
001C00700100
003800700300
007000700300
00E000700380
01C000780780
0380003FFF00
0700001FFE00
1E0000000000
380000000000
000000000000
000000000000
ENDCHAR

STARTCHAR cns3_223E
ENCODING 8766
SWIDTH 960 0
DWIDTH 42 0
BBX 42 42 0 -6
BITMAP
000000000000
000000000000
000000038000
00000003C000
000080038000
0001C0038000
0FFFE0038000
0001C0038000
0001C0038000
0001C0038000
0001C0038000
0003C0038400
000380038E00
0003BFFFFF00
060380038000
060380038000
030780038000
038700038000
018700038000
00C70C038000
00E70E038000
007707038000
007E03838000
003E03C38000
001E01E38000
001E01E38000
001E00E38000
001F00E38000
003F00038000
003B80038000
0073C0038000
00E3C0038000
00E3E0038000
01C1E0038000
0181F0038000
0380F0038000
0700F0078000
060001FF0000
0C00003E0000
0000001C0000
000000000000
000000000000
ENDCHAR

STARTCHAR cns3_223F
ENCODING 8767
SWIDTH 960 0
DWIDTH 42 0
BBX 42 42 0 -6
BITMAP
000000000000
000000000000
001C00000000
001E00000000
001C00000000
001C00000000
003800000000
003800000000
007000000800
007000001C00
00FFFFFFFE00
01E007001C00
01C007001C00
038007003800
038007007000
070007000000
0E0007000000
0C0007000000
000007000000
000007000000
001C07000000
003C07018000
003C0701C000
003C0700E000
00380700E000
007807007000
007007007800
007007007800
00E007003C00
00E007003C00
01C007003E00
01C007001E00
018007001E00
038007001E00
030007000E00
000007000000
00000F000000
0001FF000000
00007E000000
00001C000000
000000000000
000000000000
ENDCHAR

STARTCHAR cns3_2240
ENCODING 8768
SWIDTH 960 0
DWIDTH 42 0
BBX 42 42 0 -6
BITMAP
000000000000
000000000000
000000000400
00E000000E00
00FFFFFFFF00
00E000000E00
00E000000E00
00E000000E00
00E000000E00
00E000000E00
00E000000E00
00E000000E00
00FFFFFFFE00
00E000000E00
00E000004E00
00E00000E000
00E7FFFFF000
00E0E000E000
00E07000E000
00E03001E000
00E03001C000
00E03803C000
00E018038000
00E01C078000
00E01C070000
00E00E070000
00E00E0E0000
00E0070E0000
00E0039C0000
01E003F80000
01E001F80000
01C000F00000
03C001F80000
038003FE0000
03800F1F0000
07001E07C000
07007803F800
0E00F001FE00
1C0380007E00
000F00001800
000000000000
000000000000
ENDCHAR

STARTCHAR cns3_2241
ENCODING 8769
SWIDTH 960 0
DWIDTH 42 0
BBX 42 42 0 -6
BITMAP
000000000000
000000000000
00E000010000
00F00E038000
00E00FFFC000
00E00E038000
00E00E038000
00E00E038000
00E00E038000
38E70E038000
3CE78E038000
38E70E038000
38E70E038000
38E70E038000
38E70E038000
38E70E038000
38E70E038000
38E70E038000
38E70C038000
38E71C038000
38E71C038000
38E71C038000
38E71C038000
38E71C038000
38E71C038000
38E71C038000
38E71C038000
38E71C038000
38E718038000
38E738038200
38E738038200
3FFF38038200
380730038200
380770038200
000060038700
0001E003C700
0001C003E780
00018001FF80
00030000FF00
000000000000
000000000000
000000000000
ENDCHAR

STARTCHAR cns3_2242
ENCODING 8770
SWIDTH 960 0
DWIDTH 42 0
BBX 42 42 0 -6
BITMAP
000000000000
000000000000
00000E000000
00000F000000
00000E000000
00000E000000
01C00E00E000
01E00E00F000
01C00E00E000
01C00E00E000
01C00E00E000
01C00E00E000
01C00E00E000
01C00E00E000
01FFFFFFE000
01C00000E000
01C00000E000
00001C000000
00001E000000
00001C000000
00001C000000
00001C000000
00001C000000
00001C000000
00001E000000
00001E000000
00003F000000
00003F000000
000073800000
0000E1C00000
0001E1E00000
0003C0F00000
000780780000
000F003E0000
001E000F8000
007C0007C000
00F00001F800
03C000007F00
1F0000003F00
380000000E00
000000000000
000000000000
ENDCHAR

STARTCHAR cns3_2243
ENCODING 8771
SWIDTH 960 0
DWIDTH 42 0
BBX 42 42 0 -6
BITMAP
000000000000
000000000000
00001C000000
00001E000000
00001C000000
01C01C00E000
01E01C00F000
01C01C00E000
01C01C00E000
01C01C00E000
01C01C00E000
01C01C00E000
01C01C00E000
01FFFFFFE000
01C00000E000
01C00000E000
00000E000000
003FFF000000
00000E000000
00000E000000
00000E000000
00000E000000
00000E000000
00001F000000
00001F000000
00003F800000
00003B800000
000079C00000
000071C00000
0000E0E00000
0001C0700000
0003C0780000
0007803C0000
000F001E0000
003C000F0000
007800078000
00F00003E000
03C00001F800
070000007E00
1C0000001E00
000000000000
000000000000
ENDCHAR

STARTCHAR cns3_2244
ENCODING 8772
SWIDTH 960 0
DWIDTH 42 0
BBX 42 42 0 -6
BITMAP
000000000000
00001C000000
00001E000000
00001C000000
01C01C00E000
01E01C00F000
01C01C00E000
01C01C00E000
01C01C00E000
01C01C00E000
01C01C00E000
01FFFFFFE000
01C00000E000
01C00000E000
000000040000
0000000E0000
0FFFFFFF0000
0000E00E0000
0000E00E0000
0000C0180000
0001C0180000
0001C0380000
0001C0300000
0001C0300800
000180701C00
0003807FFE00
000380601C00
000300001C00
000700001C00
000700001C00
000E00001C00
001E00001C00
001C00001C00
003800001C00
007000003800
00E000007800
01C000007800
07800000F000
0E00007FE000
1C000007C000
000000038000
000000000000
ENDCHAR

STARTCHAR cns3_2245
ENCODING 8773
SWIDTH 960 0
DWIDTH 42 0
BBX 42 42 0 -6
BITMAP
000000000000
000000000000
000000000000
000000040000
0000000E0000
007FFFFF0000
0000000E0000
0000000E0000
0000000E0000
0000000E0000
0000000E0000
0000000E0000
0000000E0000
0000000E0000
0000000E0000
00E0000E0000
00FFFFFE0000
00E0000E0000
00E0000E0000
00E000000000
00E000000000
00E000000000
00E000000000
00E000020000
00E000070000
00FFFFFF8000
00E000010000
00E000010000
00E000010000
00E000010000
00E000010000
00E000010000
00E000010000
00E000010000
00E000010000
00E000010000
00FFFFFF0000
00E000010000
00E000010000
000000000000
000000000000
000000000000
ENDCHAR

STARTCHAR cns3_2246
ENCODING 8774
SWIDTH 960 0
DWIDTH 42 0
BBX 42 42 0 -6
BITMAP
000000000000
006000000000
007C01800000
007801F00000
007001E00000
007001C00000
007001C00000
007001C00000
187181C00000
1C73C1C00000
1FFFE1C00000
1C71E1C00000
1C71C1C00000
1C71C1C00000
1C71C1C00000
1C71C1C00000
1C71C1C00C00
1C71C1C01E00
1C71C1FFFF00
1C71C1C00000
1C71C1C00000
1C71C1C00000
1C71C1C00000
1C71C1C00000
1C71C1C00000
1C71C1C00000
1C71C1C00000
1C71C1C00000
1C7FC1C00000
1C7381C00000
187301C00100
007001C00100
007001C00100
007001C00100
007001C00300
007001C00300
007001E00700
007001FFFF80
007000FFFF80
0070007FFF00
006000000000
000000000000
ENDCHAR

STARTCHAR cns3_2247
ENCODING 8775
SWIDTH 960 0
DWIDTH 42 0
BBX 42 42 0 -6
BITMAP
000000000000
000000000000
000007000000
000007800000
000007000000
000007000200
070007000700
07FFFFFFFF80
070000000000
070000000000
070000000400
070000000E00
073FFFFFFF00
070001C00000
070001C00000
070001C00000
070001C00000
070001C00000
070001C00000
070001C00000
070001C00000
070001C00000
070001C00000
070001C00000
070001C00000
070001C00000
070001C00000
070001C00000
070001C00000
070001C00000
0F0001C00000
0F0001C00000
0E0001C00000
1E0001C00000
1C0001C00000
1C0001C00000
180003C00000
1800FFC00000
30001F800000
300007000000
000000000000
000000000000
ENDCHAR

STARTCHAR cns3_2248
ENCODING 8776
SWIDTH 960 0
DWIDTH 42 0
BBX 42 42 0 -6
BITMAP
000000000000
000000000000
000007000000
000007800000
000007000000
000007000200
070007000700
07FFFFFFFF80
070000000000
070000000000
070000000000
070000000000
070007000000
070007800000
070007000000
070007000000
070007000000
070007000000
07000F000000
07000F000000
07000E000000
07001E000000
07801C000000
07803C000000
078038000000
078038000000
078070000000
070070060000
0700E0030000
0F00E0038000
0F01C001C000
0E01C000E000
0E0380007000
1E030001F800
1C063FFFFC00
1C7FFFC03E00
187FC0003E00
187800001E00
300000000E00
300000000000
000000000000
000000000000
ENDCHAR

STARTCHAR cns3_2249
ENCODING 8777
SWIDTH 960 0
DWIDTH 42 0
BBX 42 42 0 -6
BITMAP
000000000000
000000000000
000000E00000
000000F38000
000000E1E000
000000E0F000
000000E07000
000000E03000
000000E00000
000000E00400
000000E00E00
1FFFFFFFFF00
000000F00000
000000F00000
000000F00000
000000F00000
000000700000
000000780000
000010780000
000038780000
07FFFC780000
000000780000
000000380000
0000003C0000
0000003C0000
0000001E0000
0000001E0000
0000000E0000
0000010F0000
000003870000
3FFFFFC78200
000000038200
00000003C200
00000001C200
00000000E200
00000000F600
000000007F00
000000003F00
000000001F00
000000000E00
000000000000
000000000000
ENDCHAR

STARTCHAR cns3_224A
ENCODING 8778
SWIDTH 960 0
DWIDTH 42 0
BBX 42 42 0 -6
BITMAP
000000000000
001800000000
001F00000000
001E00000C00
001C00001E00
001C0FFFFF00
001C00000F00
001C00000E00
001C00000E00
001C00000E00
301C00000E00
181C00000E00
0C1C00000E00
0E1C00000E00
071C00000E00
071C00000E00
031C00000E00
031C00000E00
001C00000E00
001C00000E00
001C00000E00
001C07FFFE00
001C00000E00
003800000E00
003800000E00
003800000E00
003800000E00
003800000E00
003000000E00
007000000E00
007000000E00
006000000E00
00E000000E00
00C000000E00
01C000000E00
018000000E00
030000000E00
06000FFFFE00
0C0000000E00
180000000C00
300000000000
000000000000
ENDCHAR

STARTCHAR cns3_224B
ENCODING 8779
SWIDTH 960 0
DWIDTH 42 0
BBX 42 42 0 -6
BITMAP
000000000000
000000000000
007000000000
007800000200
00F000000700
01E0FFFFFF80
01C000070000
03C000070000
078000070000
070000070000
0E0E00070000
1C0F00070000
181E00070000
001E00070000
003C00070000
003800070000
007800070000
00F000070000
00E000070000
01E000070000
03E000070000
07E000070000
0EE000070000
1CE000070000
38E000070000
00E000070000
00E000070000
00E000070000
00E000070000
00E000070000
00E000070000
00E000070000
00E000070000
00E000070000
00E000070000
00E000070000
00E0000F0000
00E007FF0000
00E000FE0000
00E0003C0000
00E000000000
000000000000
ENDCHAR

STARTCHAR cns3_224C
ENCODING 8780
SWIDTH 960 0
DWIDTH 42 0
BBX 42 42 0 -6
BITMAP
000000000000
000000000000
00E000000000
00F000000200
00E000000700
00E0FFFFFF80
00E000070000
00E000070000
00E000070000
00EC00070000
0CEE00070000
0CE700070000
0CE780070000
0CE780070000
1CE380070000
1CE000070000
3CE000070000
3CE000070000
18E000070000
00E000070000
00E000070000
00E000070000
00E000070000
00E000070000
00E000070000
00E000070000
00E000070000
00E000070000
00E000070000
00E000070000
00E000070000
00E000070000
00E000070000
00E000070000
00E000070000
00E000070000
00E0000F0000
00E007FF0000
00E000FE0000
00E0003C0000
00E000000000
000000000000
ENDCHAR

STARTCHAR cns3_224D
ENCODING 8781
SWIDTH 960 0
DWIDTH 42 0
BBX 42 42 0 -6
BITMAP
000000000000
00E000700000
00F000780000
00E000700000
00E000700000
00E000700000
00E000700000
00E000700000
00E000700000
00EC00780000
06EE00780400
0EEF00780E00
0EE7BFFFFF00
0EE780780E00
1CE780780E00
3CE380780E00
3CE000F00E00
3CE000F00E00
38E000F00E00
00E000F00E00
00E000E00E00
00E000E00E00
00E001E00E00
00E001C00E00
00E001C00E00
00E001C00E00
00E003801E00
00E003801E00
00E003801C00
00E007001C00
00E007001C00
00E00E001C00
00E01E001C00
00E01C001C00
00E038003C00
00E078003800
00E0F0007800
00E0E000F000
00E1C01FE000
00E38003C000
00E000018000
000000000000
ENDCHAR

STARTCHAR cns3_224E
ENCODING 8782
SWIDTH 960 0
DWIDTH 42 0
BBX 42 42 0 -6
BITMAP
000000000000
000000000000
000000000000
00000000FC00
0000003FFE00
01C7FFFFFF80
01FFFFC00000
01C000000000
01C000001000
01C000003800
01FFFFFFFC00
01C000003800
01C000003800
01C000003800
01C000003800
01FFFFFFF800
01E000003800
01E000100000
01E000380000
01E7FFFC0000
01E000F80000
01E001F00000
01E003C00000
01C007800000
03C00F000000
03C01E000000
03C03C000000
03C078000000
03C0F0000000
0781E0001000
0783C0001000
070380001000
070700001000
070F00003000
0E0E00003000
0E1C00003800
0E1C00007800
1C1E0000F800
180FFFFFF000
1807FFFFE000
000000000000
000000000000
ENDCHAR

STARTCHAR cns3_224F
ENCODING 8783
SWIDTH 960 0
DWIDTH 42 0
BBX 42 42 0 -6
BITMAP
000000000000
000000000000
003800000000
003C00000400
003800000E00
00383FFFFF00
003800700E00
003800700E00
003800700E00
003880700E00
0039C0700E00
1FFFE0700E00
003800700E00
003800700E00
003800700E00
003800E00E00
003800E01E00
003800E01C00
003800E01C00
003980E01C00
003F01C01C00
003E01C01C00
00F801C01C00
07F801C01C00
1F3801C01C00
1E3803C03C00
0E3803803C00
003803803800
003807803800
003807003800
00380E003800
00380E003800
00381C007800
003838007800
003870007800
0038E000F000
0038C0FFF000
0FF9803FE000
01F30001C000
00E600000000
000000000000
000000000000
ENDCHAR

STARTCHAR cns3_2250
ENCODING 8784
SWIDTH 960 0
DWIDTH 42 0
BBX 42 42 0 -6
BITMAP
000000000000
000000000000
00E000000000
00F003800000
00E003C00000
00E003800000
00E003800000
00E003800000
00E003800000
00E203800000
00E703800000
3FFF83800000
00E003820000
00E003870000
00E1FFFF8000
00E003C70000
00E003C70000
00E003C70000
00E003C70000
00E603C70000
00FC07870000
00F807870000
07E007870000
0FE007870000
3EE007070000
3CE007070000
18E007070000
00E007070000
00E00E070000
00E00E070100
00E00E070100
00E01C070100
00E01C070100
00E03C070300
00E038070300
00E070070380
01E060078780
7FC0E003FF00
0F81C001FE00
030380000000
000000000000
000000000000
ENDCHAR

STARTCHAR cns3_2251
ENCODING 8785
SWIDTH 960 0
DWIDTH 42 0
BBX 42 42 0 -6
BITMAP
000000000000
000000000000
01C000000000
01E000000000
01C000000000
01C000001000
01C0E0003800
01C0FFFFFC00
01C0E0003800
01C0E0003800
01C0E0003800
01C0E0003800
01C0E0003800
01C0E0003800
01C0E0003800
01C0E0003800
01C0E0003800
01C0E0003800
01C0E0003800
01C0E0003800
01C0E0003800
01C0FFFFF800
01C0E0003800
01C0E0003800
01C0E0003800
01C0E0003800
01C0E0003800
01C0E0003800
01C0E0003800
01C0E0003800
01C0E0003800
01C0E0003800
01C0E0003800
01C0E0003800
01C0E0003800
01C0FFFFF800
01C0E0003800
01C0E0003800
01C000000000
01C000000000
01C000000000
000000000000
ENDCHAR

STARTCHAR cns3_2252
ENCODING 8786
SWIDTH 960 0
DWIDTH 42 0
BBX 42 42 0 -6
BITMAP
000000000000
00000E000000
00000F000000
00000E0E0000
00000E070000
00000E07C000
00000E03E000
00000E01F000
00000E00F000
00000E000200
00000E000700
7FFFFFFFFF80
00003F800000
00003F800000
00007FC00000
00007EC00000
0000FEC00000
0000EEE00000
0001CE600000
0001CE700000
00038E380000
00038E1C0000
00070E1C0000
000E0E0E0000
001C0E070000
003C0E078000
00780E03C000
00F00E01E000
01E00E00F000
03C00E007C00
07800E003E00
0F000E001F80
1E000E000F80
38000E000000
00000E000000
00000E000000
00000E000000
00000E000000
00000E000000
00000E000000
00000E000000
000000000000
ENDCHAR

STARTCHAR cns3_2253
ENCODING 8787
SWIDTH 960 0
DWIDTH 42 0
BBX 42 42 0 -6
BITMAP
000000000000
000000000000
000000700000
000000780000
000000700000
000000700000
000000700800
000000701C00
0000387FFE00
00003C700000
000038700000
000070701000
000060703800
0000FFFFFC00
0000E0007800
0001C0007800
000380007000
00070000F000
000F0000E000
001F8001E000
003DC001C000
0070E0038000
01E078078000
03C03C070000
07001E0E0000
00000F1E0000
0000073C0000
000000380000
000000700000
000000E00000
000003C00000
000007800000
00000E000000
00003C000000
000070000000
0001E0000000
000780000000
001E00000000
007800000000
03C000000000
000000000000
000000000000
ENDCHAR

STARTCHAR cns3_2254
ENCODING 8788
SWIDTH 960 0
DWIDTH 42 0
BBX 42 42 0 -6
BITMAP
000000000000
000000000000
000000000000
000020000000
000070000000
1FFFF8000000
0000F0700000
0000E0780000
0001E0700000
0001C0700000
0003C0700000
000380700000
000780700000
000700706000
000E0070F800
001E0379F800
001CFFFFC000
003C03FF8000
003807760000
007807770000
00F00F770000
00E00E738000
01E01E73C000
01C01C73E000
03C03C71F000
03803870F800
07807070FC00
070070707E00
0E00E0703E00
1E01C0700000
1C0180700200
3C0000F00200
38001FF00200
380003E00200
380001800600
380000000700
3C0000000F00
1FFFFFFFFE00
0FFFFFFFFC00
000000000000
000000000000
000000000000
ENDCHAR

STARTCHAR cns3_2255
ENCODING 8789
SWIDTH 960 0
DWIDTH 42 0
BBX 42 42 0 -6
BITMAP
000000000000
000018000000
06001F000000
03801E000000
01C01C000000
00E01C000000
00E01C000000
00601C000000
00001C000000
00001C000000
00041C000000
00041C000000
600C1C000000
38081C003800
1C181C00FC00
0E181C03FE00
0E301C1FC000
06301CF80000
00301F800000
00601C000000
00601C000000
00E01C000000
00C01C000000
01C01C000000
01801C000000
03801C000000
03801C000000
07001C000000
0F001C000000
7F001C000000
1E001C000000
0E001C000080
0E001C000080
07001C000180
07001C000180
07801C000300
07801E000700
07801FFFFF80
07800FFFFF80
030007FFFF00
000000000000
000000000000
ENDCHAR

STARTCHAR cns3_2256
ENCODING 8790
SWIDTH 960 0
DWIDTH 42 0
BBX 42 42 0 -6
BITMAP
000000000000
000000000000
030000010000
03C070038000
01E07FFFC000
00F070038000
007070038000
007070038000
000070038000
000070038000
000470038000
000470038000
000870038000
380870038000
1E1870038000
0F1070038000
079070038000
07B070038000
03A070038000
002060038000
006060038000
0060E0038000
00C0E0038000
00C0E0038000
00C0E0038000
0180E0038000
0180E0038000
0380E0038000
0780C0038000
1781C0038000
0F81C0038000
0781C0038200
078180038200
078380038200
078300038600
078700038700
07860003C700
078C0001FE00
071C0000FC00
001800000000
000000000000
000000000000
ENDCHAR

STARTCHAR cns3_2257
ENCODING 8791
SWIDTH 960 0
DWIDTH 42 0
BBX 42 42 0 -6
BITMAP
000000000000
000000000000
00000E000000
00000F000000
00000E000000
00000E000000
01E00E000000
00700E000000
003C0E000000
001E0F000000
001E0F800000
000E0FC01800
00000FC03C00
00000EC07E00
00000EE0F800
00038EE1E000
7FFF8E638000
0003CE7F0000
00078E3E0000
00070E380000
000F0E380000
000E0E1C0000
001E0E1C0000
001C0E0E0000
00380E0F0000
00700E070000
00700E078000
00E00E03C000
01C00E01E000
03800E01F000
07800E00FC00
0F000E007E00
1E000E003F80
3C000E001F80
70000E000F00
00001E000000
001FFE000000
0003FC000000
0000F8000000
000030000000
000000000000
000000000000
ENDCHAR

STARTCHAR cns3_2258
ENCODING 8792
SWIDTH 960 0
DWIDTH 42 0
BBX 42 42 0 -6
BITMAP
000000000000
000000000000
030001C00000
03C001E00000
01E001C00000
01F001C00000
00F001C00000
007001C00000
000001C00000
000001C00000
000401C00000
000C01C00000
000801C00000
380801E00000
1E1803E00000
0F1003F00000
0F9003F00000
07B003F00000
032003B00000
006003B00000
006007B80000
004007380000
00C0071C0000
00C00F1C0000
00800E1C0000
01800E0E0000
01801E0F0000
03801C070000
0F803C078000
1F803803C000
0F807803C000
0780F001E000
0780F000F000
0781E000F800
0783C0007E00
078380003F00
078700001F00
078E00001F00
079C00000E00
03B000000000
000000000000
000000000000
ENDCHAR

STARTCHAR cns3_2259
ENCODING 8793
SWIDTH 960 0
DWIDTH 42 0
BBX 42 42 0 -6
BITMAP
000000000000
000000000000
070000000000
038000000000
03C000000200
01E000000700
00E3FFFFFF80
006307000000
000006000000
00000E000000
00080E000000
00080C000000
20181C000000
38101C000000
1C1018000000
1E3038000000
0F2038000800
076030001C00
07603FFFFE00
004070001C00
00C070001C00
00C060001C00
008000003C00
018000003C00
018000003C00
038000003C00
030000003C00
070000003800
1F0000003800
3F0000007800
1F0000007800
0F0000007000
0F0000007000
070000007000
070000007000
07800000F000
07800001E000
078000FFE000
0780001FC000
0700000E0000
000000000000
000000000000
ENDCHAR

STARTCHAR cns3_225A
ENCODING 8794
SWIDTH 960 0
DWIDTH 42 0
BBX 42 42 0 -6
BITMAP
000000000000
000000000000
000000000000
000003800000
000083C00000
0001C3800000
3FFFE3800000
00E003800000
00E003800000
00E003800000
00E003800000
00E003800000
00E003800000
00E003800000
00E003800000
00E003800000
00E103800000
00E383800000
1FFFC3800000
00E003800000
00E003800000
00E003800000
00E003800000
00E003800000
00E003800000
00E003800000
00E003800000
00E063800000
00E1C3800000
00EF03800000
00FC03800200
03F003800200
0FC003800200
3F0003800200
3C0003800200
380003800300
000003800700
000003C00700
000001FFFF00
000000FFFE00
000000000000
000000000000
ENDCHAR

STARTCHAR cns3_225B
ENCODING 8795
SWIDTH 960 0
DWIDTH 42 0
BBX 42 42 0 -6
BITMAP
000000000000
000000000000
000003800000
000003C00000
000003800000
000003800000
000003800200
00E003800700
00FFFFFFFF80
00E000000000
30E000000000
38E000000000
1CE000000000
1CE000000000
1EE000000000
0EE000000000
0EE000000000
0EE000000000
00E000000000
00E000000000
00E000000000
00E000000000
01E000000000
07E000000000
1EE000000000
38E000000000
38E000000000
19E000000000
01E000000000
01C000000000
03C000000000
038000000000
038000000000
070000000000
070000000000
0E0000000000
0E0000000000
1C0000000000
180000000000
300000000000
600000000000
000000000000
ENDCHAR

STARTCHAR cns3_225C
ENCODING 8796
SWIDTH 960 0
DWIDTH 42 0
BBX 42 42 0 -6
BITMAP
000000000000
000000000000
000000000000
000000000000
000000000000
000004000000
00000E038000
0FFFFF03C000
00001E078000
00003A0F0000
01C03B1E0000
00F071BC1C00
0078E0F03E00
007CE0707C00
003DC078F000
001FC03DE000
0007801F8000
000F000F0000
001E0007C000
003C0001E000
00780000F800
00E000007F00
03C000001F00
070000000F00
1C0000000000
000000000000
000000000000
000000000000
000000000000
000000000000
000000000000
000000000000
000000000000
000000000000
000000000000
000000000000
000000000000
000000000000
000000000000
000000000000
000000000000
000000000000
ENDCHAR

STARTCHAR cns3_225D
ENCODING 8797
SWIDTH 960 0
DWIDTH 42 0
BBX 42 42 0 -6
BITMAP
000000000000
000000000800
000000E01C00
000020FFFE00
000070E01E00
0FFFF8E01E00
000070E01C00
000070E03800
000070E03800
0000F0E07000
0000E0E07000
0000E0E06000
0600E0E0E000
0301E0E0C000
0381C0E1C000
01C1C0E18000
00E1C0E1C000
00F1C0E1C000
007B80E0E000
003F80E07000
001F80E07000
000F00E03800
000700E03800
000780E01C00
000F80E01C00
000FC0E00C00
001DC0E00E00
001DE0E00E00
0039E0E01E00
0038F0E01E00
0070F0E01E00
00E0F8E03C00
00E078E7FC00
01C078E0F800
038038E07800
070038E00800
0E0000E00000
1C0000E00000
000000E00000
000000E00000
000000000000
000000000000
ENDCHAR

STARTCHAR cns3_225E
ENCODING 8798
SWIDTH 960 0
DWIDTH 42 0
BBX 42 42 0 -6
BITMAP
000000000000
000000000000
000000700E00
0000027FFF00
000007700E00
1FFFFFF00E00
000380700E00
000380701C00
000380701C00
000380703800
000380703800
000380703000
000380707000
000380706000
00038070E000
00038070C000
00038070C000
00038070E000
000380707000
000380703800
000380703800
000380701C00
000380701C00
000380700E00
000380700E00
000380700600
000380700600
000380700600
000380700600
000380700700
000380700F00
000380701F00
00038071FF00
000380703E00
000380700C00
000380700000
000780700000
01FF80700000
003F00700000
000E00700000
000000000000
000000000000
ENDCHAR

STARTCHAR cns3_225F
ENCODING 8799
SWIDTH 960 0
DWIDTH 42 0
BBX 42 42 0 -6
BITMAP
000000000000
000000000000
000020380200
00E0703FFF80
00FFF8380700
00E070380700
00E070380E00
00E070380E00
00E070381E00
00E070381C00
00E070381C00
00E070383800
00E070383800
00E070383000
00E070387000
00E070386000
00E070386000
00E070387000
00E070383800
00C070381800
00C070381C00
01C070380C00
01C070380E00
01C070380600
01C070380700
01C070380700
01C070380700
01C070380700
01C070380700
018071380700
038071380700
038071381E00
03007138FE00
070071381C00
060073380000
0E0073B80000
0C007BB80000
18007F380000
38003E380000
300000380000
000000000000
000000000000
ENDCHAR

STARTCHAR cns3_2260
ENCODING 8800
SWIDTH 960 0
DWIDTH 42 0
BBX 42 42 0 -6
BITMAP
000000000000
000200000000
0E0700000000
0FFF80000400
0E0700000E00
0E077FFFFF00
0E07000E0000
0E0E000E0000
0E0E000E0000
0E1C000E0000
0E1C000E0000
0E18000E0000
0E18000E0000
0E30000E0000
0E30000E0000
0E38000E0000
0E1C000E0000
0E1C000E0000
0E0E000E0000
0E0E000E0000
0E07000E0000
0E07000E0000
0E07000E0000
0E07800E0000
0E03800E0000
0E03800E0000
0E07800E0000
0E07800E0000
0E7F000E0000
0E1E000E0000
0E0C000E0000
0E00000E0000
0E00000E0000
0E00000E0000
0E00000E0000
0E00000E0000
0E00001E0000
0E0007FE0000
0E00007C0000
0E0000180000
0E0000000000
000000000000
ENDCHAR

STARTCHAR cns3_2261
ENCODING 8801
SWIDTH 960 0
DWIDTH 42 0
BBX 42 42 0 -6
BITMAP
000000000000
000000000000
000000000200
000000000700
3FFFFFFFFF80
00000E000000
00000E000000
00000E000000
00000E000000
00000E000000
00000E000400
07000E000E00
07FFFFFFFF00
07000E000E00
07000E000E00
07000E000E00
07000E000E00
07000E000E00
070E0E0E0E00
070F0E0F0E00
070E0E0E0E00
070E0E0E0E00
070E0E0E0E00
070E0E0E0E00
070E0E0E0E00
070E0E0E0E00
070E0E0E0E00
070E0E0E0E00
070FFFFE0E00
070E000E0E00
070E000E0E00
070000000E00
070000000E00
070000000E00
070000000E00
070000001E00
0700001FFE00
07000001FE00
070000007C00
070000001800
070000000000
000000000000
ENDCHAR

STARTCHAR cns3_2262
ENCODING 8802
SWIDTH 960 0
DWIDTH 42 0
BBX 42 42 0 -6
BITMAP
000000000000
000000000000
0001C0700000
0001E0780000
0001C0700000
0001C0700000
0001C0700000
0001C0700000
0001C0700000
0001C0700000
0001C0700600
0001C0700F00
0001C0701F00
0001C0703C00
0FFFC0707800
0001C070F000
0001C071E000
0001C0738000
0001C07F0000
0001C07C0000
0001C0700000
0001C0700000
0001C0700000
0001C0700000
0007C0700200
001FC0700200
0079C0700200
03E1C0700300
1F81C0780300
1E01C0780700
1C01C03FFF00
1801C01FFE00
0003C0000000
000380000000
000000000000
000000000000
000000000200
000000000700
3FFFFFFFFF80
000000000000
000000000000
000000000000
ENDCHAR

STARTCHAR cns3_2263
ENCODING 8803
SWIDTH 960 0
DWIDTH 42 0
BBX 42 42 0 -6
BITMAP
000000000000
000000000000
00000003E000
0000001FE000
000007FF0000
0001FFF80000
01FFEE000000
00000E000000
00000E000000
00000E000000
00000E000000
00000E002000
00000E007000
01FFFFFFF800
00000E000000
00000E000000
00000E000000
00000E000000
00000E000000
00000E000000
00000E000200
00000E000700
7FFFFFFFFF80
00003E000000
00007C000000
000078000000
0000F8000000
0000F00C0000
0001E00E0000
0001C0070000
0003C0078000
00038003C000
00070001E000
00070000F000
000E007FF800
001FFFF07C00
0FFFFE003C00
0FFE00003C00
0F0000001C00
0E0000000C00
000000000000
000000000000
ENDCHAR

STARTCHAR cns3_2264
ENCODING 8804
SWIDTH 960 0
DWIDTH 42 0
BBX 42 42 0 -6
BITMAP
000000000000
000000000000
003800000000
003C00380000
0038003C0000
007800380000
007000380000
007000380000
007000380000
00E000380000
00E030380000
01C030380000
01C038380000
01801C380000
03800E380000
03001F380000
0707FF380000
3FFF07B80000
3F0007B80000
380000380000
000000380000
000000380000
000008380000
0E001C380000
0FFFFE380000
0E001C380000
0E001C380000
0E001C380000
0E001C380000
0E001C380000
0E001C380100
0E001C380100
0E001C380100
0E001C380100
0E001C380100
0E001C380300
0FFFFC380380
0E001C3C0780
0E001C3FFF00
0000000FFE00
000000000000
000000000000
ENDCHAR

STARTCHAR cns3_2265
ENCODING 8805
SWIDTH 960 0
DWIDTH 42 0
BBX 42 42 0 -6
BITMAP
000000000000
000000000000
0001C0000000
0001C0080000
0003801C0000
0007FFFE0000
0007007C0000
000E00F80000
001C00F00000
007801E00000
00E003C00000
000003804000
00000700E000
03FFFFFFF000
00001C00E000
00001C00E000
00001C00E000
00001C00E000
00001C00E200
00001C00E700
7FFFFFFFFF80
00001C00E000
00001C00E000
00001C00E000
00001C00E000
00001C00E000
00001C00E000
07FFFFFFE000
00001C00E000
00001C000000
00001C000000
00001C000000
00001C000000
00001C000000
00001C000000
00001C000000
00001C000000
0007FC000000
0001F8000000
000030000000
000000000000
000000000000
ENDCHAR

STARTCHAR cns3_2266
ENCODING 8806
SWIDTH 960 0
DWIDTH 42 0
BBX 42 42 0 -6
BITMAP
000000000000
000000000000
000000000000
000000002000
000000007000
03FFFFFFF800
000000000000
000000000000
000000000000
000000000000
000000010000
007000038000
007FFFFFC000
007000038000
007000038000
007000038000
007000038000
007000038000
007000038000
007000038000
007FFFFF8000
007000038000
007000038000
007000038000
007000038000
007000038000
007000038000
007000038000
007000038000
007FFFFF8000
007000038000
007000038000
000000000000
000000000000
000000000000
000000000000
000000000200
000000000700
7FFFFFFFFF80
000000000000
000000000000
000000000000
ENDCHAR

STARTCHAR cns3_2267
ENCODING 8807
SWIDTH 960 0
DWIDTH 42 0
BBX 42 42 0 -6
BITMAP
000000000000
000000000000
000E00700000
001F00780000
001E00700000
003C00700000
003C00707000
00780070F800
00780073F800
00F0007F8000
00F003FE0000
01E0FFF00000
01E000700000
03F000700000
03F800700000
07F000700800
06E000701C00
0CE0FFFFFE00
1CE000700000
18E000700000
30E000700000
20E000700000
00E000700000
00E000700000
00E000700200
00E000700700
00E3FFFFFF80
00E000700000
00E000700000
00E000700000
00E000700000
00E000700000
00E000700000
00E000700000
00E000700000
00E000700000
00E000700000
00E000700000
00E000700000
00E000700000
00E000700000
000000000000
ENDCHAR

STARTCHAR cns3_2268
ENCODING 8808
SWIDTH 960 0
DWIDTH 42 0
BBX 42 42 0 -6
BITMAP
000000000000
000000000000
000E001C0000
001F001E0000
001E001C0000
003C00180000
003C00180000
007800180000
007800180000
00F00618E000
00F00F187000
01E00F183800
01E00E183C00
03F01E181E00
03F81C180F00
07F01C180780
06E038180780
0CE038180380
1CE070180000
18E070180000
30E060181E00
00E0E0183E00
00E0C0187800
00E0C018F000
00E00FF8F000
00E001F1E000
00E00063E000
00E00003C000
00E000078000
00E0000F0000
00E0000E0000
00E0001C0000
00E000780000
00E000F00000
00E003E00000
00E007800000
00E01F000000
00E07C000000
00E3E0000000
00E300000000
00E000000000
000000000000
ENDCHAR

STARTCHAR cns3_2269
ENCODING 8809
SWIDTH 960 0
DWIDTH 42 0
BBX 42 42 0 -6
BITMAP
000000000000
000000080000
000F001C0000
001F03FE0000
001E001C0000
003C001C0000
003C001C0000
0078001C0000
0078001C0000
00F0001C0200
00F0701C0700
01E07FFFFF80
01E0701E0700
03F0701E0700
03F8701E0700
07F0703E0700
06E0703B0700
0CE0703B0700
1CE0703B0700
18E0707B8700
30E0707B8700
00E070F1C700
00E070F1C700
00E070E1E700
00E071C0F700
00E071C07F00
00E073807F00
00E077002700
00E07E000700
00E07C000700
00E078000700
00E070000700
00E070000700
00E070000700
00E070000700
00E070000700
00E070000F00
00E07003FE00
00E070007C00
00E070001800
00E000000000
000000000000
ENDCHAR

STARTCHAR cns3_226A
ENCODING 8810
SWIDTH 960 0
DWIDTH 42 0
BBX 42 42 0 -6
BITMAP
000000000000
000000000000
000F0001C000
001F003DE000
001E007DC000
003C01F1C000
003C03E1C000
007807C1C000
00781F01C000
00F03F01C000
00F0F701C000
01E0C701C000
01E00701C000
03F00701C000
03F80701C000
07F00701C000
06E00701C000
0CE00701C200
1CE00701C700
18E1FFFFFF80
30E00781C000
00E00781C000
00E00781C000
00E00F01C000
00E00F01C000
00E00F01C000
00E00F01C000
00E00E01C000
00E00E01C000
00E01E01C000
00E01C01C000
00E03C01C000
00E03C01C000
00E07801C000
00E07001C000
00E0F001C000
00E1E001C000
00E3C001C000
00E78001C000
00EE0001C000
00FC0001C000
000000000000
ENDCHAR

STARTCHAR cns3_226B
ENCODING 8811
SWIDTH 960 0
DWIDTH 42 0
BBX 42 42 0 -6
BITMAP
000000000000
000000000000
000F00000000
001F0001E000
001E0007E000
003C001F8000
003C007E0000
007807F00000
0078FFF00000
00F038F00000
00F000F00000
01E000F00000
01E000F00000
03F800E00000
03F800E00000
07F000E00000
06E000E00800
0CE000E01C00
1CE7FFFFFE00
18E000F80000
30E000F80000
00E001F80000
00E001FC0000
00E001DC0000
00E001DC0000
00E003CE0000
00E003CE0000
00E0038F0000
00E007870000
00E007078000
00E00F038000
00E00E03C000
00E01E01E000
00E01C00F000
00E03C00F800
00E078007C00
00E0F0003F00
00E1E0001F00
00E780001C00
00FE00000000
00E000000000
000000000000
ENDCHAR

STARTCHAR cns3_226C
ENCODING 8812
SWIDTH 960 0
DWIDTH 42 0
BBX 42 42 0 -6
BITMAP
000000000000
000000000000
000F00000000
001F0E000000
001E0F000000
003C0E000000
003C0C000000
00780C000000
00781C000000
00F018000400
00F038000E00
01E03FFFFF00
01E07CE3C600
03F071C38600
03F8F1C38E00
07F0E1C38E00
06E1C3C38E00
0CE183878E00
1CE303870E00
18E607070E00
30E007070E00
00E00F0E0E00
00E00E0E0E00
00E01E0E0E00
00E03C1C0C00
00E0781C1A00
00E0F0381C00
00E1E0781C00
00E3C0701C00
00E780F01C00
00EE01E01C00
00EC01C01C00
00E003803C00
00E007003800
00E00E007800
00E01C007000
00E03800F000
00E0703FE000
00E0C007C000
00E000030000
00E000000000
000000000000
ENDCHAR

STARTCHAR cns3_226D
ENCODING 8813
SWIDTH 960 0
DWIDTH 42 0
BBX 42 42 0 -6
BITMAP
000000000000
000E00000000
000F00001000
001E00003800
001C7FFFFC00
003C00007800
003C0000F800
00780001E000
00780003C000
00F0038F0000
00F001FE0000
01E001F80000
01F000F80000
03F8007C0000
03F0003C0000
07E0003C0200
0EE000000700
0CE0FFFFFF80
1CE000380700
38E000380F00
30E000381E00
00E000383C00
00E000383800
00E000387000
00E000380000
00E000380000
00E000380000
00E000380000
00E000380000
00E000380000
00E000380000
00E000380000
00E000380000
00E000380000
00E000380000
00E000380000
00E000380000
00E000780000
00E007F80000
00E001F00000
00E000E00000
000000000000
ENDCHAR

STARTCHAR cns3_226E
ENCODING 8814
SWIDTH 960 0
DWIDTH 42 0
BBX 42 42 0 -6
BITMAP
000000000000
000000000000
000E00000000
001F00000000
001E00000000
003C00000800
003C00001C00
0079FFFFFE00
007800700000
00F000700000
00F000700000
01E000700000
01E000700000
03F000700000
03F800700000
07F000700000
06E000700000
0CE000700000
1CE000701000
18E000703800
30E07FFFFC00
00E000700000
00E000700000
00E000700000
00E000700000
00E000700000
00E000700000
00E000700000
00E000700000
00E000700000
00E000700000
00E000700000
00E000700000
00E000700000
00E000700200
00E000700700
00E7FFFFFF80
00E000000000
00E000000000
00E000000000
00E000000000
000000000000
ENDCHAR

STARTCHAR cns3_226F
ENCODING 8815
SWIDTH 960 0
DWIDTH 42 0
BBX 42 42 0 -6
BITMAP
000000000000
000000000000
000F00000000
001F00000200
001E38000700
003C3FFFFF80
003C38000000
007838000000
007838000000
00F038000000
00F038000000
01E038000000
01E038000000
03F038001000
03F838003800
07F03FFFFC00
0EE03B007800
0CE03B007800
1CE03B807800
38E03B807000
30E03B80F000
20E03980F000
00E031C0E000
00E071C1E000
00E070E1C000
00E070E1C000
00E070738000
00E070738000
00E0E03F0000
00E0E03F0000
00E1E01E0000
00E1C01E0000
00E1C03F0000
00E3807F8000
00E381F3C000
00E703C1E000
00EE0780F800
00EE1F007E00
00FC7C001F00
00F8F0000F00
00F0C0000000
000000000000
ENDCHAR

STARTCHAR cns3_2270
ENCODING 8816
SWIDTH 960 0
DWIDTH 42 0
BBX 42 42 0 -6
BITMAP
000000000000
000000000000
000F03800000
001F03C00000
001E03800000
003C03800000
003C03800000
007803800000
007803800400
00F003800E00
00F7FFFFFF00
01E003800000
01E003800000
03F003800000
03F807800000
07F007000000
0EE007002000
0CE007007000
1CE00FFFF800
38E00E003000
30E00E007000
00E00F007000
00E00F80F000
00E00F80E000
00E01CC1E000
00E01CE1C000
00E01CE1C000
00E038738000
00E0387F8000
00E0703F0000
00E0703F0000
00E0E01E0000
00E0E03F0000
00E1C07F8000
00E180F3E000
00E381E1F000
00E703C0FC00
00E607007F80
00EC1E001F80
00E038000700
00E060000000
000000000000
ENDCHAR

STARTCHAR cns3_2271
ENCODING 8817
SWIDTH 960 0
DWIDTH 42 0
BBX 42 42 0 -6
BITMAP
000000000000
000000000000
000E1C000000
001F1E000000
001E3C000000
003C3C000000
003C38001000
007878003800
00787FFFFC00
00F0F0000000
00F0F0000000
01E1E0000000
01E1C0004000
03F38000E000
03FB1FFFF000
07F700000000
0EE000000000
0CE000000000
1CE000010000
38E000038000
30E3FFFFC000
00E000038000
00E000038000
00E000038000
00E000038000
00E000038000
00E00003C000
00E00001C000
00E00001C000
00E00001C000
00E00001E100
00E00000E100
00E00000E100
00E000007300
00E000007300
00E000003B00
00E000003F80
00E000001F80
00E000000F00
00E000000600
00E000000000
000000000000
ENDCHAR

STARTCHAR cns3_2272
ENCODING 8818
SWIDTH 960 0
DWIDTH 42 0
BBX 42 42 0 -6
BITMAP
000000000000
000000000000
000F03800000
001F03C00000
001E07800000
003C07800000
003C06000000
00780E000000
00780C000200
00F01C000700
00F01FFFFF80
01E03C000700
01E038000700
03F070000700
03F870000700
07F0E0000700
06E0C00C0700
0CE1800E0700
1CE01FFF8E00
18E000000E00
30E000000E00
20E000000E00
00E000000E00
00E000000E00
00E000018E00
00E000070E00
00E0001E0E00
00E000780E00
00E003E00E00
00E00FC01C00
00E03F001C00
00E03C001C00
00E038001C00
00E030001C00
00E000003C00
00E000003800
00E000007800
00E0003FF000
00E00003E000
00E00001C000
00E000000000
000000000000
ENDCHAR

STARTCHAR cns3_2273
ENCODING 8819
SWIDTH 960 0
DWIDTH 42 0
BBX 42 42 0 -6
BITMAP
000000000000
000000000000
000F03800000
001F03C00000
001E03800000
003C03810000
003C03838000
0079FFFF8000
007803C3C000
00F003C38000
00F007838000
01E007838000
01E007038000
03F00F038100
03F80F038100
07F00E038100
0EE01E038100
0CE01C038300
1CE038E38380
38E070F3C380
30E0E0E3FF00
00E1C0E1FE00
00E380E00000
00EF00E00000
00EC00E00000
00E000E00400
00E000E00600
00E7FFFFFF00
00E000E00000
00E000E00000
00E000E00000
00E000E00000
00E000E00000
00E000E00000
00E000E00000
00E000E00000
00E000E00000
00E000E00000
00E000E00000
00E000E00000
00E000E00000
000000000000
ENDCHAR

STARTCHAR cns3_2274
ENCODING 8820
SWIDTH 960 0
DWIDTH 42 0
BBX 42 42 0 -6
BITMAP
000000000000
000000000000
000E00000000
001F00020000
001E0E070000
003C0FFF8000
003C0E070000
00780E070000
00780E070000
00F00E070200
00F00E070200
01E01E070200
01E01C070300
03F01C070700
03F838078780
07F03007FF80
06E06003FF00
0CE0C0000000
1CE180000000
18E100000000
30E000004000
00E00000E000
00E3FFFFF000
00E01C01E000
00E00C01E000
00E00E03C000
00E00E07C000
00E007078000
00E0030F0000
00E0039E0000
00E001FE0000
00E000FC0000
00E000780000
00E001FC0000
00E003FF0000
00E0078F8000
00E01F03F800
00E03C00FF80
00E0F0003F00
00E780000C00
00E000000000
000000000000
ENDCHAR

STARTCHAR cns3_2275
ENCODING 8821
SWIDTH 960 0
DWIDTH 42 0
BBX 42 42 0 -6
BITMAP
000000000000
000000000000
00000C000000
00000F000000
00001E000000
00003E000000
00007B000000
0000F3800000
0001E1C00000
0003C0E00000
000780780000
000F003C0000
001E001F0000
003C000FC000
00780003E000
01E00001FC00
03C000047F00
0700000E3F00
1C3FFFFF0E00
300000000000
000000000000
000000000000
000000000000
000000004000
00000000E000
03FFFFFFF000
000070000000
0000F0000000
0000E0000000
0001E00C0000
0001C00E0000
0003C0070000
000380078000
000780038000
00070001C000
000E000FE000
000EFFFCF000
007FFF00F000
007FC000F000
007800007000
006000000000
000000000000
ENDCHAR

STARTCHAR cns3_2276
ENCODING 8822
SWIDTH 960 0
DWIDTH 42 0
BBX 42 42 0 -6
BITMAP
000000000000
000000000000
00001C000000
00001F000000
00003E000000
00003E000000
00007F000000
0000F3800000
0001E1C00000
0003C0E00000
000780700000
000F003C0000
001E001E0000
003C000F8000
00780007E000
00E00001F800
03C000007F00
070000023F00
1E1C00070E00
381FFFFF8000
001C00000000
001C00000000
001C00000000
001C00000000
001C00000000
001C00000000
001C00000000
001C00020000
001C00070000
001FFFFF8000
001C00000000
001C00000000
001C00000000
001C00000000
001C00000000
001C00010000
001C00038000
001FFFFFC000
001C00000000
001C00000000
000000000000
000000000000
ENDCHAR

STARTCHAR cns3_2277
ENCODING 8823
SWIDTH 960 0
DWIDTH 42 0
BBX 42 42 0 -6
BITMAP
000000000000
000000000000
00001C000000
00001E000000
00001C000000
00001C000000
00001C000000
00001C000000
00001C000000
00003C000000
00003F000000
00007B800000
0000F1C00000
0000E0E00000
0001C0780000
0007803C0000
000F001F0000
001E000F8000
00780003E000
01E00000FE00
07C000003F80
1F0000001E00
3038000E0000
003C000F0000
0038000E0000
0038000E0000
0038000E0000
0038000E0000
0038001E0000
007E001F0000
0077001F0000
0077801F8000
00E3C0398000
00E1E039C000
01C1F071E000
03C0F0F0F000
078079E07C00
0F007BC03F00
1C003F001F00
38000E000E00
000000000000
000000000000
ENDCHAR

STARTCHAR cns3_2278
ENCODING 8824
SWIDTH 960 0
DWIDTH 42 0
BBX 42 42 0 -6
BITMAP
000000000000
000000100000
000000380000
00001FFC0000
001C00180000
001E000C0000
001C000C0000
003C00060000
003800070000
007000038000
00F06003C000
01E0F001E000
01C0E000F800
0380E0007E00
0701E0383F80
0E01C01C0F80
1C03800E0600
300380078000
00030003C000
000700FFE000
000FFFF1F000
007FC1C0F000
01F1C1C07000
01C1C1C00000
000381C00000
000381C00000
000381C00000
000381C00000
000381C00000
000301C00400
000701C00400
000701C00400
000E01C00400
001E01C00C00
003C01C00E00
007801E00E00
00F001F01E00
01C000FFFC00
0780007FF800
1E0000000000
180000000000
000000000000
ENDCHAR

STARTCHAR cns3_2279
ENCODING 8825
SWIDTH 960 0
DWIDTH 42 0
BBX 42 42 0 -6
BITMAP
000000000000
000000000000
000070000000
0000F8000000
00007C000000
00001E000000
00003F000000
00007F800000
0000F3C00000
0001E1E00000
0003C0F00000
0007807C0000
000F003E0000
001C001F8000
0078000FE000
00F00003F800
01C00000FF00
078000003F00
1E0000011F00
387000038000
007FFFFFC000
007000038000
007000038000
007000038000
007000038000
007000038000
007000038000
007000038000
007FFFFF8000
007000038000
007000038000
007000038000
007000038000
007000038000
007000038000
007000038000
007000038000
007FFFFF8000
007000038000
007000038000
000000000000
000000000000
ENDCHAR

STARTCHAR cns3_227A
ENCODING 8826
SWIDTH 960 0
DWIDTH 42 0
BBX 42 42 0 -6
BITMAP
000000000000
000000000000
000000001000
000000003800
07FFFFFFFC00
00000E000000
00000E000000
00000E000000
00000E000000
00000E004000
00000E00E000
01FFFFFFF000
00000E000000
00000E000000
00000E000000
00000E000000
00000E000400
00000E000E00
3FFFFFFFFF00
000000000000
000000100000
000000380000
00001FFC0000
000E00180000
001F001C0000
001E000C0000
001C000E0000
001C000E0000
003800070000
003800070000
007000038000
00700003C000
00E00001C000
01C00000F000
03800000F800
038000007E00
070000003F00
0E0000001F00
1C0000000F00
380000000600
000000000000
000000000000
ENDCHAR

STARTCHAR cns3_227B
ENCODING 8827
SWIDTH 960 0
DWIDTH 42 0
BBX 42 42 0 -6
BITMAP
000000000000
000000000000
000000000200
000000000700
3FFFFFFFFF80
00000E000000
00000E000000
00000E000000
00000E000000
00000E002000
00E00E007000
00FFFFFFF800
00E00E007000
00E00E007000
00E00E007000
00E00E007000
00E00E007200
00E00E007700
3FFFFFFFFF80
00E00E007000
00E00E007000
00E00E007000
00E00E007000
00E00E007000
00E00E007000
00E00E007200
00E00E007700
7FFFFFFFFF80
00E000007000
00E000007000
00E000007000
00E000007000
00E000007000
00E000007000
00E000007000
00E000007000
00E00000F000
00E0001FF000
00E00003F000
00E00000E000
00E000000000
000000000000
ENDCHAR

STARTCHAR cns3_227C
ENCODING 8828
SWIDTH 960 0
DWIDTH 42 0
BBX 42 42 0 -6
BITMAP
000000000000
000000000000
000000000800
000000001C00
1C01FFFFFE00
0F0000070000
078000070000
078060070000
03C078070000
01C078070000
000070070000
001860070000
0018E0070000
0030C0070000
0030C0070000
0070C0070200
0060C0070700
00E1FFFFFF80
00C1801F0000
01C1801F0000
01C1803F0000
0380007F0000
038000F70000
070000E70000
0F0001C70000
3F0003870000
0E0007070000
0E000E070000
0E003C070000
070078070000
0700E0070000
0703C0070000
070700070000
0F1C00070000
0F3000070000
070000070000
0000000F0000
000001FF0000
0000003E0000
0000001C0000
000000000000
000000000000
ENDCHAR

STARTCHAR cns3_227D
ENCODING 8829
SWIDTH 960 0
DWIDTH 42 0
BBX 42 42 0 -6
BITMAP
000000000000
000001C00000
000001E00000
000001C00000
1C0001C00000
0E0001C00000
078001C00000
078001C00000
038001C02000
018001C07000
0001FFFFF800
001801E07000
001801E07000
003001E07000
003001E07000
006001E07000
006001E07000
00E001E07000
00C001E07000
01C001E07000
018001E07200
038001E07700
0387FFFFFF80
070003F00000
0F0003F00000
3F0003F80000
1E0007F80000
0E0007B80000
0E00079C0000
06000F1C0000
07000E0E0000
07001E0F0000
0F001C078000
0F003803C000
0F007803E000
0700F001F000
0001E000F800
0003C0007F00
000700003F00
000E00000F00
001800000600
000000000000
ENDCHAR

STARTCHAR cns3_227E
ENCODING 8830
SWIDTH 960 0
DWIDTH 42 0
BBX 42 42 0 -6
BITMAP
000000000000
000000000000
000000380000
0000003C0000
1C0000380000
0F0000380000
078000380000
078000380000
03C000380000
01C000380200
0000E0380700
0018FFFFFF80
0018E0380700
0030E0380700
0030E0380700
0070E0380700
0060E0380700
00E0E0380700
00C0E0380700
01C0E0380700
01C0E0380700
0380E0380700
0380E0380700
0700E0380700
0F00FFFFFF00
3F00E0380700
0E00E0380700
0E0000380000
0E0000380000
070000380000
070000380000
070000380000
070000380000
0F0000380000
0F0000380000
070000380000
000000380000
000000380000
000000380000
000000380000
000000380000
000000000000
ENDCHAR

STARTCHAR cns3_2321
ENCODING 8993
SWIDTH 960 0
DWIDTH 42 0
BBX 42 42 0 -6
BITMAP
000000000000
000000000000
000000000000
00000001E000
1C000007E000
0F00003F8000
078000FC0000
07C00FE00000
03C1FFE00000
01C0F1E00000
000001E00000
001801E00000
001801E00000
003001C00000
003001C00000
007001C00000
006001C00800
00E001C01C00
00CFFFFFFE00
01C001F00000
01C001F00000
038003F00000
038003F80000
070003B80000
0F0003B80000
3F00079C0000
0F00071C0000
0E00070E0000
0E000F0E0000
07000E0F0000
07001E078000
07001C03C000
07003C03E000
07007801F000
0700F000F800
0701E0007C00
0003C0003F00
000780001F00
001E00000C00
003800000000
000000000000
000000000000
ENDCHAR

STARTCHAR cns3_2322
ENCODING 8994
SWIDTH 960 0
DWIDTH 42 0
BBX 42 42 0 -6
BITMAP
000000000000
000000002000
01C000007000
01FFFFFFF800
01C000007000
01C000007000
01C000007000
01C000007000
01C000107000
01C000387000
01C3FFFC7000
01C000007000
01C000007000
01C000007000
01C000007000
01C000007000
01C000007000
01C000047000
01C0000E7000
01C7FFFF7000
01C00E007000
03C00E007000
03C00E007000
03C01C007000
03C01C007000
038018007800
038038003800
078038703800
078030303800
070070383C00
0F00701C3D00
0F00600E1D00
0E00600F1D00
0E00C1FF1D00
1E00FFC78F80
1C0FFC078F80
1C0F80038F00
380F00018600
300C00000000
300000000000
000000000000
000000000000
ENDCHAR

STARTCHAR cns3_2323
ENCODING 8995
SWIDTH 960 0
DWIDTH 42 0
BBX 42 42 0 -6
BITMAP
000000000000
000000000000
00000E000000
00000F000000
00000E000000
00000E000000
00000E020000
00000E070000
007FFFFF8000
000000000000
000000001C00
1C0000701E00
1E0000F81C00
1C0000F01C00
1C0000E01C00
1C0381E01C00
1C01E1C01C00
1C00F1C01C00
1C007B801C00
1C003F801C00
1C000F001C00
1C000F801C00
1C000FC01C00
1C001DE01C00
1C0039F01C00
1C0070F81C00
1C00E07C1C00
1C01C03C1C00
1C03801C1C00
1C07001C1C00
1C0E00001C00
1C1C00001C00
1C7000001C00
1C6000001C00
1C0000001C00
1C0000001C00
1FFFFFFFFC00
1C0000001C00
1C0000001C00
000000000000
000000000000
000000000000
ENDCHAR

STARTCHAR cns3_2324
ENCODING 8996
SWIDTH 960 0
DWIDTH 42 0
BBX 42 42 0 -6
BITMAP
000000000000
000E00000000
000F00000E00
000E00000F00
000E00000E00
000E000E0E00
000E000F0E00
000E000E0E00
000E000E0E00
000E1C0E0E00
07FFFE0E0E00
000F1C0E0E00
000F1C0E0E00
000F1C0E0E00
000F1C0E0E00
000F1C0E0E00
000F1C0E0E00
000F1C0E0E00
000F1C0E0E00
000F1C0E0E00
000F1C8E0E00
000F1DCE0E00
1FFFFFEE0E00
000F000E0E00
000F000E0E00
001E000E0E00
001E000E0E00
001E000E0E00
003C000E0E00
003D800E0E00
0038E00E0E00
003870000E00
007078000E00
00F03E000E00
01E01F000E00
01C00F000E00
03800F801E00
0700078FFE00
1E000380FC00
380000007800
000000000000
000000000000
ENDCHAR

STARTCHAR cns3_2325
ENCODING 8997
SWIDTH 960 0
DWIDTH 42 0
BBX 42 42 0 -6
BITMAP
000000000000
000000000000
000000000700
00E000000780
00F000000700
00E0000E0700
01E0000F0700
01C0000E0700
03C0040E0700
03C00E0E0700
03FFFF0E0700
0700000E0700
0600000E0700
0E00100E0700
1C00380E0700
19FFFC0E0700
3000000E0700
2000000E0700
0000200E0700
0000700E0700
03FFF80E0700
0000700E0700
0000F00E0700
0001E00E0700
0003C00E0700
0007800E0700
000F000E0700
001E000E0700
003C000E0700
0038001F0700
0070004E0700
00E000600700
01E000E00700
01C000E00700
038000E00700
038000E00700
03C000E00F00
03FFFFC7FF00
01FFFF80FE00
000000001C00
000000000000
000000000000
ENDCHAR

STARTCHAR cns3_2326
ENCODING 8998
SWIDTH 960 0
DWIDTH 42 0
BBX 42 42 0 -6
BITMAP
000000000000
000000000000
000000000000
000000018000
01FFFFFFC000
00003001C000
000030018000
000030018000
000060018000
000060018000
000060030000
0000C0030000
0000C0030000
000180030000
000180060000
000300060000
000600060000
001C000C0000
007001F80000
000000300000
000000000000
000000000000
000000000000
000000000000
000018000600
3FFFFDFFFF00
00181C060700
001818060600
001818060600
0030180C0600
0030180C0600
0030180C0600
006030180C00
006030180C00
00C030300C00
00C030300C00
018030600C00
030070C01C00
0E1FE387F800
3803CE00F000
000000000000
000000000000
ENDCHAR

STARTCHAR cns3_2327
ENCODING 8999
SWIDTH 960 0
DWIDTH 42 0
BBX 42 42 0 -6
BITMAP
000000000000
000000000000
000000000E00
000700000F00
000780000E00
000700380E00
0007003C0E00
000704380E00
00070E380E00
1FFFFF380E00
000000380E00
000000380E00
0000E0380E00
0000F0380E00
0000E0380E00
0001E0380E00
0081C0380E00
00C1C0380E00
00E3C0380E00
007380380E00
003B80380E00
003F00380E00
000F00380E00
000F00380E00
000F00380E00
000F80380E00
001DC0380E00
0039E0380E00
0038F0380E00
0070F8380E00
00E078380E00
00E038000E00
01C038000E00
038008000E00
078000000E00
070000000E00
0E0000001E00
1C00000FFE00
38000001FC00
000000007800
000000000000
000000000000
ENDCHAR

STARTCHAR cns3_2328
ENCODING 9000
SWIDTH 960 0
DWIDTH 42 0
BBX 42 42 0 -6
BITMAP
000000000000
000000070000
000000078000
000020070000
000070070000
0FFFF8070000
000000070000
000000070000
000000070000
000000070100
000000070380
000001FFFF80
000000078380
000000078380
000000078380
000000078380
000010078380
000038070380
1FFFFC0F0380
0038000F0300
0078000F0700
0070000F0700
0070000E0700
0070000E0700
0060000E0700
00E0000E0700
00E0001C0700
00C3001C0700
01C1801C0700
01C1C0380700
0180E0380700
018060700700
038070700700
0300F8E00E00
03FFBDE00E00
3FF83DC01E00
3F801F801C00
3C001F07FC00
30000E01F800
00001C007000
000030000000
000000000000
ENDCHAR

STARTCHAR cns3_2329
ENCODING 9001
SWIDTH 960 0
DWIDTH 42 0
BBX 42 42 0 -6
BITMAP
000000000000
000000000000
00000E000000
00000F000000
00000E000000
00000E000000
00000E000000
00000E000800
00000E001C00
07FFFFFFFE00
00000E000000
00000E000000
00000E000000
00000E000000
00380E070000
003C0E078000
00380E070000
00380E070000
00380E070000
003800070000
003800070000
003880070400
0079C0070E00
3FFFE3FFFF00
007000070000
007000070000
007000070000
007000070000
007000070000
006000070000
00E000070000
00E000070000
00C000070000
01C000070000
018000070000
038000070000
070000070000
070000070000
0E0000070000
1C0000070000
000000070000
000000000000
ENDCHAR

STARTCHAR cns3_232A
ENCODING 9002
SWIDTH 960 0
DWIDTH 42 0
BBX 42 42 0 -6
BITMAP
000000000000
000000000000
00000E000000
00000F000000
00000E000000
00000E000000
00000E000000
00000E000800
00000E001C00
07FFFFFFFE00
00000E000000
00000E000000
00000E000000
00000E000000
00000E000000
001C0E070000
001E0E078000
001C0E070000
001C0E070000
001C00070000
001C00070000
001C00070200
001C00070700
3FFFFFFFFF80
001C00070000
001C00070000
001C00070000
001C00070000
001C00070000
001C00070000
001C00070000
001C00070000
001C00070000
001C00070000
001C00070000
001FFFFF0000
001C00070000
001C00070000
000000000000
000000000000
000000000000
000000000000
ENDCHAR

STARTCHAR cns3_232B
ENCODING 9003
SWIDTH 960 0
DWIDTH 42 0
BBX 42 42 0 -6
BITMAP
000000000000
007000E00000
007800F00000
007000E00000
007000E00000
007000E00000
007000E00000
007000E00000
007000E00000
007000E04000
007000E0E000
00703FFFF000
1FFF80F0E000
007000F0E000
007000F0E000
007000E0E000
007001E0E000
007001E0E000
007001E0E000
007019E0EC00
007019E0EC00
007039C0EE00
007071C0EE00
007071C0E700
0070E1C0E780
0070E3C0E780
0071E380E380
0071C380E380
0071C380E380
00700780E180
00700701E000
00700701C000
00700F01C000
00700E01C000
00701C01C000
00701C038000
007038078000
007071FF0000
0070E03C0000
0070C0180000
007080000000
000000000000
ENDCHAR

STARTCHAR cns3_232C
ENCODING 9004
SWIDTH 960 0
DWIDTH 42 0
BBX 42 42 0 -6
BITMAP
000000000000
000000000000
000000000000
000000000200
000000000700
0FFFFFFFFF80
000001C00000
000003800000
00000F300000
00003F1E0000
0000F707C000
0003C701F800
001F07007E00
00F807003E00
07C007000E00
3E0007000600
000007000000
000007000000
000007000000
000000000000
00000E000000
00000F000000
00000E000000
00000E000000
00000E000000
00000E000000
00000E000400
00000E000E00
3FFFFFFFFF00
00000E000000
00000E000000
00000E000000
00000E000000
00000E000000
00000E000000
00000E000000
00000E000000
00000E000000
00000E000000
00000E000000
000000000000
000000000000
ENDCHAR

STARTCHAR cns3_232D
ENCODING 9005
SWIDTH 960 0
DWIDTH 42 0
BBX 42 42 0 -6
BITMAP
000000000000
000000000000
000000000000
1C0000000400
1E001C000E00
1C001FFFFF00
1C001C000000
1C001C000000
1C001C000000
1C001C000000
1C001C000000
1C001C000000
1C001C000000
1C001C000000
1C001C000000
1C001C000000
1C001C000000
1C001C000000
1C001C000400
1C001C000E00
1FFFFFFFFF00
1C001C000E00
00001C000E00
00001C000E00
00001C000E00
00001C000E00
00001C000E00
00001C000E00
00001C000E00
00001C000E00
00001C000E00
00001C000E00
00001C000E00
00001C000E00
00001C000E00
00001C000E00
00001C000E00
1FFFFC000E00
00001C000E00
000000000E00
000000000000
000000000000
ENDCHAR

STARTCHAR cns3_232E
ENCODING 9006
SWIDTH 960 0
DWIDTH 42 0
BBX 42 42 0 -6
BITMAP
000000000000
000000000000
000000000400
038000000E00
03FFFFFFFF00
038000000000
038000000000
038000002000
038000007000
03BFFFFFF800
038000000000
038000000000
038000000000
038007000000
038007800000
03800F000000
03800E000000
03C01E000000
03801C000000
038038000000
038030000000
038E601E0000
0387C03E0000
0383C03C0000
0381E0780000
0380F0F00000
038078E00000
078039C00000
078013800000
070007000000
07000F000000
07000E000000
0F001C030000
0E0038038000
0E007001C000
0E00E03FE000
1C1FFFFCF000
1C1FFF007000
181800007000
000000000000
000000000000
000000000000
ENDCHAR

STARTCHAR cns3_232F
ENCODING 9007
SWIDTH 960 0
DWIDTH 42 0
BBX 42 42 0 -6
BITMAP
000000000000
000000000000
000000000400
070000000E00
07FFFFFFFF00
070000000000
070000000000
070000000000
070003800000
070003C00000
070003800000
070003800000
070003800000
070003800000
070003800000
070003800000
070003800000
070003800000
070003800000
070003801000
070003803800
071FFFFFFC00
070003800000
070003800000
070003800000
070003800000
0700038F0000
0F0003878000
0F000383C000
0F000381F000
0E000380F000
0E0003807800
1E0003807800
1C0003803800
1C0003800000
1C0003800200
380003800700
39FFFFFFFF80
300000000000
300000000000
000000000000
000000000000
ENDCHAR

STARTCHAR cns3_2330
ENCODING 9008
SWIDTH 960 0
DWIDTH 42 0
BBX 42 42 0 -6
BITMAP
000000000000
000000000000
000000000400
038000000E00
03FFFFFFFF00
038000000000
038000000000
038003000000
038007800000
038007800000
03800FC00000
03801EF00000
03801E780000
03803C3C0000
0380780E0000
0380F0078000
0381E003E000
0383C009F000
0387801CFF00
038E7FFE3F00
039C00001E00
03B000000000
03A000000000
038000000000
038000008000
03800001C000
0387FFFFE000
03800001C000
07800001C000
078000030000
070000030000
070000060000
0F00000E0000
0F00000C0000
0E00001C0000
0E0000180000
1C0000380000
1C0000700000
180000600000
000000600000
000000000000
000000000000
ENDCHAR

STARTCHAR cns3_2331
ENCODING 9009
SWIDTH 960 0
DWIDTH 42 0
BBX 42 42 0 -6
BITMAP
000000000000
000000000000
000000000000
000000038000
03FFFFFFC000
000000038000
0000E0038000
0000F0038000
0000E0038000
0000E0038000
0000E0038000
0000E0018000
0000E0118000
0000E0398000
03FFFFFDC000
0000E001C200
0000E000C200
0000E000E200
0000E0006600
0000E0007700
0000E0003F00
0000E0009F00
0000E001CF00
3FFFFFFFE600
0003C0000000
0003C0000000
000780000000
000700000000
000F01C00000
001E00E00000
001C00700000
003C00780000
0038003C0000
007003FE0000
0070FF8F0000
03FFF80F8000
1FFF00078000
1FC000078000
0E0000038000
0C0000000000
000000000000
000000000000
ENDCHAR

STARTCHAR cns3_2332
ENCODING 9010
SWIDTH 960 0
DWIDTH 42 0
BBX 42 42 0 -6
BITMAP
000000000000
000000000000
00000E000000
00000F000000
00000E000000
00000E000000
00000E004000
00E00E00E000
00FFFFFFF000
00E00E00E000
00E00E00E000
00E00E00E000
00E00E00E000
00E00E00E000
00E00E00E000
00E00E00E000
00FFFFFFE000
00E00E00E000
00E00E00E000
00000E000000
00000E000000
00000E000000
00000E040000
0000000E0000
00FFFFFF0000
0006001E0000
0007001E0000
0003003C0000
000380780000
0001C0F00000
0000E1E00000
000073C00000
00003F000000
00001F800000
00007FE00000
0001E1F80000
000F807F0000
003E001FFE00
01F80007FE00
0F8000007C00
1C0000000000
000000000000
ENDCHAR

STARTCHAR cns3_2333
ENCODING 9011
SWIDTH 960 0
DWIDTH 42 0
BBX 42 42 0 -6
BITMAP
000000000000
000000000000
000000040000
0000000E0000
00FFFFFF0000
0006000E0000
0007001E0000
0003803C0000
000380780000
0001C0700000
0000E0E00000
000073C00000
00003F800000
00001F000000
00003FC00000
0000FBF00000
0003E0FE0000
000F803FE000
007C000FFE00
03F00001FE00
1F0000003C00
000000000000
000038003800
03FFFFFFFC00
00003DC07800
000079C0F800
0000F8E0F000
0000F0E1E000
0071E071C000
001DE07BC000
000FC03F8000
0007801F0000
000FC01F0000
001FF03F8000
003CF07BC000
007071E1F000
01E013C0FE00
03C00F007F80
0F003C001E00
1C0070000000
000000000000
000000000000
ENDCHAR

STARTCHAR cns3_2334
ENCODING 9012
SWIDTH 960 0
DWIDTH 42 0
BBX 42 42 0 -6
BITMAP
000000000000
000000000000
000000001800
000060001E00
000030003C00
000438007800
1C0E1C00F000
1FFF1E00E000
1C0E0F01C000
1C0E0781C000
1C0E07838000
1C0E03870000
1C0E03870000
1C0E018E0000
1C0E000C0000
1C0E007C0000
1C0E007C0000
1C0E00780000
1C0E00700000
1C0E00700000
1C0E00700000
1C0E00700000
1C0E00700000
1C0E00700000
1C0E00700000
1FFE00700000
1C0E00700000
1C0E00700000
000000700000
000000700000
000000700000
000000700000
000000700000
000000700000
000000700000
000000700000
000000700000
000000700000
000000700000
000000700000
000000700000
000000000000
ENDCHAR

STARTCHAR cns3_2335
ENCODING 9013
SWIDTH 960 0
DWIDTH 42 0
BBX 42 42 0 -6
BITMAP
000000000000
000000000000
000000000000
000000000000
000000000800
381C00001C00
3FFFFFFFFE00
381C00700000
381C00700000
381C00700000
381C00700000
381C00700000
381C00700000
381C00700000
381C00700000
381C00700000
381C00700000
381C00700000
381C00700000
381C00700000
381C00700000
381C00700000
381C00700000
381C00700000
381C00700000
3FFC00700000
381C00700000
381C00700000
000000700000
000000700000
000000700000
000000700000
000000700000
000000700000
000000700000
000000700400
000000700E00
0003FFFFFF00
000000000000
000000000000
000000000000
000000000000
ENDCHAR

STARTCHAR cns3_2336
ENCODING 9014
SWIDTH 960 0
DWIDTH 42 0
BBX 42 42 0 -6
BITMAP
000000000000
000000000000
000000000400
00001C000E00
00041FFFFF00
380E1C000E00
3FFF1C000E00
380E1C000E00
380E1C000E00
380E1C000E00
380E1C000E00
380E1C000E00
380E1C000E00
380E1C000E00
380E1C000E00
380E1FFFFE00
380E1E000E00
380E1E000000
380E1E000000
380E1E000000
380E1E000000
380E1C000000
380E3C000000
380E3C000000
3FFE3C000000
380E3C000000
380E3C000000
000038000000
000038000000
000038000000
000038000000
000038000000
000070000000
000070000000
0000E0000000
0000E0000000
0001C0000000
000180000000
000380000000
000300000000
000000000000
000000000000
ENDCHAR

STARTCHAR cns3_2337
ENCODING 9015
SWIDTH 960 0
DWIDTH 42 0
BBX 42 42 0 -6
BITMAP
000000000000
000000003000
00000000F000
00000003F000
0008001FC000
381C01FF0000
3FFE3FF80000
381C7E380000
381C00380000
381C00380000
381C00380000
381C00380000
381C00380000
381C00380000
381C00380000
381C00380000
381C00380000
381C00380200
381C00380700
381DFFFFFF80
381C00380000
381C00380000
381C00380000
381C00380000
3FFC00380000
381C00380000
381C00380000
000000380000
000000380000
000000380000
000000380000
000000380000
000000380000
000000380000
000000380000
000000380000
000000380000
000000380000
000000380000
000000380000
000000380000
000000000000
ENDCHAR

STARTCHAR cns3_2338
ENCODING 9016
SWIDTH 960 0
DWIDTH 42 0
BBX 42 42 0 -6
BITMAP
000000000000
000000010000
003800038000
003FFFFFC000
003800038000
003800038000
003800038000
003800038000
003800038000
003800038000
003800038000
003800038000
003800038000
003800038000
003800038000
003FFFFF8000
003800038000
003800038000
000038000000
00003C000000
000038000000
000038000000
000038000800
000038001C00
3FFFFFFFFE00
00007E000000
00007F000000
000077000000
0000F3800000
0001E3C00000
0001E1C00000
0003C0F00000
000380780000
0007803C0000
000F001F0000
003C000FC000
00F80007F800
03E00003FF00
0F8000007F00
7C0000001E00
000000000000
000000000000
ENDCHAR

STARTCHAR cns3_2339
ENCODING 9017
SWIDTH 960 0
DWIDTH 42 0
BBX 42 42 0 -6
BITMAP
000000000000
000000000000
000000000000
000000000000
000040001000
0E00E1C03800
0FFFF1FFFC00
0E00E1C03800
0E00E1C03800
0E00E1C03800
0E00E1C03800
0E00E1C03800
0E00E1C03800
0E00E1C03800
0E00E1C03800
0E00E1C03800
0E00E1C03800
0E00E1C03800
0E00E1C03800
0E00E1C03800
0E00E1C03800
0E00E1C03800
0E00E1C03800
0E00E1C03800
0E00E1C03800
0E00E1C03800
0E00E1C03800
0E00E1C03800
0E00E1C03800
0E00E1C03800
0E00E1C03800
0E00E1C03800
0FFFE1FFF800
0E00E1C03800
0E00E1C03800
000000000000
000000000000
000000000000
000000000000
000000000000
000000000000
000000000000
ENDCHAR

STARTCHAR cns3_233A
ENCODING 9018
SWIDTH 960 0
DWIDTH 42 0
BBX 42 42 0 -6
BITMAP
000000000000
000000000000
000000000000
000000000400
000000000E00
0009FFFFFF00
381C00700000
3FFE00700000
381C00700000
381C00700000
381C00700000
381C00700000
381C00780000
381C007C0000
381C00770000
381C00770000
381C0073C000
381C0071E000
381C0071F000
381C0070F800
381C00707800
381C00707800
381C00703800
381C00700000
381C00700000
3FFC00700000
381C00700000
381C00700000
000000700000
000000700000
000000700000
000000700000
000000700000
000000700000
000000700000
000000700000
000000700000
000000700000
000000700000
000000700000
000000700000
000000000000
ENDCHAR

STARTCHAR cns3_233B
ENCODING 9019
SWIDTH 960 0
DWIDTH 42 0
BBX 42 42 0 -6
BITMAP
000000000000
000000000000
000000020000
007000070000
007FFFFF8000
007000070000
007000070000
007000070000
007000070000
007000070000
007000070000
007000070000
007000070000
007000070000
007000070000
007FFFFF0000
007000070000
007000070000
000000000000
000000000000
000000000000
000000000000
000000002000
070000007000
07FFFFFFF800
070000007000
070000007000
070000007000
070000007000
070000007000
070000007000
070000007000
070000007000
070000007000
070000007000
070000007000
070000007000
07FFFFFFF000
070000007000
070000007000
000000000000
000000000000
ENDCHAR

STARTCHAR cns3_233C
ENCODING 9020
SWIDTH 960 0
DWIDTH 42 0
BBX 42 42 0 -6
BITMAP
000000000000
000000000000
000000000000
000000000000
000001F00000
000801F00000
381C01E00000
3FFE03C00000
381C03C00000
381C07800000
381C07800000
381C07000000
381C0E000000
381C0E000000
381C1C000000
381C1C000000
381C38000000
381C70780000
381CE07C0000
381CE0F80000
381DC0F00000
381C01E00000
381C01E00000
381C03C00000
381C03C10000
3FFC07838000
381C0701C000
381C0F00E000
00000E007000
00001C003800
00001C001C00
000038003E00
00003807FF00
000073FE0F80
0007FFE00F80
0007FC000780
0003C0000780
000380000300
000000000000
000000000000
000000000000
000000000000
ENDCHAR

STARTCHAR cns3_233D
ENCODING 9021
SWIDTH 960 0
DWIDTH 42 0
BBX 42 42 0 -6
BITMAP
000000000000
000000000000
000000000800
1C0000001C00
1FFFFFFFFE00
1C0000001C00
1C0000001C00
1C01C1C01C00
1C01E1E01C00
1C01C1C01C00
1C01C1C01C00
1C01C1C01C00
1C01C1C01C00
1C01C1C01C00
1C01C1C01C00
1C01C1C11C00
1C01C1C39C00
1DFFFFFFDC00
1C0381C01C00
1C0381C01C00
1C0381C01C00
1C0381C01C00
1C0381C01C00
1C0701C01C00
1C0701C01C00
1C0701C01C00
1C0601C01C00
1C0E01C01C00
1C0C01C01C00
1C1C01C01C00
1C3801C01C00
1C3001C01C00
1C7001C01C00
1CE001C01C00
1CC001C01C00
1C0000001C00
1FFFFFFFFC00
1C0000001C00
1C0000001C00
000000000000
000000000000
000000000000
ENDCHAR

STARTCHAR cns3_233E
ENCODING 9022
SWIDTH 960 0
DWIDTH 42 0
BBX 42 42 0 -6
BITMAP
000000000000
000000000000
000000000800
1C0000001C00
1FFFFFFFFE00
1C0000001C00
1C0003801C00
1C0003C01C00
1C0003801C00
1C0003801C00
1C0003801C00
1C0003801C00
1C0003841C00
1C00038E1C00
1C7FFFFF1C00
1C0003801C00
1C0003801C00
1C0003801C00
1C0003801C00
1C1C03801C00
1C0E03801C00
1C0783801C00
1C07C3801C00
1C03C3801C00
1C03C3801C00
1C01C3801C00
1C0003801C00
1C0003801C00
1C0003801C00
1C0003801C00
1C0003801C00
1C0007801C00
1C00FF801C00
1C001F001C00
1C000E001C00
1C0000001C00
1FFFFFFFFC00
1C0000001C00
1C0000001C00
000000000000
000000000000
000000000000
ENDCHAR

STARTCHAR cns3_233F
ENCODING 9023
SWIDTH 960 0
DWIDTH 42 0
BBX 42 42 0 -6
BITMAP
000000000000
000000000000
000001C00000
000001E00000
00E001C00000
00F001C00000
00E001C00000
00E001C00000
00E001C00000
00E001C00000
00E001C00000
00E001C00000
00E001C00000
00E101C00000
00E381C00000
1FFFC1C00000
00E001C00000
00E001C01000
00E001C03800
00E001FFFC00
00E001C00000
00E001C00000
00E001C00000
00E001C00000
00E001C00000
00E001C00000
00E001C00000
00E1E1C00000
00EF01C00000
00F801C00000
03E001C00000
1F8001C00000
3E0001C00000
3C0001C00000
180001C00000
000001C00000
000001C00400
000001C00E00
0007FFFFFF00
000000000000
000000000000
000000000000
ENDCHAR

STARTCHAR cns3_2340
ENCODING 9024
SWIDTH 960 0
DWIDTH 42 0
BBX 42 42 0 -6
BITMAP
000000000000
000000000000
00003E000000
00003E000000
000038000000
000070000000
000070001000
0000E0003800
3FFFFFFFFC00
0003C1E00000
0003C0F00000
000780780000
000F003C0000
001E001E0000
003C000F0000
0078000F8000
00F00003E000
01E00001F800
03800E00FC00
0F000F003F00
1E000E001F00
78000E000000
00000E000000
00000E000000
00000E004000
00000E00E000
01FFFFFFF000
00000E000000
00000E000000
00000E000000
00000E000000
00000E000000
00000E000000
00000E000000
00000E000000
00000E000000
00000E000400
00000E000E00
3FFFFFFFFF00
000000000000
000000000000
000000000000
ENDCHAR

STARTCHAR cns3_2341
ENCODING 9025
SWIDTH 960 0
DWIDTH 42 0
BBX 42 42 0 -6
BITMAP
000000000000
000000000000
0000C0000000
0003E00E0000
0007E00F0000
001F800E0000
00FE000E0000
0FFC000E0000
001C000E0000
001C000E0000
001C000E0000
001C000E0000
001C000E0000
001C000E0000
001C000E0000
001C400E0800
001CE00E1C00
1FFFF7FFFE00
001C000E0000
001C000E0000
001C000E0000
001C000E0000
001C000E0000
001C000E0000
001C000E0000
001C000E0000
001C000E0000
001C000E0000
001C000E0000
001C000E0000
001C000E0000
001C000E0000
001C000E0000
001C000E0000
001C000E0000
001C000E0000
001C000E0200
001C000E0700
001C7FFFFF80
001C00000000
001C00000000
000000000000
ENDCHAR

STARTCHAR cns3_2342
ENCODING 9026
SWIDTH 960 0
DWIDTH 42 0
BBX 42 42 0 -6
BITMAP
000000000000
000000003000
00000000F800
00000003F800
00E0000FC000
00F0007F8000
00E00FFC0000
00E01F9C0000
00E0001C0000
00E0001C0000
00E0001C0000
00E0001C0000
00E0001C0000
00E1001C0000
00E3801C0000
1FFFC01C0000
00E0001C0000
00E0001C0400
00E0001C0E00
00E07FFFFF00
00E0001C0000
00E0001C0000
00E0001C0000
00E0001C0000
00E0001C0000
00E0001C0000
00E0001C0000
00E3C01C0000
00FF001C0000
00FC001C0000
03E0001C0000
1F80001C0000
3E00001C0000
3C00001C0000
1800001C0000
0000001C0000
0000001C0000
0000001C0000
0000001C0000
0000001C0000
0000001C0000
000000000000
ENDCHAR

STARTCHAR cns3_2343
ENCODING 9027
SWIDTH 960 0
DWIDTH 42 0
BBX 42 42 0 -6
BITMAP
000000000000
000E00000000
000F00380000
000E003C0000
000E00380000
000E00380000
000E00380000
1C0E00380000
0F0E00380000
078E00380000
03CE00380000
01EE00380000
00FE00380000
007E00380000
007E00380000
003E00380200
000E00380700
000EFFFFFF80
000E00380000
000E00380000
000E00380000
000E00380000
000E00380000
000E00380000
003E00380000
00FE00380000
03CE00380000
0F8E00380000
1E0E00380000
1E0E00380000
1C0E00380000
000E00380000
000E00380000
000E00380000
000E00380000
000E00380400
000E00380E00
000E7FFFFF80
000E00000000
000E00000000
000E00000000
000000000000
ENDCHAR

STARTCHAR cns3_2344
ENCODING 9028
SWIDTH 960 0
DWIDTH 42 0
BBX 42 42 0 -6
BITMAP
000000000000
000000000000
0001C0000000
0003F0000000
0007E0010000
000F00038000
001FFFFFC000
003E00038000
007F00078000
00F7800F0000
01E3C01E0000
0781E07C0000
0F00F0F00000
1C003DE00000
00001F800000
00003F800000
0000FFF80000
0003E07F0000
000F8E0FFF00
007C0F03FF00
07E00E001E00
1E000E020000
00000E070000
003FFFFF8000
00000E000000
00700E000000
00780E000000
00700E000000
00700E000000
00700E002000
00700E007000
007FFFFFF800
00700E000000
00000E000000
00000E000000
00000E000000
00000E000000
00000E000000
00000E000000
00000E000000
00000E000000
000000000000
ENDCHAR

STARTCHAR cns3_2345
ENCODING 9029
SWIDTH 960 0
DWIDTH 42 0
BBX 42 42 0 -6
BITMAP
000000000000
000000000000
00000007C000
0000007FC000
00000FFC0000
001FFE000000
03FE3C000000
000038000000
000078000000
0000F0000400
0000E0000E00
1FFFFFFFFF00
0003C0F00000
000380780000
000700380000
000E001E0000
001C000F8000
00380007C000
00F7003FF000
01E7803EFC00
0387003C3F00
0F0700380F00
3C0700380000
300700380000
000700380000
000700380000
000700380000
000700380000
000700380000
000700380000
000F00380000
000F00380000
000F00380000
001E00380000
001E00380000
001C00380000
003C00380000
003800380000
007000380000
00E000380000
000000380000
000000000000
ENDCHAR

STARTCHAR cns3_2346
ENCODING 9030
SWIDTH 960 0
DWIDTH 42 0
BBX 42 42 0 -6
BITMAP
000000000000
000000000000
00003E000000
00003C000000
000078000000
000070000800
0000E0001C00
3FFFFFFFFE00
0001E0E00000
0003C0700000
000780380000
000F001C0000
001E000E0000
003C00070000
00780007C000
00F00003F000
01E00000FC00
078380387F00
0E03C03C1F00
3C0380380F00
300380380000
000380380000
000380380000
000380380400
000380380E00
3FFFFFFFFF00
000380380000
000380380000
000380380000
000780380000
000780380000
000F00380000
000F00380000
001E00380000
001C00380000
003C00380000
007800380000
00F000380000
03C000380000
0F0000380000
000000380000
000000000000
ENDCHAR

STARTCHAR cns3_2347
ENCODING 9031
SWIDTH 960 0
DWIDTH 42 0
BBX 42 42 0 -6
BITMAP
000000000000
000000000000
003800070000
003C00078000
003800070000
003800070000
003800070000
003800070000
003800070000
003800070000
003800070000
003800070000
003820070400
003870070E00
0FFFF9FFFF00
003800070000
003800070000
003800070000
007C000F8000
007E000FC000
007E000FC000
0077000EE000
0077000EE000
00F7801EE000
00F3801EF000
00E3801C7000
01E3803C7000
01E3C03C7800
01C1C0387800
03C1E0783C00
0381E0703C00
0381F0703E00
0780F0F03E00
0700F8E01F00
0F007DE01F00
0E007DC00F80
1C003F800F80
1C003F800780
38001F000380
300006000000
000000000000
000000000000
ENDCHAR

STARTCHAR cns3_2348
ENCODING 9032
SWIDTH 960 0
DWIDTH 42 0
BBX 42 42 0 -6
BITMAP
000000000000
000000000000
000038000000
00003C000000
000038000000
000038000000
000038000800
000038001C00
3FFFFFFFFE00
00007F000000
00007F000000
0000F3800000
0001E1C00000
0003C0E00000
000380F80000
0007003C0000
001E001F8000
003C0007E000
00F00003FF00
03C00000FF00
3E0000003C00
600000000000
000038000000
00003C000000
000038000000
000038000800
000038001C00
3FFFFFFFFE00
00003C000000
00007E000000
0000FF800000
0001E3C00000
0003C0E00000
000380780000
0007003C0000
001E001F8000
00380007E000
00F00003FF00
07800000FF00
3E0000003E00
600000000000
000000000000
ENDCHAR

STARTCHAR cns3_2349
ENCODING 9033
SWIDTH 960 0
DWIDTH 42 0
BBX 42 42 0 -6
BITMAP
000000000000
000000000000
00E000000000
00F000002000
00E000007000
01807FFFF800
018000E07000
018000E07000
018000E07000
018000E07000
038380E07000
3FFFC0E07000
038380E07000
038380E07000
038380E07000
078780E07000
070780E07000
070700E07000
070700E07000
0E077FFFF000
0E0F00E07000
0E0E00E03000
0E0E00E03000
1E0E00E03800
1C0E00E03800
1C1C00E03800
3F1C00E03800
3BDC00E03800
31F800E03800
007800E03900
007C00E01900
007E00E01D00
00FF00E01D00
01EF00E01F00
03C700E00F80
038000E00F80
070000E00780
0E0000E00300
3C0000E00000
300000E00000
000000E00000
000000000000
ENDCHAR

STARTCHAR cns3_234A
ENCODING 9034
SWIDTH 960 0
DWIDTH 42 0
BBX 42 42 0 -6
BITMAP
000000000000
000000000000
00E000E00000
00F000F00000
00E000E70000
00E000E3C000
01C000E1E000
01C000E0E000
018000E00000
018100E00000
018380E01000
3FFFC0E03800
03C380EFFC00
03C3BFFC0000
038380600000
038380600000
038380700000
078380700000
070780700000
0F0700700000
0F0700300000
0F0700380000
0E0600380000
0E0E00380000
1E0E001C0000
1C0E001C0000
1F1C001C0000
1FFC000E0000
18FC000E0000
007800070000
003C00070000
007F00038200
00FF00038200
00E78001C200
01C38001E600
03800000F600
070000007E00
0E0000003F00
1C0000001F00
180000000E00
000000000000
000000000000
ENDCHAR

STARTCHAR cns3_234B
ENCODING 9035
SWIDTH 960 0
DWIDTH 42 0
BBX 42 42 0 -6
BITMAP
000000000000
000000000000
00E000800000
00F001C00000
00E001E00000
018003C00000
018003C00000
038003808000
03800381C000
038207FFE000
03870701C000
3FFF8701C000
03870E03C000
03870E038000
03870E038000
07071C038000
070718070000
070738070000
0707300F0000
0E0F700F0000
0E0E600E0000
0E0E400E0000
0E0E001E0000
1E0E001E0000
1C1C003F0000
1C1C003B0000
3F1C00738000
3BD800738000
01F800E1C000
007801C1C000
007C03C1E000
007E0380F000
00FE0700F800
01EF0E007C00
03C71C003E00
038338001F00
0700F0001F80
0E01E0000F80
1C0380000000
380F00000000
000000000000
000000000000
ENDCHAR

STARTCHAR cns3_234C
ENCODING 9036
SWIDTH 960 0
DWIDTH 42 0
BBX 42 42 0 -6
BITMAP
000000000000
000000000000
000038000000
00007C000000
000078000000
0000E0000800
0000C0001C00
1FFFFFFFFE00
0003C01E0000
0003801C0000
0007003C0000
000F00380000
001E00780000
003FF0F00000
00303FE00000
000007F80000
00001FFE0000
0000FC1FC000
0007E007E000
01FF0001F000
0FC00000F000
000038000000
00007C000000
000078000000
0000E0000800
0000C0001C00
1FFFFFFFFE00
0003C01E0000
0003801C0000
0007003C0000
000F00380000
001E00780000
001FE0700000
00387FE00000
000003F80000
00001FFE0000
00007E1FC000
0003F00FE000
007F8001F000
0FF00000F000
000000000000
000000000000
ENDCHAR

STARTCHAR cns3_234D
ENCODING 9037
SWIDTH 960 0
DWIDTH 42 0
BBX 42 42 0 -6
BITMAP
000000000000
000E00000000
000F00700000
000E00780000
000E00700000
000E00F00000
000E00E00000
1C0E00E00000
0E0E01E00000
078E01C00000
03CE01C00000
01EE01C00000
01FE03C00400
007E03800E00
007EFFFFFF00
003E07807000
000E07007000
000E07007000
000E0E006000
000E0E00E000
000E1E01E000
000E1C01C000
000E1C01C000
000E3C01C000
003E3803C000
00FE38038000
0FCE7E038000
1F8E67870000
3E0E61F70000
3C0E003E0000
180E001F0000
000E001F8000
000E003BC000
000E0071F000
000E00E0F800
000E03C07E00
000E07801F00
000E1F000F00
000E7C000700
000E60000000
000E00000000
000000000000
ENDCHAR

STARTCHAR cns3_234E
ENCODING 9038
SWIDTH 960 0
DWIDTH 42 0
BBX 42 42 0 -6
BITMAP
000000000000
000000000000
000C0300E000
001E0780F000
001C0701E000
00300C030000
002008030000
006018060000
00C0300C0000
00E0780F0000
00F03C078000
00781E03F000
003C0F01F000
003E0780F000
001E03807000
000600000000
0000000C0000
0000000E0000
007FFFFF8000
0000003E0000
000000700000
000000C00000
000003800000
000007000000
00000F800000
00001E000400
00001C000E00
3FFFFFFFFF00
00001C000000
00001C000000
00001C000000
00001C000000
00001C000000
00001C000000
00001C000000
00001C000000
00003C000000
0007FC000000
0000F8000000
000030000000
000000000000
000000000000
ENDCHAR

STARTCHAR cns3_234F
ENCODING 9039
SWIDTH 960 0
DWIDTH 42 0
BBX 42 42 0 -6
BITMAP
000000000000
000000000000
00000E000000
00000F000000
00000E000000
00000E000400
06000E000E00
07FFFFFFFF00
070000000F00
0F0000001E00
1E00E0001C00
3E01F0003800
3C01E0000000
380180200000
000300700000
0003FFF80000
000700700000
000E00700000
000C00700000
001C00F00000
003800E00000
007001E00000
00E001C00000
01C003C00000
070003800000
0E0007800000
00000F800000
00000EC00000
00001CE00000
000038700000
000070380000
0000E01C0000
0001C00E0000
000380070000
000700038000
001E0001C000
00380000E000
00F000007000
01C000003E00
0F0000001C00
0C0000000000
000000000000
ENDCHAR

STARTCHAR cns3_2350
ENCODING 9040
SWIDTH 960 0
DWIDTH 42 0
BBX 42 42 0 -6
BITMAP
000000000000
000000000000
00000E000000
00000F000000
00000E000000
00000E000000
06000E000E00
07FFFFFFFF00
070000000F80
0F0000001E00
1E0000001C00
3E0000031000
3DFFFFFF9000
380000030000
000000030000
000000030000
000000030000
000000030000
003000030000
003FFFFF0000
006000030000
006000030000
006000000000
00C000000000
00C000004000
00C00000E000
01FFFFFFF000
01800000E000
01800000E000
00000001E000
00000001C000
00000001C000
00000003C000
000000038000
000000078000
000000078000
0000000F0000
000007FE0000
000000FC0000
000000380000
000000000000
000000000000
ENDCHAR

STARTCHAR cns3_2351
ENCODING 9041
SWIDTH 960 0
DWIDTH 42 0
BBX 42 42 0 -6
BITMAP
000000000000
000000000000
000000000000
00001C000000
00001E000000
00001C000000
00401C000000
00601C038000
00301C03C000
00381C07C000
001E1C078000
001E1C0F0000
000F1C0E0000
000F1C1C0000
00071C380000
00001C300000
00001C002000
00001C007000
01FFFFFFF800
000000003000
000000003000
000000003000
000000003000
000000003000
000000003000
000000003000
000000003000
03FFFFFFF000
000000003000
000000003000
000000003000
000000003000
000000003000
000000003000
000000003000
000000003000
07FFFFFFF000
000000003000
000000003000
000000000000
000000000000
000000000000
ENDCHAR

STARTCHAR cns3_2352
ENCODING 9042
SWIDTH 960 0
DWIDTH 42 0
BBX 42 42 0 -6
BITMAP
000000000000
000000000000
000007000000
000007800000
000007000000
000007000000
000E07000000
000F87030000
001F07038000
001E0701E000
003C0700F000
007807007C00
007807003E00
00F007001F00
01E007000F00
03C007000700
07800F000300
0E01FF000100
1C003E000000
00000C000000
000000000000
000000000000
00000E000000
00000F000000
00000E000000
00000E000000
00000E000000
00000E004000
00000E00E000
01FFFFFFF000
00000E000000
00000E000000
00000E000000
00000E000000
00000E000000
00000E000000
00000E000000
00000E000400
00000E000E00
3FFFFFFFFF00
000000000000
000000000000
ENDCHAR

STARTCHAR cns3_2353
ENCODING 9043
SWIDTH 960 0
DWIDTH 42 0
BBX 42 42 0 -6
BITMAP
000000000000
000000000800
00E000001C00
00FFFFFFFE00
00E000001C00
00E000001C00
00E000001C00
00E000001C00
00E000001C00
00E000001C00
00E000001C00
00FFFFFFFC00
00E000001C00
00E000001C00
00E00000E000
00E3FFFFF000
00E00001F000
00E00003C000
00E000078000
00E0000E0000
00E0001C0000
00E000F80000
00E000F00000
00E001C00000
00E001C00800
00E001C01C00
00FFFFFFFE00
01F001C00000
01E001C00000
01E001C00000
01C001C00000
03C001C00000
038001C00000
038001C00000
070001C00000
070001C00000
0E0003C00000
0C00FFC00000
00001F800000
000007000000
000000000000
000000000000
ENDCHAR

STARTCHAR cns3_2354
ENCODING 9044
SWIDTH 960 0
DWIDTH 42 0
BBX 42 42 0 -6
BITMAP
000000000000
000000000000
000000004000
00700000E000
007FFFFFF000
00700000E000
00700000E000
00700000E000
00700000E000
00700000E000
00700000E000
00700000E000
00700000E000
00700000E000
00700000E000
00700000E000
007FFFFFE000
00780380E000
00780380E000
007801800000
007801800000
007801C00000
0071C1C00000
0070F1C00000
00F078E00000
00F03CE00000
00E01CE00000
00E01C700000
00E000780000
01E000380000
01C0003C0000
01C0001E0000
0383800F0000
0381E00F8000
0700F807C000
07007803E000
0E003C01FC00
0C0000007F00
1C0000003F00
380000001C00
000000000000
000000000000
ENDCHAR

STARTCHAR cns3_2355
ENCODING 9045
SWIDTH 960 0
DWIDTH 42 0
BBX 42 42 0 -6
BITMAP
000000000000
000000000000
000000000000
00E000000000
00F000000000
00E000000800
00E000001C00
00E03FFFFE00
00E000380000
38E700380000
3CE780380000
38E700380000
38E700380000
38E700380000
38E700380000
38E700380000
38E700380000
38E700380000
38E700380000
38E700380000
38E700380000
38E700380000
38E700380000
38E700380000
38E700380000
38E700380000
38E700380000
38E700380000
38E700380000
38E700380000
38E700380000
3FFF00380000
380700380000
380700380000
000000380000
000000380000
000000380400
000000380E00
0001FFFFFF00
000000000000
000000000000
000000000000
ENDCHAR

STARTCHAR cns3_2356
ENCODING 9046
SWIDTH 960 0
DWIDTH 42 0
BBX 42 42 0 -6
BITMAP
000000000000
000000000000
00E000000000
00F000000400
00E000000E00
00E007FFFF00
00E000003E00
00E000003800
38E700007800
3CE780007000
38E70000E000
38E70001C000
38E700078000
38E7000F0000
38E7001F0000
38E7001E0000
38E7001C0000
38E7001C0200
38E7001C0700
38E7FFFFFF80
38E7001C0000
38E7001C0000
38E7001C0000
38E7001C0000
38E7001C0000
38E7001C0000
38E7001C0000
38E7001C0000
38E7001C0000
38E7001C0000
3FFF001C0000
3807001C0000
3807001C0000
0000001C0000
0000001C0000
0000001C0000
0000003C0000
00000FFC0000
000001F80000
000000300000
000000000000
000000000000
ENDCHAR

STARTCHAR cns3_2357
ENCODING 9047
SWIDTH 960 0
DWIDTH 42 0
BBX 42 42 0 -6
BITMAP
000000000000
000000000000
000038000000
00003C000000
000038000000
000038000000
000038000000
000038000800
000038001C00
3FFFFFFFFE00
00003C000000
00007E000000
0000F7800000
0001E3C00000
0001C1E00000
000380F00000
0007003C0000
000E001F0000
003C000FC000
00F00007FC00
03C00001FF00
0F000E007F00
38000F001E00
00000E000000
00000E000000
00000E000000
01C00E007000
01E00E007800
01C00E007000
01C00E007000
01C00E007000
01C00E007000
01C00E007000
01C00E007000
01C00E007000
01C00E007000
01FFFFFFF000
01C000007000
01C000007000
000000000000
000000000000
000000000000
ENDCHAR

STARTCHAR cns3_2358
ENCODING 9048
SWIDTH 960 0
DWIDTH 42 0
BBX 42 42 0 -6
BITMAP
000000000000
000000000000
000000008000
00000001C000
07FFFFFFE000
00000001C000
00000001C000
00000001C000
00000001C000
00000001C000
01C00001C000
01FFFFFFC000
01C00001C000
01C00001E000
01C000000000
01C000000000
01C000000000
01C000000400
01C000000400
01C000000400
01E000000E00
01F000001E00
00FFFFFFFC00
007FFFFFF800
000000000000
000000000000
00001C000000
00001E000000
00001C000000
03801C00E000
03C01C00F000
03801C00E000
03801C00E000
03801C00E000
03801C00E000
03801C00E000
03801C00E000
03FFFFFFE000
03800000E000
03800000E000
000000000000
000000000000
ENDCHAR

STARTCHAR cns3_2359
ENCODING 9049
SWIDTH 960 0
DWIDTH 42 0
BBX 42 42 0 -6
BITMAP
000000000000
000000000000
000000000800
00E00E001C00
00F00FFFFE00
00E00E001C00
00E00E001C00
00E00E001C00
00E00E001C00
38E70E001C00
3CE78E001C00
38E70E001C00
38E70E001C00
38E70E001C00
38E70E001C00
38E70E001C00
38E70E001C00
38E70E001C00
38E70FFFFC00
38E70E001C00
38E70E001C00
38E70E000000
38E70E000000
38E70E000000
38E70E000000
38E70E000000
38E70E000000
38E70E000000
38E70E000000
38E70E000000
38E70E000000
3FFF0E000100
38070E000100
38070E000100
00000E000300
00000E000380
00000F000780
000007FFFF00
000003FFFE00
000000000000
000000000000
000000000000
ENDCHAR

STARTCHAR cns3_235A
ENCODING 9050
SWIDTH 960 0
DWIDTH 42 0
BBX 42 42 0 -6
BITMAP
000000000000
000000000000
000000000000
00001C000000
00001E000000
00001C000000
00001C000000
00001C000000
03801C00E000
03C01C00F000
03801C00E000
03801C00E000
03801C00E000
03801C00E000
03801C00E000
03801C00E000
03801C00E000
03801C00E000
03FFFFFFE000
03800000E000
03800000E000
00001C000000
00001E000000
00001C000000
00001C000000
00001C000000
03801C00E000
03C01C00F000
03801C00E000
03801C00E000
03801C00E000
03801C00E000
03801C00E000
03801C00E000
03801C00E000
03801C00E000
03FFFFFFE000
03800000E000
03800000E000
000000000000
000000000000
000000000000
ENDCHAR

STARTCHAR cns3_235B
ENCODING 9051
SWIDTH 960 0
DWIDTH 42 0
BBX 42 42 0 -6
BITMAP
000000000000
000000000000
00E00E000000
00F00F000000
00E00E000000
00E00E000000
00E01E000000
00E01E000000
00E01F000000
00E03FC00000
00E038F00000
00E0707C0000
00E0E01E0000
00F1C00F0000
00FB80000000
00FFFFFFE000
003FFFFFE000
000000000000
000000000000
00381C0E0000
003C1E0F0000
00381C0E0000
00381C0E0000
00381C0E0000
00381C0E0000
00781C0E0000
00781C0E0000
00781C0E0000
00701C0E0000
00701C0E0000
00701C0E0000
00701C0E0100
00601C0E0100
00E01C0E0100
00E01C0E0300
01C01C0E0380
03C01C0F0780
07801E07FF00
0F001C03FE00
3C0000000000
000000000000
000000000000
ENDCHAR

STARTCHAR cns3_235C
ENCODING 9052
SWIDTH 960 0
DWIDTH 42 0
BBX 42 42 0 -6
BITMAP
000000000000
000000000000
007000000400
007800000E00
0073FFFFFF00
007000700000
007000700000
007000700000
007000700000
187000700000
1C7000700000
1C7000700800
0E70E0701C00
0F70FFFFFE00
0770E0701C00
0770E0701C00
0370E0701C00
0070E0701C00
0070E0701C00
0070E0701C00
0070E0701C00
0070E0701C00
0070E0701C00
0070E0701C00
0070E0701C00
0070E0701C00
00F0E0701C00
00F0E0701C00
00E0E0701C00
00E0E0703C00
01C0E071FC00
01C0E0707800
03C0E0703000
0380E0700000
038000700000
070000700000
060000700000
0E0000700000
1C0000700000
000000700000
000000700000
000000000000
ENDCHAR

STARTCHAR cns3_235D
ENCODING 9053
SWIDTH 960 0
DWIDTH 42 0
BBX 42 42 0 -6
BITMAP
000000000000
000000000000
00E000180000
00F0001C0000
00E0003C0000
00E000780000
00E000F00000
00E003E00000
00E007800000
00E11E000000
38E380020000
3FFFCE070000
38E38FFF8000
38E38E070000
38E38E070000
38E38E070000
38E38E070000
38E38E070000
38E38E070000
38E38E070000
38E38E070000
38E38E070000
38E38C070000
38E39C070000
38E39C070000
38E39C070000
38E39C070000
38E39C070000
38E79C070100
38FFB8070100
38E7B8070100
38E378070100
00E070070100
00E0F0070300
00E0E0070380
00E1C0078780
00E38003FF00
00E70001FE00
00EE00000000
00FC00000000
00E000000000
000000000000
ENDCHAR

STARTCHAR cns3_235E
ENCODING 9054
SWIDTH 960 0
DWIDTH 42 0
BBX 42 42 0 -6
BITMAP
000000000000
000000000000
000007000000
000007800000
000007000000
000007000400
070007000E00
07FFFFFFFF00
070000000000
070000000000
070007000000
07000FC00000
07000F800000
07001F000000
07001E020000
07003C070000
07003FFF8000
070078070000
070070070000
0700F00F0000
0700E00E0000
0701C01E0000
0703803C0000
0703003C0000
070700780000
070E00F80000
071C01FC0000
070001EE0000
070003CE0000
0F0007870000
0F000F078000
0F001E03C000
0E003C01C000
0E007801E000
1C00F000F800
1C03C0007C00
180780003F00
380E00001F80
303C00000F80
007000000000
000000000000
000000000000
ENDCHAR

STARTCHAR cns3_235F
ENCODING 9055
SWIDTH 960 0
DWIDTH 42 0
BBX 42 42 0 -6
BITMAP
000000000000
000000000000
000007000000
000007800000
000007000000
000007000400
070007000E00
07FFFFFFFF00
070000000000
070000000000
070000004000
07000000E000
0707FFFFF000
070000E00000
070000E00000
070000E00000
070000E00000
070000E00000
070000E00000
070000E00000
070000E00200
070000E00700
073FFFFFFF80
070000E00000
070000E00000
070000E00000
070000E00000
070000E00000
070000E00000
0F0000E00000
0F0000E00000
0E0000E00000
0E0000E00000
1E0000E00000
1C0000E00000
1C0000E00000
180001E00000
1800FFE00000
30000FC00000
300003800000
000000000000
000000000000
ENDCHAR

STARTCHAR cns3_2360
ENCODING 9056
SWIDTH 960 0
DWIDTH 42 0
BBX 42 42 0 -6
BITMAP
000000000000
000000000000
000007000000
000007800000
000007000000
000007000400
070007000E00
07FFFFFFFF00
070000000000
070000000000
0700000E0000
0700003E0000
070000FC0000
070003F00000
07000FC00000
0700FF000000
0707F7000000
071F07000000
070007000000
070007000000
070007001E00
070007007E00
0700071FF800
070007FF8000
0700FFF00000
077FE7000000
077C07000000
073007000000
070007000000
0F0007000000
0F0007000000
0E0007000400
0E0007000400
1E0007000400
1C0007000400
1C0007000600
180007800E00
180007C01E00
300003FFFC00
300001FFF800
000000000000
000000000000
ENDCHAR

STARTCHAR cns3_2361
ENCODING 9057
SWIDTH 960 0
DWIDTH 42 0
BBX 42 42 0 -6
BITMAP
000000000000
000000000000
000400000000
000E00000000
1FFF03870E00
000E03C78F00
000E03870E00
001C03870E00
003C070E1C00
0038070E1C00
00780F0E3C00
00700E1C3800
00F00E1C3800
00E00C187000
01E01C387000
03C71C387000
03FF9830E000
07873870E000
070778F1C000
00073061C000
000F3870C000
000E1830E000
038E1C387000
078E1C387000
0F9C0C1C7800
1D9C0E1C3800
1DDC0E1C3C00
1DF8070E1C00
00F8070F1E00
00F807870E00
007003878F00
00F003838700
00F803838700
01DE01838300
038F80000300
0703E0000000
0E00FFE00000
1C001FFFFF00
300001FFFF00
000000000000
000000000000
000000000000
ENDCHAR

STARTCHAR cns3_2362
ENCODING 9058
SWIDTH 960 0
DWIDTH 42 0
BBX 42 42 0 -6
BITMAP
000000000000
000000000000
000000E30000
000000F38000
000000E1E000
000000E0F000
000000E07000
000000E03000
000000E00000
000000E00400
000000E00E00
1FFFFFFFFF00
000000F00000
000000F00000
000000F00000
000000F00000
000000700000
000008780000
00001C780000
0FFFFE780000
000000780000
000000780000
000000380000
0000003C0000
0000203C0000
0000701E0000
07FFF81E0000
0000000E0000
0000000F0000
000000070000
000000078000
000004038200
00000E03C200
1FFFFF01E200
00000000F200
000000007600
000000003F00
000000001F00
000000000600
000000000000
000000000000
000000000000
ENDCHAR

STARTCHAR cns3_2363
ENCODING 9059
SWIDTH 960 0
DWIDTH 42 0
BBX 42 42 0 -6
BITMAP
000000000000
000400000000
000E01C00000
1FFF01E00000
000E01C00000
000E03C00000
000E03800000
000E03800000
000E07800400
000E07800E00
000E07FFFF00
000E0F000E00
0E0E0E000E00
0FFE0E000E00
0C0E1C000E00
0C0E18000E00
0C0038000E00
0C0030000E00
1C0001800E00
1C0001C00E00
180000F00E00
180200780C00
1807003C1C00
1FFF801E1C00
180F000E1C00
180F000E1C00
000F00061C00
000F00001C00
001F00001C00
001F00001C00
001E00001C00
001E00003C00
001E00003800
001E00003800
001C00003800
003C00007000
003C007FF000
00780007E000
0FF80003C000
01F000018000
00E000000000
000000000000
ENDCHAR

STARTCHAR cns3_2364
ENCODING 9060
SWIDTH 960 0
DWIDTH 42 0
BBX 42 42 0 -6
BITMAP
000000000000
000400000000
000E00000000
1FFF00001000
000E00003800
000E3FFFFC00
000E00000000
000E00000000
000E00000000
000E00000000
000E00000000
000E00000000
0C0E00000800
0FFE00001C00
0C0EFFFFFE00
0C0E03800000
0C0003800000
0C0003800000
1C0007800000
180007800000
180407001000
180E0F003800
1FFF0FFFFC00
180E0E003800
180E1C003800
000E1C003800
001E00003800
001E00003800
001E00003800
001E00003000
001C00007000
001C00007000
001C0000F000
003C0000F000
003C0000E000
003C0001E000
00780003C000
1FF800FF8000
03F0001F0000
00E000060000
000000000000
000000000000
ENDCHAR

STARTCHAR cns3_2365
ENCODING 9061
SWIDTH 960 0
DWIDTH 42 0
BBX 42 42 0 -6
BITMAP
000000000000
000000000000
0000000C0000
0000000F8000
0070001F0000
001E003C0000
000780780000
0001C0F00000
0000F1E00000
00003FC00000
00001F800000
00003FC00000
000079F00000
0001F07C0000
0003C03E0000
000F000F0000
003C00078000
00F00003C000
07C00001C000
1E000000C000
000000000000
000000000000
00000C000000
001806000000
001F07000000
001E03800000
001C01C00000
041C01C00000
041C01C01800
0C1C00C00C00
0C1C00010E00
0C1C00010700
1C1C00030700
1C1C00030380
381E00060380
781F000E0180
700FFFFF0180
3007FFFF0000
0001FFFC0000
000000000000
000000000000
000000000000
ENDCHAR

STARTCHAR cns3_2366
ENCODING 9062
SWIDTH 960 0
DWIDTH 42 0
BBX 42 42 0 -6
BITMAP
000000000000
00E000000000
00F000000000
00E000001000
00E000003800
00E03FFFFC00
00E000380000
00E000380000
00E000380000
04EC00380000
0CEE00380000
0CE700380000
0CE700380000
1CE700380000
1CE300380000
1CE000380000
3CE000380400
3CE000380E00
38E0FFFFFF00
00E000380000
00E000380000
00E000380000
00E000380000
00E000380000
00E000380000
00E000380000
00E000380000
00E000380000
00E000380000
00E000380000
00E000380000
00E000380000
00E000380000
00E000380000
00E000380000
00E000380000
00E000380000
00E000380000
00E000380000
00E000380000
00E000380000
000000000000
ENDCHAR

STARTCHAR cns3_2367
ENCODING 9063
SWIDTH 960 0
DWIDTH 42 0
BBX 42 42 0 -6
BITMAP
000000000000
00E0001C0000
00F0001E0000
00E0001C0000
00E0001C0000
00E0001C0000
00E01C1C0000
00E01E1C0000
00E01C1C0400
00EC1C1C0E00
0CEE1C1C1F00
0CEF1C1CFE00
0CE71C1FEE00
1CE71C1F0E00
1CE71CFC0E00
3CE01FDC0E00
3CE03F1C0E00
3CE1FC1C0E00
38E0FC1C0E00
00E01C1C0E00
00E01C1C0E00
00E01C1C0E00
00E01C1C0E00
00E01C1C0E00
00E01C1C0E00
00E01C1C1E00
00E01C1DFC00
00E01C1C7800
00E01C1C3000
00E01C1C0000
00E01C1C0000
00E01C000200
00E01C000200
00E01C000200
00E01C000300
00E01E000700
00E01F000F00
00E00FFFFE00
00E007FFFC00
00E000000000
00E000000000
000000000000
ENDCHAR

STARTCHAR cns3_2368
ENCODING 9064
SWIDTH 960 0
DWIDTH 42 0
BBX 42 42 0 -6
BITMAP
000000000000
00E000000000
00F000000000
00E000000000
00E000000400
00E000000E00
00E03FFFFF00
00E000380E00
00E000380E00
00EC00380E00
0CEE00300E00
0CE700700E00
0CE780700E00
1CE780700E00
1CE380700E00
3CE00C701E00
3CE00E701E00
3CE007701C00
38E003F01C00
00E003F01C00
00E001F01C00
00E000E01C00
00E000F01C00
00E000F81C00
00E000FC1C00
00E001FE1C00
00E001CF1C00
00E003CF1C00
00E003879C00
00E003879C00
00E007033800
00E007003800
00E00E003800
00E01C003000
00E01C007000
00E038007000
00E07000E000
00E0C03FE000
00E18007C000
00E300018000
00E600000000
000000000000
ENDCHAR

STARTCHAR cns3_2369
ENCODING 9065
SWIDTH 960 0
DWIDTH 42 0
BBX 42 42 0 -6
BITMAP
000000000000
00E000000000
00F000008000
00E01C01C000
00E01FFFE000
00E01C01C000
00E01C01C000
00E01C01C000
00E01C01C000
00EC1C01C000
0CEE1C01C000
0CEF1C01C000
0CE71C01C000
1CE71C01C000
1CE71C01C000
3CE01C01C000
3CE01DC1C000
38E01CE1C000
18E01CE1C000
00E01C71C000
00E01C79C000
00E01C39C000
00E01C39C000
00E01C39C000
00E01C19C000
00E03C01C000
00E03C01C000
00E03C01C000
00E03C01C000
00E03801C000
00E03801C000
00E07801C000
00E07001C100
00E0F001C100
00E0E001C100
00E1E001C300
00E3C001C380
00E78001E380
00E70000FF00
00EC00007E00
00E000000000
000000000000
ENDCHAR

STARTCHAR cns3_236A
ENCODING 9066
SWIDTH 960 0
DWIDTH 42 0
BBX 42 42 0 -6
BITMAP
000000000000
000000000000
00001C000000
00001E700000
00001C3C0000
00001C1F0000
00001C070000
00001C030800
00001C001C00
1FFFFFFFFE00
00001C000000
00001C000000
00001C001000
00001C003800
0FFFFFFFFC00
00001C000000
00001C000000
00001C000400
00001C000E00
3FFFFFFFFF00
00001E000000
00001E000000
00000E00C000
00000E01E000
00000F03E000
00000F078000
0000070F0000
0000079E0000
000003BC0000
000003F80000
000001E00000
000007E00000
00000FF00000
00003E780100
0000F83E0100
0003E00F8300
001F8007C380
007C0001F780
03F000007F00
1F8000001E00
000000000000
000000000000
ENDCHAR

STARTCHAR cns3_236B
ENCODING 9067
SWIDTH 960 0
DWIDTH 42 0
BBX 42 42 0 -6
BITMAP
000000000000
000000000000
000000700000
000000780000
000100738000
00038071C000
1FFFC070E000
00038070F000
000380707800
000780703800
000780700000
000700700000
000700700400
000700700E00
0C0701FFFF00
0C0F3FF80000
060E00380000
070E00380000
030E00381C00
038E00383E00
01CE00383C00
01FC00387800
00FC00387800
007C001CF000
0038001CE000
003C001DC000
003C000FC000
007E000F8000
007E000F0000
007F000F0000
00E7001F0000
01C7801F8200
01C7803B8200
0383C0F1C200
0383C1E1C200
0701C3C0E600
0E01C7007700
0C001E003F00
180078001E00
000060000C00
000000000000
000000000000
ENDCHAR

STARTCHAR cns3_236C
ENCODING 9068
SWIDTH 960 0
DWIDTH 42 0
BBX 42 42 0 -6
BITMAP
000000000000
000000000000
00E000000000
00F000000800
00E000001C00
00E03FFFFE00
00E000000000
00E000000000
00E000000000
00E200000000
00E700000000
3FFF80000000
00E000000400
00E000000E00
00E07FFFFF00
00E001C00000
00E003C00000
00E003800000
00E003800000
00E707800000
00FE07001000
00FC07003800
03E007FFFC00
0FE00E003800
3EE00E003800
3CE00E003800
1CE000003800
00E000003800
00E000007800
00E000007800
00E000007800
00E000007000
00E000007000
00E000007000
00E00000F000
00E00000F000
01E00001E000
3FE000FFC000
0FE0001F8000
03C000070000
000000000000
000000000000
ENDCHAR

STARTCHAR cns3_236D
ENCODING 9069
SWIDTH 960 0
DWIDTH 42 0
BBX 42 42 0 -6
BITMAP
000000000000
000000000000
00E000000000
00F000002000
00E000007000
00E07FFFF800
00E000E07000
00E000E07000
00E000E07000
00E200E07000
00E700E07000
3FFFC0E07000
00E000E07000
00E000E07000
00E000E07000
00E000E07000
00E000E07000
00E000E07000
00E000E07000
00E67FFFF000
00FC00E07000
00F800E07000
03E000E07000
3FE000E03000
3CE000E03800
3CE000E03800
38E000E03800
00E000E03800
00E000E03800
00E000E03800
00E000E03900
00E000E03D00
00E000E03D00
00E000E01F00
00E000E00F80
00E000E00F80
01E000E00700
3FE000E00300
0FC000E00000
038000E00000
000000E00000
000000000000
ENDCHAR

STARTCHAR cns3_236E
ENCODING 9070
SWIDTH 960 0
DWIDTH 42 0
BBX 42 42 0 -6
BITMAP
000000000000
000000000000
00E000E00000
00F000F00000
00E000E00000
00E000E00000
00E000E00000
00E000E00000
00E000E00000
00E200E00000
00E700E00000
1FFF80E00000
00E000E0E000
00E03FFFF000
00E000F0E000
00E000F0E000
00E000F0E000
00E000F0E000
00E000F0E000
00E638F0E000
00FC0EF0E000
00F807E0E000
03E003E0E000
0FE001F0E000
1CE001F8E000
1CE001FCE000
1CE001DEE000
38E003CF6000
00E0038F7100
00E003877100
00E007007100
00E007003B00
00E00E003B00
00E01C003F00
00E03C001F80
00E038001F80
01E070000F00
3FE0E0000600
0FC3C0000000
018700000000
000600000000
000000000000
ENDCHAR

STARTCHAR cns3_236F
ENCODING 9071
SWIDTH 960 0
DWIDTH 42 0
BBX 42 42 0 -6
BITMAP
000000000000
000000000000
00E000380000
00F0003C0000
00E000380000
00E000380000
00E000380000
00E000380000
00E000380000
00E200380000
00E700380000
3FFF80380000
00E000380000
00E000380000
00E000380000
00E000380800
00E000381C00
00E07FFFFE00
00E000380000
00E600380000
00FC00380000
00F800380000
03E000380000
0FE000380000
1CE000380000
3CE000380000
38E000380000
00E000380000
00E000380000
00E000380000
00E000380000
00E000380000
00E000380000
00E000380000
00E000380000
00E000380000
01E000380200
3FE000380700
0FC0FFFFFF80
038000000000
000000000000
000000000000
ENDCHAR

STARTCHAR cns3_2370
ENCODING 9072
SWIDTH 960 0
DWIDTH 42 0
BBX 42 42 0 -6
BITMAP
000000000000
000000000000
00000E000000
00000F000000
00000E000400
00000E000E00
3FFFFFFFFF00
000E001F0000
0006003E0000
0003003C0000
000380780000
0001C0F00000
0000E1E00000
000073C00000
00003F800000
00001FC00000
0000FFF80000
0003E07F0000
001F000FFF00
00FC00007F00
0F8E001C0000
000F001E0000
000E001C0000
000E001C0000
000E001C0000
000E001C0000
000E001C0000
000E001C0000
000E001C0000
000E001C0000
000E001C0000
000E001C0000
001E001C0000
001E001C0000
003C001C0000
003C001C0000
0038001C0000
0070001C0000
00E0001C0000
01C0001C0000
0000001C0000
000000000000
ENDCHAR

STARTCHAR cns3_2371
ENCODING 9073
SWIDTH 960 0
DWIDTH 42 0
BBX 42 42 0 -6
BITMAP
000000000000
003800000000
003C00000000
0038001C0000
0038001E0000
0038001C0000
0038001C0000
0038081C0000
00381C1C0000
3FFFFE1C0000
00E0001C0000
00E0001C0000
00E0001C0000
00E0001C0000
00E0001C0000
00E0001C0000
01E0201E0000
01E0701E0000
01FFF81F0000
01E0701F0000
01E0703F0000
01C0703B0000
01C0703B8000
01C0703B8000
03C0707B8000
03C07071C000
03807071C000
0380E071C000
0780E0E1E000
0780E0E0E000
0700E0E0F000
0700E1C07000
0600E3C07800
0E00E3803C00
0E00E7801E00
0C01CF001F00
1C01DE000F80
187FFC000780
381FF8000780
3003F0000000
000000000000
000000000000
ENDCHAR

STARTCHAR cns3_2372
ENCODING 9074
SWIDTH 960 0
DWIDTH 42 0
BBX 42 42 0 -6
BITMAP
000000000000
000000000000
000000000800
000000001C00
00043FFFFE00
1C0E00701C00
1FFF00701C00
1C0E00701C00
1C0E00701C00
1C0E00701C00
1C0E00F01C00
1C0E00F01C00
1C0E00F01C00
1C0E00F01C00
1C0E00E01C00
1C0E00E01C00
1C0E00E01C00
1C0E00E01C00
1FFE00E01C00
1C0E00C01C00
1C0E00C01C00
1C0E01C01C00
1C0E01C01C00
1C0E01C01C00
1C0E01801C00
1C0E03801C00
1C0E03801C00
1C0E07801C00
1C0E07001C00
1C0E0F001C00
1FFE0E001C00
1C0E1E001C00
1C0E1C003C00
000038003800
000078007800
0000F000F000
0001E001E000
0003C07FC000
0007801F8000
000600060000
000000000000
000000000000
ENDCHAR

STARTCHAR cns3_2373
ENCODING 9075
SWIDTH 960 0
DWIDTH 42 0
BBX 42 42 0 -6
BITMAP
000000000000
000000380000
0000003C0000
000000380000
000400380000
380E00380000
3FFF00380000
380E00380000
380E00380000
380E00380000
380E00380000
380E00380000
380E00380000
380E00380000
380E00380000
380E00380800
380E00381C00
380EFFFFFE00
3FFE00380000
380E00380000
380E00380000
380E00380000
380E00380000
380E00380000
380E00380000
380E00380000
380E00380000
380E00380000
380E00380000
380E00380000
3FFE00380000
380E00380000
380E00380000
000000380000
000000380000
000000380000
000000380000
000000380000
000000380000
000000380000
000000380000
000000000000
ENDCHAR

STARTCHAR cns3_2374
ENCODING 9076
SWIDTH 960 0
DWIDTH 42 0
BBX 42 42 0 -6
BITMAP
000000000000
000000000000
00001C000000
00001E000000
00001C000000
00001C004000
03801C00E000
03FFFFFFF000
03801C00E000
03801C00E000
03801C00E000
03801C00E000
03801C00E000
03801C00E000
03FFFFFFE000
03801C00E000
03801C00E000
03801C00E000
03801C00E000
03801C00E000
03801C00E000
03801C00E000
03FFFFFFE000
03801E00E000
03803C00E000
03803E000000
00003F000000
000073800000
000071800000
0000E1C00000
0001C0E00000
0003C0700000
000380380000
0007001E0000
000E000F8000
003C0007E000
00780003F800
00E00000FF00
03C000003F00
0F0000000E00
0C0000000000
000000000000
ENDCHAR

STARTCHAR cns3_2375
ENCODING 9077
SWIDTH 960 0
DWIDTH 42 0
BBX 42 42 0 -6
BITMAP
000000000000
007000000000
007800000000
007000000000
007000000400
007000000E00
00701FFFFF00
007000380E00
007080380E00
0071C0380E00
3FFFE0380E00
00F000380E00
00F000300E00
00F000700E00
01F000700E00
01FC00700E00
01FE00700E00
03F780700E00
03F3C0700E00
03F1E0700E00
0771E0700E00
0770E0600E00
0E7000600E00
0E7000E00E00
0C7000E00E00
1C7000E00E00
187000C00E00
387001C00E00
307001C00E00
007003801E00
007003801E00
007007801C00
00700F001C00
00700E003C00
00701E003C00
00703C003800
007038007800
00707000F000
0070E01FE000
0071C003C000
007300018000
000000000000
ENDCHAR

STARTCHAR cns3_2376
ENCODING 9078
SWIDTH 960 0
DWIDTH 42 0
BBX 42 42 0 -6
BITMAP
000000000000
000000000000
007000000000
007800004000
00700000E000
00707FFFF000
00700780E000
00700780E000
00700780C000
007087818000
0071C7818000
3FFFE7818000
00F007818000
00F007018000
00F007018000
01FC07038200
01FE07038700
01FF0703FF80
03F787030700
03F3C7030700
07F1C7030700
0771C7000700
077007000F00
0E7007000E00
0E700F000E00
1C700E000E00
1C700E000E00
38700E000E00
30701E001E00
30701C001E00
00703C001E00
00703C001C00
007038001C00
007078003C00
007070003C00
0070E0007800
0070E000F800
0071C07FF000
00738007E000
007300038000
007200000000
000000000000
ENDCHAR

STARTCHAR cns3_2377
ENCODING 9079
SWIDTH 960 0
DWIDTH 42 0
BBX 42 42 0 -6
BITMAP
000000000000
000000000000
007000E00000
007800F00000
007000E00000
007000E00000
007000E00000
007000E00000
007000E00000
007080E00000
0071C0E00000
3FFFE0E00000
00F000E00000
00F000E00000
00F001E00000
01FC01F00000
01FE01F00000
01FF01F00000
03F781F80000
03F3C1D80000
07F1C3DC0000
0771C39C0000
0770038C0000
0E70038E0000
0E70070E0000
1C70070F0000
1C7007070000
38700E078000
30700E03C000
30701E03C000
00701C01E000
00703801F000
00707800F800
007070007C00
0070E0007E00
0071C0003F00
007380001F00
007700000F00
007E00000600
007C00000000
007000000000
000000000000
ENDCHAR

STARTCHAR cns3_2378
ENCODING 9080
SWIDTH 960 0
DWIDTH 42 0
BBX 42 42 0 -6
BITMAP
000000000000
000000000000
000000000000
000000380000
07FFFFFC0000
0001C0780000
0001C0780000
0003C0700000
0003C0601000
000380E03800
000380FFFC00
000381C03800
000701C03800
000701803800
000F00003800
000E00003800
001C00007800
003C00007000
00780000F000
00E0007FE000
01C00E0FC000
07800F018000
1E000E000000
00000E000000
00000E000800
00000E001C00
1FFFFFFFFE00
00007F800000
0000FFC00000
0001FEE00000
0003EE700000
0007CE1C0000
001F0E0F0000
003E0E07C000
00F80E01F000
01E00E007F00
07800E001F00
3C000E000000
00000E000000
00000E000000
00000E000000
000000000000
ENDCHAR

STARTCHAR cns3_2379
ENCODING 9081
SWIDTH 960 0
DWIDTH 42 0
BBX 42 42 0 -6
BITMAP
000000000000
000000000000
000000F00000
000000F00000
000100E00000
000381E00000
1FFFC1C00000
000381C00000
000381C00400
000383C00E00
000783FFFF00
000703801E00
000707801C00
000707003800
180707383800
1C0F0E3C7000
0E0F0E386000
060E0C380000
030E1C380000
038E38380000
01CE00380000
01FC003C0000
00FC003E0000
007C003E0000
003800370000
003C00370000
003C00778000
007E00778000
007E00738000
00EF00E3C000
00E700E1C000
01C781C1E000
01C7C3C0F000
0383C380F000
0703C7007800
0701CE003E00
0E01CE001F00
1C001C000F00
380030000E00
000060000000
000000000000
000000000000
ENDCHAR

STARTCHAR cns3_237A
ENCODING 9082
SWIDTH 960 0
DWIDTH 42 0
BBX 42 42 0 -6
BITMAP
000000000000
006000000000
007C00000000
007800000000
007000000000
007000003000
00E000007800
00FFFFFFFC00
01C000000000
01C000000000
038000000000
038000000000
070000030000
063000078000
0C3FFFFFC000
18380E03C000
00380E038000
00380E038000
00380E038000
00380E038000
00380E038000
00380E038200
00380E038700
7FFFFFFFFF80
00701C070000
00701C070000
00701C070000
00701C070000
00701C070000
00E01C070000
00E01C070400
00E01C070E00
01FFFFFFFF00
00C0000E0000
0000000E0000
0000001E0000
0000003C0000
00001FFC0000
000001F80000
000000700000
000000600000
000000000000
ENDCHAR

STARTCHAR cns3_237B
ENCODING 9083
SWIDTH 960 0
DWIDTH 42 0
BBX 42 42 0 -6
BITMAP
000000000000
000000000000
000300000000
0007C0000000
000F80004000
003E0000E000
00F81FFFF000
01E00070E000
07E00070C000
3EE000718000
30E000F18000
00E000F18000
00E000E18000
00E380E30000
00E3C0E30400
00EF80E30E00
03FE00C7FF00
0FE000C60600
3CE000C60600
38E001C00E00
00E001C00E00
00E0E1800E00
00E0F3800E00
00E1E3801C00
00FF87001C00
03F807001C00
3FE00E001C00
3CE01E003C00
30E01C003800
00E038003800
00E038007800
00E07000F100
00E0E001F100
00E1C0FFE100
00E1C01F8100
00E180070300
00F000000380
00F800000780
007FFFFFFF00
003FFFFFFE00
000000000000
000000000000
ENDCHAR

STARTCHAR cns3_237C
ENCODING 9084
SWIDTH 960 0
DWIDTH 42 0
BBX 42 42 0 -6
BITMAP
000000000000
000000000000
038000007800
03C00001FC00
01E00007F000
00F0003F8000
007007FC0000
00707F380000
000000380000
000000380000
000400380000
000C00380000
000800380000
1C0800380000
1E1800380000
0F1000380000
079000380000
07B000380400
03B000380E00
0061FFFFFF00
006000380000
006000380000
00E000380000
00C000380000
00C000380000
01C000380000
018000380000
038000380000
078000380000
0F8000380000
078000380000
078000380000
078000380000
078000380000
078000380000
078000380000
078000380000
078000380000
038000380000
030000380000
000000380000
000000000000
ENDCHAR

STARTCHAR cns3_237D
ENCODING 9085
SWIDTH 960 0
DWIDTH 42 0
BBX 42 42 0 -6
BITMAP
000000000000
000000000000
030000006000
03800000F800
01E00003F800
01F00007C000
00F0001F0000
007000FC0000
003007E00000
00003FE00000
0004E0E00000
000400E00000
000C00E00000
380800E00000
1C0800E00000
0F1800E00000
0F9000E00000
07B000E01C00
03B000E03C00
013000E1FC00
006000FF0000
00603FE00000
00E3F8E00000
00C000E00000
00C000E00000
01C000E00000
018000E00000
038000E00000
078000E00000
0F8000E00200
078000E00200
078000E00200
078000E00200
078000E00200
078000E00600
078000E00700
078000F00700
078000F80F00
0380007FFE00
0300003FFC00
000000000000
000000000000
ENDCHAR

STARTCHAR cns3_237E
ENCODING 9086
SWIDTH 960 0
DWIDTH 42 0
BBX 42 42 0 -6
BITMAP
000000000000
000000000000
030007000000
038007800000
01E007000000
01F007000000
00F807000000
00780F000000
00380E000000
00000E004000
00001E00E000
00081FFFF000
00081C00E000
38183C01E000
1C183C01E000
0F107C01E000
0F307C01C000
07307C01C000
0360EE03C000
0060EE03C000
0061C6038000
00C187078000
00C387070000
00C307870000
018003870000
018001CE0000
038001EE0000
030000FC0000
078000FC0000
0F8000780000
0780007C0000
070000FE0000
070001EF0000
078003C78000
07800F03C000
07801E01F000
07807C00FE00
0780F0007F00
0783C0001F00
038F00000600
000000000000
000000000000
ENDCHAR

STARTCHAR cns3_2421
ENCODING 9249
SWIDTH 960 0
DWIDTH 42 0
BBX 42 42 0 -6
BITMAP
000000000000
000000000000
000007000000
000007800000
000007001800
000007003800
0001C7C07800
0FFFE7E0F000
0007E731C000
0003C73B8000
0007871E0000
000F070E0000
001E07078000
003C0703C000
00F00701F000
01E007007C00
07800F003F00
1E03FF000F00
38007E000000
00001C000000
000000000000
00001C000000
00001E000000
00001C000000
00001C000000
00001C000000
00001C000000
00001C000000
00003E000000
00003F000000
000073800000
0000F1E00000
0001E0F00000
0003C0780000
000F803E0000
001E000F8000
007C0003F000
01F00000FF00
07C000003F00
1E0000000E00
000000000000
000000000000
ENDCHAR

STARTCHAR cns3_2422
ENCODING 9250
SWIDTH 960 0
DWIDTH 42 0
BBX 42 42 0 -6
BITMAP
000000000000
000000000000
000F00700000
001F80780000
001F00700000
003C00700000
003C00700000
007800700000
007800700000
00F000700000
00F000700000
01E000700C00
01E000701F00
03F0067C3E00
03FBFFFE3800
07F00FFE7000
06E00E7EE000
0CE00E70C000
1CE00E778000
18E00E770000
30E01E770000
20E01E738000
00E01E738000
00E01C718000
00E01C71C000
00E01C70E000
00E03870E000
00E03870F000
00E078707000
00E070707800
00E0E0703C00
00E0E0703E00
00E1C0701F00
00E180700F80
00E380700780
00E000700000
00E000F00000
00E03FF00000
00E007E00000
00E001C00000
00E000000000
000000000000
ENDCHAR

STARTCHAR cns3_2423
ENCODING 9251
SWIDTH 960 0
DWIDTH 42 0
BBX 42 42 0 -6
BITMAP
000000000000
000000000000
070000000000
038000000800
03C000001C00
01E1FFFFFE00
00E000E00000
006000C00000
000000C00000
000001C00000
000801800000
000801800000
001803800200
381803800700
1C13FFFFFF80
1E3007000000
0F300E000000
07600E000000
07600E000000
00601C000000
00C01C000800
00C01C001C00
00C03FFFFE00
018038001C00
018070001C00
038070001C00
030000003C00
070000003C00
0F0000003C00
1F0000003C00
0F0000003C00
0F0000003C00
0F0000003800
0F0000007800
0F0000007800
0F000000F000
07000001F000
0700007FE000
0700000FC000
060000018000
000000000000
000000000000
ENDCHAR

STARTCHAR cns3_2424
ENCODING 9252
SWIDTH 960 0
DWIDTH 42 0
BBX 42 42 0 -6
BITMAP
000000000000
000000000000
030000001000
038000003800
01E0FFFFFC00
01E000003800
00F000003800
007000003800
000000003800
000000003800
000C00003800
000800003800
000800003800
381800003800
1C1000003800
1F3000003800
0F3038003800
07203FFFF800
076038003800
006038003800
004038000000
00C038000000
00C038000000
01C038000000
018038000000
018038000000
038038000000
030038000000
0F0038000000
1F8038000000
0F0038000000
0F0038000200
070038000200
070038000200
078038000600
078038000700
07803C000F00
07801FFFFE00
07800FFFFC00
038000000000
000000000000
000000000000
ENDCHAR

STARTCHAR cns3_2425
ENCODING 9253
SWIDTH 960 0
DWIDTH 42 0
BBX 42 42 0 -6
BITMAP
000000000000
000000000000
030000000800
03C000001C00
01E07FFFFE00
00F000003C00
00F000007800
00700000F000
00000001E000
00000003C000
000400078000
000C000F0000
0008001E0000
3818003C0000
1E1800780000
0F1000700000
0F3000700000
073000700400
036000700E00
0067FFFFFF00
00E000700000
00C000700000
00C000700000
01C000700000
018000700000
018000700000
038000700000
070000700000
1F8000700000
1F8000700000
0F8000700000
078000700000
078000700000
078000700000
078000700000
078000700000
078000F00000
07807FE00000
07800FC00000
030003800000
000000000000
000000000000
ENDCHAR

STARTCHAR cns3_2426
ENCODING 9254
SWIDTH 960 0
DWIDTH 42 0
BBX 42 42 0 -6
BITMAP
000000000000
000000000000
007000000000
007800000200
007000000700
00703FFFFF80
007000070000
007000070000
007000070000
007000070000
007300070000
0073C0070000
0077C0070000
0C7F00070000
0C7E00070000
1C7C00070000
1CF000070000
1CE000070000
1CE000070000
3CE000070000
3CE000070000
38E000070000
00E000070000
00E000070000
00E000070000
00E000070000
00E000070000
01F000070000
01FC00070000
01DE00070000
03CF00070000
038780070000
0783C0070000
0703C0070000
070000070000
0E0000070000
0C00000F0000
1C0003FF0000
3800007E0000
0000001C0000
000000000000
000000000000
ENDCHAR

STARTCHAR cns3_2427
ENCODING 9255
SWIDTH 960 0
DWIDTH 42 0
BBX 42 42 0 -6
BITMAP
000000000000
000000000000
003800001C00
003C00001E00
003800001C00
003800701C00
003800781C00
003800701C00
003800701C00
003800701C00
0038F0701C00
0039F0701C00
0039C0701C00
063B80701C00
063F00701C00
063E00701C00
0E3C00701C00
0E3800701C00
0E3800701C00
0E3800701C00
1E3800701C00
1C3800701C00
003800701C00
003800701C00
003800701C00
007000701C00
007000701C00
007C00701C00
00FF00701C00
00E780701C00
01E3C0701C00
01E1E0001C00
01C0E0001C00
0380E0001C00
038000001C00
070000001C00
0F0000003C00
0E00000FFC00
1C000001F800
000000007000
000000000000
000000000000
ENDCHAR

STARTCHAR cns3_2428
ENCODING 9256
SWIDTH 960 0
DWIDTH 42 0
BBX 42 42 0 -6
BITMAP
000000000000
000000000000
00001C000000
00001E000000
00001C000000
00001E000000
00001F01E000
00301F07E000
00303D8F8000
00703DDC0000
00F07CF00000
01E078F00000
03E0F0780000
03C1E03C0000
0003C01E0000
0007800F0000
001F0007E000
007C0001F800
01F38070FF00
07C3C0783F00
3E0380700000
000380700000
000380700000
000380700000
000380700000
000380700000
000380700000
000380700000
000380700000
000780700000
000780700000
000F80700100
000F00700100
001E00700100
003C00700300
007800700380
00F000780780
01C0003FFF00
0780001FFE00
1E0000000000
180000000000
000000000000
ENDCHAR

STARTCHAR cns3_2429
ENCODING 9257
SWIDTH 960 0
DWIDTH 42 0
BBX 42 42 0 -6
BITMAP
000000000000
000000000000
000000000400
003800000E00
003FFFFFFF00
003800000000
003800000000
003801C00000
007801E00000
007801C00000
007801C00000
007801C00000
007801C00000
007001C00000
007001C00000
007001E00000
0070C1E00000
0070C1E03800
0071C3E07C00
00F1C3F0FE00
00E183F3F000
00E383F7C000
00E783BF0000
00E787B80000
00EF073C0000
00EF071C0000
01C00F1C0000
01C00F1E0000
01C00E0E0000
03801E0F0000
03801C078000
07803C038000
07007803C000
0E007001E000
0E00E000F800
1C03C0007C00
180780003F00
300F00001F00
003C00000F00
00F000000000
000000000000
000000000000
ENDCHAR

STARTCHAR cns3_242A
ENCODING 9258
SWIDTH 960 0
DWIDTH 42 0
BBX 42 42 0 -6
BITMAP
000000000000
000000002000
01C000007000
01FFFFFFF800
01C000007000
01C000007000
01C038007000
01C03C007000
01C038007000
01C038007000
01C038007000
01C038007000
01C038007000
01C0380E7000
01C3381E7000
01C3383C7000
01C338787000
01C338707000
01C738E07000
01C73DC07000
01CE3F807000
03DE3F007000
03DE7E007000
03DC7E007000
03C076007000
038077007000
0380E7007000
0780E3807800
0781E3803800
0701C1C03800
0F0381E03800
0F0700F03D00
0E0F00F81D00
0E1E007E1D00
1E3C003F0D00
1CF0001F0F00
1DC000060780
380000000780
300000000300
300000000000
000000000000
000000000000
ENDCHAR

STARTCHAR cns3_242B
ENCODING 9259
SWIDTH 960 0
DWIDTH 42 0
BBX 42 42 0 -6
BITMAP
000000000000
000000000000
000E00000000
000F00000000
000E00000000
001E00000000
001E00000000
001C00000000
003C00000700
003FFFFFFF80
007800000700
00F070000700
00E078000F00
01E070000F00
01C070000F00
038070000F00
070070000E00
0E0070000E00
1C0070000E00
381878001E00
3018781C1E00
0018F83C1E00
0038FCF81C00
0038FDE03C00
0078EF803C00
00F0EE007800
01F1CE0FF800
01E1C703F000
0001C700E000
0003C7800000
000383800000
000783C00000
000701C00000
000E00E00000
001C00F00000
003C007C0000
0078003E0000
00E0001FC000
03C0000FC000
0F0000030000
1C0000000000
000000000000
ENDCHAR

STARTCHAR cns3_242C
ENCODING 9260
SWIDTH 960 0
DWIDTH 42 0
BBX 42 42 0 -6
BITMAP
000000000000
000000000000
000080700000
0001C0780000
0103E0700000
038780700000
01C700700000
00FE00700000
007C00700000
003800700000
00F800700000
01FC00700000
03DC0070E000
071E3FFFF000
0E0E0078E000
000E0078E000
000E0078E000
001F0078E000
001F0078E000
003F1E78E000
007F8778E000
007B83F0E000
00F381F0E000
01E380F8E000
03C380FCE000
038380FEE000
070380EFE000
0E0381E77000
1C0781C77000
180781C37000
000783807100
000703807100
000707007900
00070E003B00
00071E003B00
000F1C001F80
001F38000F80
07FE70000F00
00FDC0000600
003B80000000
000300000000
000000000000
ENDCHAR

STARTCHAR cns3_242D
ENCODING 9261
SWIDTH 960 0
DWIDTH 42 0
BBX 42 42 0 -6
BITMAP
000000000000
000000000000
00000001C000
00018001E000
0303C001C000
03878001C000
01C70001C000
00EE0001C000
007C0001C000
00780001C200
00F80001C700
01FC7FFFFF80
03DC0003C000
071C0007C000
0E0E0007C000
000E000FC000
000E000FC000
001F001FC000
001F003DC000
003F0039C000
007F0079C000
007F00F1C000
00F701E1C000
01E701C1C000
03C70381C000
03870781C000
07070701C000
0E070E01C000
1C071C01C000
18073801C000
00077001C000
00076001C000
00070001C000
000F0001C000
000F0001C000
000F0001C000
001F0383C000
07FE01FFC000
01FC003FC000
0078000F0000
003000000000
000000000000
ENDCHAR

STARTCHAR cns3_242E
ENCODING 9262
SWIDTH 960 0
DWIDTH 42 0
BBX 42 42 0 -6
BITMAP
000000000000
000000000000
000000000000
000000000000
0000001C0000
0000801E0000
0001C01C0000
3FFFE03C0000
00E0003C0000
00E000380000
00E000380000
00E000380000
00E000380000
00E000380000
00E000700000
00E000700000
00E000700000
00E200700000
00E700600000
3FFFC0E00000
00E000E00000
00E000E00000
00E001C00000
00E001C00000
00E003C00000
00E00381C000
00E00380E000
00E007007000
00E1E7007800
00E787003C00
00FF0E001C00
03FC0E003E00
0FF01E03FF00
3F801C7F8F00
3E001FF80780
3C00FF800780
1801F8000380
0001F0000380
0000C0000000
000000000000
000000000000
000000000000
ENDCHAR

STARTCHAR cns3_242F
ENCODING 9263
SWIDTH 960 0
DWIDTH 42 0
BBX 42 42 0 -6
BITMAP
000000000000
000000380000
0000003C0000
000000380000
000000380000
000080380000
0001C0380000
3FFFE0380000
00E000380000
00E0003C0000
00E0003C0000
00E0003C0700
00E01FFFFF80
00E0003C0700
00E0003C0700
00E0003C0700
00E000780700
00E200780700
00E700780700
1FFF80780700
00E000700700
00E000700F00
00E000700F00
00E000E00E00
00E000E00E00
00E000E00E00
00E001E00E00
00E001C00E00
00E0E1C00E00
00E3C3800E00
00FF03800E00
01FC07000E00
07F00F001E00
1F800E001E00
3E001C001E00
3C003C001E00
180038003C00
000070007800
0000E01FF000
0001C003E000
00018001C000
000000000000
ENDCHAR

STARTCHAR cns3_2430
ENCODING 9264
SWIDTH 960 0
DWIDTH 42 0
BBX 42 42 0 -6
BITMAP
000000000000
000000000000
000001C00000
000001E00000
000001C00000
000041C00000
0000E1C00000
1FFFF1C00000
007001C00000
007001C00000
007001C00000
007001C00000
007001C00000
007001C00000
007001F00000
007001F80000
007001FE0000
007101CF8000
007381C3E000
1FFFC1C1F800
007001C0FC00
007001C03E00
007001C01F00
007001C00F00
007001C00700
007001C00300
007001C00000
007001C00000
0070F1C00000
0073C1C00000
007F81C00000
00FE01C00000
03F001C00000
1FC001C00000
1F0001C00000
1C0001C00000
000001C00000
000001C00000
000001C00000
000001C00000
000001C00000
000000000000
ENDCHAR

STARTCHAR cns3_2431
ENCODING 9265
SWIDTH 960 0
DWIDTH 42 0
BBX 42 42 0 -6
BITMAP
000000000000
000000000000
000000000E00
000000000F00
000000000E00
000008380E00
00001C3C0E00
1FFFFE380E00
001C00380E00
001C00380E00
001C00380E00
001C00380E00
001C00380E00
001C00380E00
001C00380E00
001C00380E00
001C00380E00
001C10380E00
001C38380E00
1FFFFC380E00
001C00380E00
001C00380E00
001C00380E00
001C00380E00
001C00380E00
001C00380E00
001C00380E00
001C00380E00
001C0E380E00
001C3C380E00
001FF0380E00
003FC0000E00
03FE00000E00
1FF000000E00
1F8000000E00
1E0000000E00
0C0000001E00
0000001FFE00
00000001FC00
000000003800
000000000000
000000000000
ENDCHAR

STARTCHAR cns3_2432
ENCODING 9266
SWIDTH 960 0
DWIDTH 42 0
BBX 42 42 0 -6
BITMAP
000000000000
000000000000
000000000000
000000000000
000000000400
000000000E00
1FFFFFFFFF00
000078000000
000070000000
00007C000000
0000FF000000
0000E7800000
0000E3C00000
0001E1E00000
0001C1F00000
0003C0F00000
000380700000
000700700000
000F00007000
001FFFFFF800
001C00007000
003C00007000
007C00007000
00FC00007000
01DC00007000
01DC00007000
039C00007000
071C00007000
0E1C00007000
1C1C00007000
181C00007000
001C00007000
001C00007000
001C00007000
001C00007000
001FFFFFF000
001C00007000
001C00007000
000000000000
000000000000
000000000000
000000000000
ENDCHAR

STARTCHAR cns3_2433
ENCODING 9267
SWIDTH 960 0
DWIDTH 42 0
BBX 42 42 0 -6
BITMAP
000000000000
000000000000
003803800000
003C03C00000
003803800000
003803800000
003803800000
003803800000
003823800000
003873800000
1FFFFB800000
000073800000
0000F3800000
0001E3800000
0003E3800000
0003C3800000
0007C3800000
000F83800000
001F03800000
003F03800000
007FC3800000
00FDE3800000
01FCFB800000
03DC7F800000
079C3F800000
0F1C1F800000
1C1C03800000
081C03800000
001C03800000
001C03800000
001C03800200
001C03800200
001C03800200
001C03800200
001C03800200
001C03800700
001C03800F00
001C03C01F00
001C01FFFE00
001C00FFFC00
001C00000000
000000000000
ENDCHAR

STARTCHAR cns3_2434
ENCODING 9268
SWIDTH 960 0
DWIDTH 42 0
BBX 42 42 0 -6
BITMAP
000000000000
00000E000000
00000F000000
00000E000000
00000E000000
00000E002000
00000E007000
07FFFFFFF800
000000000000
000000000000
000000060000
001C00078000
000E000F8000
000E000E0000
000F000E0000
0007801C0000
0007801C0000
000300380400
000000380E00
3FFFFFFFFF00
00000E000000
00000E000000
00000E000000
00000E000000
00000E000000
00000E000000
00000E000000
00000E000000
00000E000000
00000E000000
00000E000000
00000E000000
00000E000000
00000E000000
00000E000000
00000E000000
00000E000000
00000E000000
00000E000000
00000E000000
00000E000000
000000000000
ENDCHAR

STARTCHAR cns3_2435
ENCODING 9269
SWIDTH 960 0
DWIDTH 42 0
BBX 42 42 0 -6
BITMAP
000000000000
000000000000
000003800000
060703C00000
07FF83800000
070703800000
070703800000
070703800000
070703800000
070703800000
070703800000
070703800000
070703838000
07077FFFC000
07FF03838000
070703838000
070703838000
070703838000
070703838000
070703838000
070703838000
070703838000
070703838000
070707038000
07FF07038000
070707038000
070707038000
07070E038000
07070E038100
07070E038100
07071C038100
0E071C038300
0E071C038300
1E0738038380
1C0738038380
1C077003C780
380F6001FF00
38FF6000FE00
303E00000000
700C00000000
600000000000
000000000000
ENDCHAR

STARTCHAR cns3_2436
ENCODING 9270
SWIDTH 960 0
DWIDTH 42 0
BBX 42 42 0 -6
BITMAP
000000000000
000000000000
040000000000
040000000600
0C0000000F00
0FFFFFFFFF80
1C0000000F80
1C0000000E00
3C0000000C00
780000001800
780000001000
3030000C0000
0038001E0000
003FFFFF0000
0038000F0000
0038000E0000
0038000E0000
0038000E0000
0039E00E0000
00387E0E0000
00381F8E0000
003807CE0000
003801CE0000
0038000E0000
0038000E0000
0038000E0000
003800FE0000
003807CE0000
00387F0E0000
0073FC0E0000
0073F00E0000
0071C00E0000
0070C00E0000
00E0000E0000
00E0000E0000
01C0000E0000
01C0001E0000
038007FE0000
070000FC0000
0E0000380000
180000300000
000000000000
ENDCHAR

STARTCHAR cns3_2437
ENCODING 9271
SWIDTH 960 0
DWIDTH 42 0
BBX 42 42 0 -6
BITMAP
000000000000
000000000000
000380380000
0003C03C0000
000380380000
000380380400
000380380E00
7FFFFFFFFF80
000380380000
000380380000
000380380000
000380380000
000380380000
000000001000
000000003800
07FFFFFFFC00
000700000000
000700000000
000700000000
000E00000000
000E00000000
000E00000000
001C000E0000
001FFFFF0000
001C000E0000
0038000E0000
0038000E0000
0000000E0000
0000000E0000
0000001C0000
0000001C0000
0000001C0000
000000380000
000000380000
000000380000
000000700000
000000F00000
00001FE00000
000007C00000
000001800000
000000000000
000000000000
ENDCHAR

STARTCHAR cns3_2438
ENCODING 9272
SWIDTH 960 0
DWIDTH 42 0
BBX 42 42 0 -6
BITMAP
000000000000
000000000000
000380380000
0003C03C0000
000380380000
000380380200
000380380700
7FFFFFFFFF80
000380380000
000380380000
000380380000
000380380000
0003B8380000
00003C000000
000038000000
000038000000
000038000E00
07FFFFFFFF00
000038000F00
000038000E00
000078000E00
000070000E00
000070000E00
0000E0001E00
0000E0001E00
0001C0001E00
0001C0001C00
000380001C00
000380001C00
000700001C00
000700001C00
000E00003C00
001C00003C00
003800003C00
007000003C00
00E000007800
01C0000FF800
03800001F000
070000006000
0E0000000000
000000000000
000000000000
ENDCHAR

STARTCHAR cns3_2439
ENCODING 9273
SWIDTH 960 0
DWIDTH 42 0
BBX 42 42 0 -6
BITMAP
000000000000
000000000000
000380380000
0003C03C0000
000380380000
000380380200
000380380700
7FFFFFFFFF80
000380380000
000380380000
000380380000
000380380000
000380380000
000000000000
000000700000
00000FF80000
000000780000
000700700000
000780700000
000700700000
000700700000
000700780000
000F00380000
000E00380000
000E00380000
000E001C0000
001C001C0000
001C001E0000
0038000E0000
0038000F0000
007000078000
007000078000
00E00003C000
01E00001E000
01C00001F000
03800000FC00
070000003E00
0E0000001F00
1C0000000F00
380000000000
000000000000
000000000000
ENDCHAR

STARTCHAR cns3_243A
ENCODING 9274
SWIDTH 960 0
DWIDTH 42 0
BBX 42 42 0 -6
BITMAP
000000000000
000007000000
000007800000
000007000000
000007000000
000007000000
000007000000
000007002000
000007007000
01FFFFFFF800
000007000000
000007000000
000007000000
000007000000
000007000000
000007000000
000007000200
000007000700
7FFFFFFFFF80
000000000000
000000000000
000000070000
0000000F0000
0060000E0000
0030001E0000
0018003C0000
000C00380000
000E00780000
000780F00000
0003C1E00000
0003C3C00000
0001C7C00000
00000F800000
00003E000000
0000FC000000
0003FC000000
003FDFC00000
03FE07FFFF00
1FE000FFFF00
0000003FFC00
000000000000
000000000000
ENDCHAR

STARTCHAR cns3_243B
ENCODING 9275
SWIDTH 960 0
DWIDTH 42 0
BBX 42 42 0 -6
BITMAP
000000000000
000000000000
000000C00000
000000F80000
180000F00000
0E0000E00000
078000E00000
03C000E00000
01C000E01800
00C000E03C00
0000FFFFFE00
000000E01E00
000000E01C00
000000E01C00
00C000E01C00
01E000E01C00
7FF001C01C00
01F001C01C00
01C001C01C00
038003801C00
038003801C00
070003801C00
073007001C00
0E7807001C00
1FFC0E003C00
1C7C0E003800
18701C003800
00701C007800
00E038007000
00E07001F000
01C0E07FE000
01C1C00FC000
038380038000
070600030000
0FE000000000
3FFC00000000
7C3FC0000780
3007FFFFFF00
0000FFFFFC00
00001FFFF000
000000000000
000000000000
ENDCHAR

STARTCHAR cns3_243C
ENCODING 9276
SWIDTH 960 0
DWIDTH 42 0
BBX 42 42 0 -6
BITMAP
000000000000
000000700000
001C00700700
001E007FFF80
001C00700700
001C00700700
001C00700E00
001C00700E00
381C1C701C00
3C1C1E703800
381C1C703800
381C1C703000
381C1C707000
381C1C706000
381C1C70E000
381C1C70C000
381C1C70E000
381C1C70E000
381C1C707000
381C1C703800
381C1C703800
381C1C701C00
381C1C701C00
381C1C700E00
381C1C700E00
381C1C700600
381C1C700700
381C1C700700
381C1C700700
381C1C700700
3FFFFC700F00
38001C701F00
38001C71FE00
000000703C00
000000701800
000000700000
000000700000
000000700000
000000700000
000000700000
000000700000
000000000000
ENDCHAR

STARTCHAR cns3_243D
ENCODING 9277
SWIDTH 960 0
DWIDTH 42 0
BBX 42 42 0 -6
BITMAP
000000000000
000000000000
001C00600E00
001E007FFF00
001C00700E00
001C00700E00
001C00700E00
003C00701C00
003C00701C00
003800703800
003838703800
1FFFFC707000
007038707000
007038706000
00F03870E000
00E03871C000
00E07871C000
01E07070E000
01C070707000
01C070703000
03C0F0703800
0380E0701C00
0780E0701C00
0701E0700E00
0E01C0700E00
0FC1C0700E00
0EE380700E00
1C7B80700E00
1C1F00700E00
000F00700E00
000F80700E00
001FC0701E00
003DE071FE00
0078F0703C00
00F070701800
01C000700000
038000700000
0F0000700000
1C0000700000
000000700000
000000700000
000000000000
ENDCHAR

STARTCHAR cns3_243E
ENCODING 9278
SWIDTH 960 0
DWIDTH 42 0
BBX 42 42 0 -6
BITMAP
000000000000
000000000000
180E00000000
1FFF00000000
1C0E00000E00
1C0E0FFFFF00
1C1E00001C00
1C1C00003800
1C1C00007800
1C3800007000
1C380000E000
1C300001C000
1C30001F8000
1C60001F0000
1C60001F0000
1C70001E0000
1C30001C0000
1C38001C0200
1C1C001C0700
1C1DFFFFFF80
1C0E001C0000
1C0E001C0000
1C0E001C0000
1C07001C0000
1C07001C0000
1C07001C0000
1C07001C0000
1C0F001C0000
1CFE001C0000
1C3C001C0000
1C18001C0000
1C00001C0000
1C00001C0000
1C00001C0000
1C00001C0000
1C00001C0000
1C00003C0000
1C000FFC0000
1C0001F80000
1C0000700000
1C0000000000
000000000000
ENDCHAR

STARTCHAR cns3_243F
ENCODING 9279
SWIDTH 960 0
DWIDTH 42 0
BBX 42 42 0 -6
BITMAP
000000000000
000000000000
000000000000
000000000200
000000000700
7FFFFFFFFF80
000380700000
000380700000
000380700000
000380700000
000380700000
000380700000
030380703800
03FFFFFFFC00
038380703C00
038380703800
038700E03800
038700E03800
038700E03800
038700E03800
0387C0F83800
0387E1FC3800
038EF1EC3800
038E7DCE3800
038C3DC73800
039C1F87B800
03980F83F800
03980701F800
03B80601F800
03B00E003800
03800E003800
038000003800
038000003800
038000003800
038000003800
038000003800
038000007800
0380000FF800
03800003F000
03800000E000
038000000000
000000000000
ENDCHAR

ENDFONT
